<svg class="main-svg" xmlns="http://www.w3.org/2000/svg" xmlns:xlink="http://www.w3.org/1999/xlink" width="800" height="500" style="" viewBox="0 0 800 500"><rect x="0" y="0" width="800" height="500" style="fill: rgb(255, 255, 255); fill-opacity: 1;"/><defs id="defs-d2b61e"><g class="clips"><clipPath id="clipd2b61exyplot" class="plotclip"><rect width="640" height="320"/></clipPath><clipPath class="axesclip" id="clipd2b61ex"><rect x="80" y="0" width="640" height="500"/></clipPath><clipPath class="axesclip" id="clipd2b61ey"><rect x="0" y="100" width="800" height="320"/></clipPath><clipPath class="axesclip" id="clipd2b61exy"><rect x="80" y="100" width="640" height="320"/></clipPath></g><g class="gradients"/><g class="patterns"/></defs><g class="bglayer"/><g class="layer-below"><g class="imagelayer"/><g class="shapelayer"/></g><g class="cartesianlayer"><g class="subplot xy"><g class="layer-subplot"><g class="shapelayer"/><g class="imagelayer"/></g><g class="minor-gridlayer"><g class="x"/><g class="y"/></g><g class="gridlayer"><g class="x"/><g class="y"/></g><g class="zerolinelayer"><path class="yzl zl crisp" transform="translate(0,404)" d="M80,0h640" style="stroke: rgb(255, 255, 255); stroke-opacity: 1; stroke-width: 2px;"/></g><path class="xlines-below"/><path class="ylines-below"/><g class="overlines-below"/><g class="xaxislayer-below"/><g class="yaxislayer-below"/><g class="overaxes-below"/><g class="plot" transform="translate(80,100)" clip-path="url(#clipd2b61exyplot)"><g class="scatterlayer mlayer"><g class="trace scatter trace8f712f" style="stroke-miterlimit: 2; opacity: 1;"><g class="fills"/><g class="errorbars"/><g class="lines"><path class="js-line" d="M-294.83,304L73.91,304L74.65,300.99L75.84,296.71L76.43,297.31L76.45,297.33L77.75,297.66L77.77,297.65L86.34,294.02L86.36,294.01L92.45,288.89L92.47,288.87L99.71,279.16L99.73,279.13L106.54,264.82L106.56,264.77L117.74,228.37L117.76,228.3L124.17,199.57L124.18,199.49L126.21,188.99L126.23,188.89L131.5,161.81L131.52,161.71L136.67,133.87L136.69,133.78L142.83,101.48L142.85,101.4L146.95,81.33L146.97,81.26L151.57,62.05L151.59,61.99L157.88,42.09L157.9,42.05L163.27,30.64L163.29,30.6L166.3,26.54L166.32,26.52L170.23,22.65L170.25,22.64L179.29,18.43L179.3,18.43L181.46,17.7L181.48,17.69L183,17.54L183.02,17.55L184.46,17.18L184.48,17.18L187.74,16.48L187.76,16.48L194.65,16.62L194.67,16.63L198.59,18.99L198.6,19.01L201.48,22.38L201.5,22.41L206.29,32.27L206.3,32.32L208.13,39.09L208.14,39.14L212.91,59L212.93,59.09L216.8,82.25L216.81,82.36L219.68,102.25L219.69,102.39L225.57,147.19L225.59,147.34L226.47,155.3L228.52,171.38L237.92,236.36L239.27,244.34L244.64,268.36L245.98,273.24L250.01,284.08L251.36,287.42L259.42,297.29L260.76,298.53L262.1,303.59L263.45,304L898.82,304" style="vector-effect: non-scaling-stroke; fill: none; stroke: rgb(163, 31, 52); stroke-opacity: 1; stroke-width: 2px; opacity: 1;"/></g><g class="points"/><g class="text"/></g><g class="trace scatter trace6a7426" style="stroke-miterlimit: 2; opacity: 1;"><g class="fills"/><g class="errorbars"/><g class="lines"><path class="js-line" d="M-294.83,304L72.37,304L73.11,301.23L75.18,297.23L75.2,297.23L80.51,295.19L80.53,295.17L86.04,290.74L86.05,290.72L91.54,285.36L91.56,285.33L94.07,282.44L94.09,282.42L98.75,274.36L98.77,274.34L103,265.63L103.01,265.6L108.54,252.01L108.55,251.96L112.82,239.63L112.84,239.57L123.04,201.13L123.05,201.06L126.67,185.67L126.68,185.6L131.5,164.62L131.52,164.52L134.39,150.43L134.41,150.36L153.07,72.35L153.09,72.29L156.1,63.76L156.12,63.72L162.46,46.88L162.48,46.84L167.95,36.59L167.97,36.56L172.23,30.61L172.25,30.59L175.24,28.17L175.26,28.15L176.98,27.48L177,27.48L178.19,26.57L178.2,26.56L181.3,24.73L181.32,24.73L189.69,23.81L189.71,23.82L193.58,24.73L193.6,24.73L206.19,24.7L206.21,24.69L208.01,23.84L208.03,23.82L210.46,23.59L210.47,23.6L212.37,23.44L212.38,23.43L224.42,19.71L224.44,19.71L227.68,18.78L227.69,18.77L231.11,17.11L232.44,16.76L239.13,16.23L240.47,16.99L243.15,17.22L244.49,16.99L249.84,16L251.18,16.75L253.85,16.69L255.19,17.54L259.21,20.23L260.54,22.21L263.22,27.32L264.56,30.42L268.57,42.46L269.91,47.82L273.93,65.63L275.26,73.29L285.97,143.75L287.31,152.95L296.67,215.42L298.01,223.57L304.7,255.74L306.04,260.98L311.39,278.1L312.73,280.51L316.75,288.8L318.08,290.43L324.77,297.08L326.11,300.35L327.45,301.86L328.79,299.3L330.13,304L331.46,304L898.82,304" style="vector-effect: non-scaling-stroke; fill: none; stroke: rgb(172, 70, 76); stroke-opacity: 1; stroke-width: 2px; opacity: 1;"/></g><g class="points"/><g class="text"/></g><g class="trace scatter trace9f0d09" style="stroke-miterlimit: 2; opacity: 1;"><g class="fills"/><g class="errorbars"/><g class="lines"><path class="js-line" d="M-294.83,304L67.74,304L68.47,301.42L69.75,300.06L69.98,300.89L70,300.96L70.82,303.99L71.18,302.63L71.2,302.57L73.14,297.62L73.16,297.61L76.47,296.45L76.49,296.44L78.51,295.44L78.52,295.43L81.99,293.75L82.01,293.75L86.5,290.71L86.51,290.69L89.3,288.71L89.32,288.71L91.61,286.35L91.63,286.32L97.43,276.38L97.45,276.36L102.17,269.16L102.19,269.12L109.27,252.5L109.28,252.45L113.99,238.69L114,238.63L129.61,178.73L129.62,178.65L138.78,136.47L138.79,136.38L151.73,83.32L151.75,83.26L153.95,75.26L153.97,75.19L156.31,67.28L156.33,67.23L164.28,45.7L164.3,45.67L171.61,32.59L171.63,32.57L175.6,28.99L175.61,28.99L177.83,26.96L177.85,26.93L180.28,24.69L180.3,24.68L184.53,22.81L184.55,22.81L185.86,22.45L185.87,22.44L188.43,21.9L188.45,21.91L190.88,21.96L190.9,21.95L192.27,20.84L192.29,20.83L193.67,20.51L193.68,20.51L197.33,21.39L197.35,21.4L200.05,21.88L200.06,21.87L205.8,21.11L205.82,21.12L207.61,21.21L207.63,21.21L210.31,20.87L210.32,20.88L213.22,21.1L213.24,21.09L215.06,21.3L215.08,21.32L216.42,21.36L216.44,21.35L218.94,20.06L218.96,20.06L221.07,20.38L221.08,20.36L222.69,19.83L222.71,19.84L225.59,20.69L225.61,20.67L227.43,19.53L227.45,19.54L232.55,19.85L233.88,18.84L236.55,18.46L237.89,18.58L240.56,17.91L241.89,18.21L249.9,16.37L251.24,16.42L252.57,17.56L253.91,17.51L256.58,16.94L257.91,16.94L259.25,16.1L260.58,16.55L261.92,17.33L263.26,16.55L268.6,16.16L269.93,16.32L273.94,16.4L275.27,16.96L280.61,18.13L281.95,17.76L289.96,22.13L291.3,22.01L295.3,23L296.64,23.86L297.97,24.68L299.31,24.24L307.32,24.27L308.65,24.55L312.66,23.38L313.99,22.95L320.67,20.41L322.01,19.32L324.68,18.38L326.01,18.08L328.68,17.58L330.02,17.54L335.36,18.4L336.69,17.88L339.36,17.99L340.7,19.99L343.37,21.21L344.7,21.42L347.37,22.99L348.71,24.48L352.72,29.85L354.05,32.85L356.72,39.1L358.06,44.09L362.06,63.19L363.4,71.23L371.41,133.63L372.74,145.16L382.09,222.64L383.43,231.52L390.1,267L391.44,271.79L396.78,286.34L398.11,289.22L402.12,294.16L403.45,294.79L407.46,297.72L408.8,298.24L410.13,303.63L411.47,304L898.82,304" style="vector-effect: non-scaling-stroke; fill: none; stroke: rgb(180, 101, 102); stroke-opacity: 1; stroke-width: 2px; opacity: 1;"/></g><g class="points"/><g class="text"/></g><g class="trace scatter tracec15a31" style="stroke-miterlimit: 2; opacity: 1;"><g class="fills"/><g class="errorbars"/><g class="lines"><path class="js-line" d="M-294.83,304L75.5,304L76.24,301.05L78.14,297.75L78.16,297.75L79.27,297.28L79.28,297.26L81.25,296.56L81.27,296.56L82.26,295.88L82.28,295.86L84.87,293.48L84.89,293.47L86.68,292.27L86.7,292.23L88.91,288.7L88.93,288.69L91.62,286.16L91.63,286.14L95.95,281.18L95.97,281.14L98.02,277.8L98.04,277.79L99.96,275.75L99.97,275.73L100.71,273.57L100.72,273.5L103.46,265.52L103.48,265.49L107.7,255.38L107.71,255.32L120.1,210.57L120.11,210.49L126.91,180.6L126.92,180.52L131.91,157.5L131.92,157.41L138.46,124.54L138.47,124.47L153.77,63.37L153.79,63.32L157.16,54.5L157.18,54.46L161.22,45.81L161.24,45.78L168.36,33.01L168.37,33L172.87,27.88L172.88,27.86L175.13,26.43L175.15,26.44L177.46,26.16L177.48,26.15L182.19,24.12L182.2,24.13L185.01,24.93L185.02,24.92L187.58,23.71L187.6,23.72L189.36,24.8L189.37,24.82L190.16,24.53L190.17,24.51L191.69,24.14L191.72,24.18L191.74,24.19L194.31,25.89L194.33,25.9L197.96,27.13L197.98,27.12L200.81,26.36L200.83,26.36L205.03,26.92L205.05,26.92L209.32,28.75L209.33,28.76L212.95,29.41L212.97,29.4L216.55,28.91L216.57,28.93L219.06,30.67L219.32,30.35L219.34,30.33L221.55,28.45L221.57,28.45L224.03,27.76L226.13,27.3L232.87,22.52L234.22,22.66L238.27,22.79L239.61,22.2L245.01,19.56L246.35,19.98L249.05,19.86L250.4,20.25L254.44,21.14L255.79,22.46L259.83,24.02L261.18,24.91L263.88,26.64L265.23,26.49L266.57,26.91L267.92,28.45L273.32,28.04L274.66,27.6L276.01,26.66L277.36,27.33L280.06,26.22L281.4,25.32L282.75,25.45L284.1,26.95L285.45,28.37L286.8,27.52L289.49,28.05L290.84,29.39L292.19,30.47L293.54,30.39L294.88,29.47L296.23,30.06L298.93,31.77L300.28,30.89L302.97,29.45L304.32,28.31L305.67,27.99L307.02,26.87L309.71,23.88L311.06,23.59L316.45,21.42L317.8,21.46L319.15,20.44L320.5,21.34L324.54,24.09L325.89,24.41L331.28,26.4L332.63,26.07L335.33,27.37L336.67,27.51L338.02,28.66L339.37,27.48L342.07,26.96L343.42,26.89L346.11,26.38L347.46,26.47L348.81,26.27L350.16,26.92L351.5,25.38L352.85,25.38L358.24,23.58L359.59,22.18L360.94,21.45L362.29,21.63L364.98,18.12L366.33,17.52L370.38,16.06L371.73,18.12L374.42,19.09L375.77,22.52L381.16,32.69L382.51,36.68L385.21,41.06L386.55,43.01L387.9,44.26L389.25,44.19L390.6,44.09L391.95,44.78L397.34,45.96L398.69,48.25L402.73,58.14L404.08,62.28L410.82,99.87L412.17,108.63L418.91,155.41L420.26,165.74L428.34,226.03L429.69,234.58L435.08,263.76L436.43,269.44L440.48,282.96L441.83,284.8L448.57,294.77L449.91,295.6L452.61,296.23L453.96,297.32L455.31,299.07L456.65,304L898.82,304" style="vector-effect: non-scaling-stroke; fill: none; stroke: rgb(184, 129, 128); stroke-opacity: 1; stroke-width: 2px; opacity: 1;"/></g><g class="points"/><g class="text"/></g></g></g><g class="overplot"/><path class="xlines-above crisp" d="M75,422.5H725M75,97.5H725" style="fill: none; stroke-width: 5px; stroke: rgb(0, 0, 0); stroke-opacity: 1;"/><path class="ylines-above crisp" d="M77.5,100V420M722.5,100V420" style="fill: none; stroke-width: 5px; stroke: rgb(0, 0, 0); stroke-opacity: 1;"/><g class="overlines-above"/><g class="xaxislayer-above"><path class="xtick ticks crisp" d="M0,425v5" transform="translate(123.16,0)" style="stroke: rgb(68, 68, 68); stroke-opacity: 1; stroke-width: 4px;"/><path class="xtick ticks crisp" d="M0,425v5" transform="translate(183.05,0)" style="stroke: rgb(68, 68, 68); stroke-opacity: 1; stroke-width: 4px;"/><path class="xtick ticks crisp" d="M0,425v5" transform="translate(242.94,0)" style="stroke: rgb(68, 68, 68); stroke-opacity: 1; stroke-width: 4px;"/><path class="xtick ticks crisp" d="M0,425v5" transform="translate(322.11,0)" style="stroke: rgb(68, 68, 68); stroke-opacity: 1; stroke-width: 4px;"/><path class="xtick ticks crisp" d="M0,425v5" transform="translate(382,0)" style="stroke: rgb(68, 68, 68); stroke-opacity: 1; stroke-width: 4px;"/><path class="xtick ticks crisp" d="M0,425v5" transform="translate(441.88,0)" style="stroke: rgb(68, 68, 68); stroke-opacity: 1; stroke-width: 4px;"/><path class="xtick ticks crisp" d="M0,425v5" transform="translate(521.05,0)" style="stroke: rgb(68, 68, 68); stroke-opacity: 1; stroke-width: 4px;"/><path class="xtick ticks crisp" d="M0,425v5" transform="translate(580.94,0)" style="stroke: rgb(68, 68, 68); stroke-opacity: 1; stroke-width: 4px;"/><path class="xtick ticks crisp" d="M0,425v5" transform="translate(640.83,0)" style="stroke: rgb(68, 68, 68); stroke-opacity: 1; stroke-width: 4px;"/><path class="xtick ticks crisp" d="M0,425v5" transform="translate(719.99,0)" style="stroke: rgb(68, 68, 68); stroke-opacity: 1; stroke-width: 4px;"/><g class="xtick"><text text-anchor="middle" x="0" y="447.1" transform="translate(123.16,0)" style="font-family: Arial; font-size: 13.5px; fill: rgb(0, 0, 0); fill-opacity: 1; white-space: pre; opacity: 1;">5</text></g><g class="xtick"><text text-anchor="middle" x="0" y="451.6" style="font-family: Arial; font-size: 18px; fill: rgb(0, 0, 0); fill-opacity: 1; white-space: pre; opacity: 1;" transform="translate(183.05,0)"><tspan style="font-weight:bold">1000</tspan></text></g><g class="xtick"><text text-anchor="middle" x="0" y="447.1" style="font-family: Arial; font-size: 13.5px; fill: rgb(0, 0, 0); fill-opacity: 1; white-space: pre; opacity: 1;" transform="translate(242.94,0)">2</text></g><g class="xtick"><text text-anchor="middle" x="0" y="447.1" style="font-family: Arial; font-size: 13.5px; fill: rgb(0, 0, 0); fill-opacity: 1; white-space: pre; opacity: 1;" transform="translate(322.11,0)">5</text></g><g class="xtick"><text text-anchor="middle" x="0" y="451.6" style="font-family: Arial; font-size: 18px; fill: rgb(0, 0, 0); fill-opacity: 1; white-space: pre; opacity: 1;" transform="translate(382,0)"><tspan style="font-weight:bold">10k</tspan></text></g><g class="xtick"><text text-anchor="middle" x="0" y="447.1" style="font-family: Arial; font-size: 13.5px; fill: rgb(0, 0, 0); fill-opacity: 1; white-space: pre; opacity: 1;" transform="translate(441.88,0)">2</text></g><g class="xtick"><text text-anchor="middle" x="0" y="447.1" style="font-family: Arial; font-size: 13.5px; fill: rgb(0, 0, 0); fill-opacity: 1; white-space: pre; opacity: 1;" transform="translate(521.05,0)">5</text></g><g class="xtick"><text text-anchor="middle" x="0" y="451.6" style="font-family: Arial; font-size: 18px; fill: rgb(0, 0, 0); fill-opacity: 1; white-space: pre; opacity: 1;" transform="translate(580.94,0)"><tspan style="font-weight:bold">100k</tspan></text></g><g class="xtick"><text text-anchor="middle" x="0" y="447.1" style="font-family: Arial; font-size: 13.5px; fill: rgb(0, 0, 0); fill-opacity: 1; white-space: pre; opacity: 1;" transform="translate(640.83,0)">2</text></g><g class="xtick"><text text-anchor="middle" x="0" y="447.1" style="font-family: Arial; font-size: 13.5px; fill: rgb(0, 0, 0); fill-opacity: 1; white-space: pre; opacity: 1;" transform="translate(719.99,0)">5</text></g></g><g class="yaxislayer-above"><path class="ytick ticks crisp" d="M75,0h-5" transform="translate(0,404)" style="stroke: rgb(68, 68, 68); stroke-opacity: 1; stroke-width: 4px;"/><path class="ytick ticks crisp" d="M75,0h-5" transform="translate(0,346.4)" style="stroke: rgb(68, 68, 68); stroke-opacity: 1; stroke-width: 4px;"/><path class="ytick ticks crisp" d="M75,0h-5" transform="translate(0,288.8)" style="stroke: rgb(68, 68, 68); stroke-opacity: 1; stroke-width: 4px;"/><path class="ytick ticks crisp" d="M75,0h-5" transform="translate(0,231.2)" style="stroke: rgb(68, 68, 68); stroke-opacity: 1; stroke-width: 4px;"/><path class="ytick ticks crisp" d="M75,0h-5" transform="translate(0,173.6)" style="stroke: rgb(68, 68, 68); stroke-opacity: 1; stroke-width: 4px;"/><path class="ytick ticks crisp" d="M75,0h-5" transform="translate(0,116)" style="stroke: rgb(68, 68, 68); stroke-opacity: 1; stroke-width: 4px;"/><g class="ytick"><text text-anchor="end" x="66.4" y="6.3" transform="translate(0,404)" style="font-family: Arial; font-size: 18px; fill: rgb(0, 0, 0); fill-opacity: 1; white-space: pre; opacity: 1;"><tspan style="font-weight:bold">0</tspan></text></g><g class="ytick"><text text-anchor="end" x="66.4" y="6.3" style="font-family: Arial; font-size: 18px; fill: rgb(0, 0, 0); fill-opacity: 1; white-space: pre; opacity: 1;" transform="translate(0,346.4)"><tspan style="font-weight:bold">0.2</tspan></text></g><g class="ytick"><text text-anchor="end" x="66.4" y="6.3" style="font-family: Arial; font-size: 18px; fill: rgb(0, 0, 0); fill-opacity: 1; white-space: pre; opacity: 1;" transform="translate(0,288.8)"><tspan style="font-weight:bold">0.4</tspan></text></g><g class="ytick"><text text-anchor="end" x="66.4" y="6.3" style="font-family: Arial; font-size: 18px; fill: rgb(0, 0, 0); fill-opacity: 1; white-space: pre; opacity: 1;" transform="translate(0,231.2)"><tspan style="font-weight:bold">0.6</tspan></text></g><g class="ytick"><text text-anchor="end" x="66.4" y="6.3" style="font-family: Arial; font-size: 18px; fill: rgb(0, 0, 0); fill-opacity: 1; white-space: pre; opacity: 1;" transform="translate(0,173.6)"><tspan style="font-weight:bold">0.8</tspan></text></g><g class="ytick"><text text-anchor="end" x="66.4" y="6.3" style="font-family: Arial; font-size: 18px; fill: rgb(0, 0, 0); fill-opacity: 1; white-space: pre; opacity: 1;" transform="translate(0,116)"><tspan style="font-weight:bold">1</tspan></text></g></g><g class="overaxes-above"/></g></g><g class="polarlayer"/><g class="smithlayer"/><g class="ternarylayer"/><g class="geolayer"/><g class="funnelarealayer"/><g class="pielayer"/><g class="iciclelayer"/><g class="treemaplayer"/><g class="sunburstlayer"/><g class="glimages"/><defs id="topdefs-d2b61e"><g class="clips"/><clipPath id="legendd2b61e"><rect width="130" height="86" x="0" y="0"/></clipPath></defs><g class="layer-above"><g class="imagelayer"/><g class="shapelayer"/></g><g class="infolayer"><g class="legend" pointer-events="all" transform="translate(92.8,116.00000000000001)"><rect class="bg" shape-rendering="crispEdges" style="stroke: rgb(68, 68, 68); stroke-opacity: 1; fill: rgb(255, 255, 255); fill-opacity: 1; stroke-width: 0px;" width="130" height="86" x="0" y="0"/><g class="scrollbox" transform="" clip-path="url(#legendd2b61e)"><g class="groups"><g class="traces" transform="translate(0,14.5)" style="opacity: 1;"><text class="legendtext" text-anchor="start" x="40" y="3.9" style="font-family: Arial; font-size: 10px; fill: rgb(0, 0, 0); fill-opacity: 1; white-space: pre;">custom(2195,1.16)</text><g class="layers" style="opacity: 1;"><g class="legendfill"/><g class="legendlines"><path class="js-line" d="M5,0h30" style="fill: none; stroke: rgb(163, 31, 52); stroke-opacity: 1; stroke-width: 2px;"/></g><g class="legendsymbols"><g class="legendpoints"/></g></g><rect class="legendtoggle" x="0" y="-9.5" width="124.0625" height="19" style="fill: rgb(0, 0, 0); fill-opacity: 0;"/></g><g class="traces" transform="translate(0,33.5)" style="opacity: 1;"><text class="legendtext" text-anchor="start" x="40" y="3.9" style="font-family: Arial; font-size: 10px; fill: rgb(0, 0, 0); fill-opacity: 1; white-space: pre;">custom(2883,1.39)</text><g class="layers" style="opacity: 1;"><g class="legendfill"/><g class="legendlines"><path class="js-line" d="M5,0h30" style="fill: none; stroke: rgb(172, 70, 76); stroke-opacity: 1; stroke-width: 2px;"/></g><g class="legendsymbols"><g class="legendpoints"/></g></g><rect class="legendtoggle" x="0" y="-9.5" width="124.0625" height="19" style="fill: rgb(0, 0, 0); fill-opacity: 0;"/></g><g class="traces" transform="translate(0,52.5)" style="opacity: 1;"><text class="legendtext" text-anchor="start" x="40" y="3.9" style="font-family: Arial; font-size: 10px; fill: rgb(0, 0, 0); fill-opacity: 1; white-space: pre;">custom(4000,1.97)</text><g class="layers" style="opacity: 1;"><g class="legendfill"/><g class="legendlines"><path class="js-line" d="M5,0h30" style="fill: none; stroke: rgb(180, 101, 102); stroke-opacity: 1; stroke-width: 2px;"/></g><g class="legendsymbols"><g class="legendpoints"/></g></g><rect class="legendtoggle" x="0" y="-9.5" width="124.0625" height="19" style="fill: rgb(0, 0, 0); fill-opacity: 0;"/></g><g class="traces" transform="translate(0,71.5)" style="opacity: 1;"><text class="legendtext" text-anchor="start" x="40" y="3.9" style="font-family: Arial; font-size: 10px; fill: rgb(0, 0, 0); fill-opacity: 1; white-space: pre;">custom(4545,2.50)</text><g class="layers" style="opacity: 1;"><g class="legendfill"/><g class="legendlines"><path class="js-line" d="M5,0h30" style="fill: none; stroke: rgb(184, 129, 128); stroke-opacity: 1; stroke-width: 2px;"/></g><g class="legendsymbols"><g class="legendpoints"/></g></g><rect class="legendtoggle" x="0" y="-9.5" width="124.0625" height="19" style="fill: rgb(0, 0, 0); fill-opacity: 0;"/></g></g></g><rect class="scrollbar" rx="20" ry="3" width="0" height="0" style="fill: rgb(128, 139, 164); fill-opacity: 1;" x="0" y="0"/></g><g class="g-gtitle"/><g class="g-xtitle"><text class="xtitle" x="400" y="483.509375" text-anchor="middle" style="font-family: Arial; font-size: 22px; fill: rgb(0, 0, 0); opacity: 1; font-weight: normal; white-space: pre;"><tspan style="font-weight:bold">molecular weight, <tspan style="font-style:italic">mw​<tspan style="font-size:70%" dy="0.3em">i</tspan><tspan dy="-0.21em">​</tspan></tspan> (g/mol)</tspan></text></g><g class="g-ytitle" transform="translate(6.525390625,0)"><text class="ytitle" transform="rotate(-90,13.474999999999994,260)" x="13.474999999999994" y="260" text-anchor="middle" style="font-family: Arial; font-size: 22px; fill: rgb(0, 0, 0); opacity: 1; font-weight: normal; white-space: pre;"><tspan style="font-weight:bold">normalized weight fraction, <tspan style="font-style:italic">w​<tspan style="font-size:70%" dy="0.3em">i</tspan><tspan dy="-0.21em">​</tspan></tspan></tspan></text></g></g></svg>