<svg class="main-svg" xmlns="http://www.w3.org/2000/svg" xmlns:xlink="http://www.w3.org/1999/xlink" width="800" height="500" style="" viewBox="0 0 800 500"><rect x="0" y="0" width="800" height="500" style="fill: rgb(255, 255, 255); fill-opacity: 1;"/><defs id="defs-2076b2"><g class="clips"><clipPath id="clip2076b2xyplot" class="plotclip"><rect width="640" height="320"/></clipPath><clipPath class="axesclip" id="clip2076b2x"><rect x="80" y="0" width="640" height="500"/></clipPath><clipPath class="axesclip" id="clip2076b2y"><rect x="0" y="100" width="800" height="320"/></clipPath><clipPath class="axesclip" id="clip2076b2xy"><rect x="80" y="100" width="640" height="320"/></clipPath></g><g class="gradients"/><g class="patterns"/></defs><g class="bglayer"/><g class="layer-below"><g class="imagelayer"/><g class="shapelayer"/></g><g class="cartesianlayer"><g class="subplot xy"><g class="layer-subplot"><g class="shapelayer"/><g class="imagelayer"/></g><g class="minor-gridlayer"><g class="x"/><g class="y"/></g><g class="gridlayer"><g class="x"/><g class="y"/></g><g class="zerolinelayer"><path class="yzl zl crisp" transform="translate(0,406.09)" d="M80,0h640" style="stroke: rgb(255, 255, 255); stroke-opacity: 1; stroke-width: 2px;"/></g><path class="xlines-below"/><path class="ylines-below"/><g class="overlines-below"/><g class="xaxislayer-below"/><g class="yaxislayer-below"/><g class="overaxes-below"/><g class="plot" transform="translate(80,100)" clip-path="url(#clip2076b2xyplot)"><g class="scatterlayer mlayer"><g class="trace scatter trace4d6af5" style="stroke-miterlimit: 2; opacity: 1;"><g class="fills"/><g class="errorbars"/><g class="lines"><path class="js-line" d="M-293.42,306.09L0.8,306.09L1.55,300.98L7.61,298.31L8.36,297.95L11.39,297.05L12.14,297L16.68,296.95L17.44,297.18L29.54,300.15L30.3,300.17L32.57,300.78L33.32,300.74L43.15,300.76L43.91,300.56L51.47,301.71L52.23,301.57L54.5,301.68L55.26,301.88L57.52,301.97L58.28,301.92L72.65,301.4L73.41,301.28L77.19,300.32L77.95,300.16L86.29,296.82L86.31,296.81L89.28,294.82L89.3,294.8L92.61,292.09L92.63,292.07L97.08,287L97.1,286.97L102.45,278.45L102.47,278.41L110.38,260.25L110.4,260.19L116.12,241.79L116.14,241.72L123.74,210.65L123.76,210.56L135.28,152.59L135.3,152.48L138.6,135.41L138.62,135.29L144.55,105.53L144.57,105.42L149.51,83.46L149.53,83.38L154.92,63.72L154.94,63.67L161.24,47.36L161.26,47.32L167.6,37.37L167.62,37.35L173.39,32.76L173.41,32.75L183.64,29.32L183.66,29.33L185.22,28.96L185.24,28.95L188.35,28.32L188.37,28.32L194.76,28.22L194.78,28.23L198.58,30.19L198.6,30.21L201.98,33.75L202,33.78L206.59,42.64L206.61,42.69L209.37,52.16L209.39,52.23L213.61,69.65L213.63,69.76L222.01,123.73L222.03,123.87L238.11,238.23L238.13,238.35L242.27,259.52L242.29,259.6L247.27,278.58L247.29,278.64L251.82,289.86L251.84,289.91L256.16,295.5L256.18,295.52L261.97,300.69L261.99,300.7L266.82,302.3L266.85,302.3L281.62,304.17L282.87,304.15L286.64,304.56L287.9,304.55L323.07,304.99L324.33,304.77L328.1,305.15L329.36,305.25L335.64,305.05L336.89,305.09L393.43,305.35L394.68,305.56L399.71,305.07L400.96,305.26L405.99,305.23L407.24,305.22L421.06,305.18L422.32,305.05L457.49,305.69L458.75,305.53L463.78,305.81L465.03,305.87L512.77,305.87L514.03,306.1L527.85,305.4L529.1,305.46L544.18,305.5L545.43,305.82L554.23,305.62L555.48,305.4L565.53,305.93L566.79,305.8L570.56,305.56L571.81,305.65L586.89,305.53L588.15,305.64L593.17,305.56L594.43,305.51L634.63,305.59L635.88,305.48L643.42,306.09L644.68,306.09L898.44,306.09" style="vector-effect: non-scaling-stroke; fill: none; stroke: rgb(163, 31, 52); stroke-opacity: 1; stroke-width: 2px; opacity: 1;"/></g><g class="points"/><g class="text"/></g><g class="trace scatter trace1e43e6" style="stroke-miterlimit: 2; opacity: 1;"><g class="fills"/><g class="errorbars"/><g class="lines"><path class="js-line" d="M-293.42,306.09L0.81,306.09L1.56,304.57L3.81,304.64L4.56,304.59L9.81,304.47L10.56,304.58L14.32,304.67L15.07,304.68L24.82,304.15L25.57,304.57L30.08,305.06L30.83,304.78L33.08,304.53L33.83,304.48L37.58,304.82L38.33,304.92L40.59,304.38L41.34,304.23L51.09,303.53L51.84,303.31L55.6,303.08L56.35,302.78L63.85,302.49L64.6,302.31L78.11,299.11L78.86,298.8L83.39,296.03L83.42,296L92.67,287.6L92.7,287.56L102.99,270.7L103.02,270.64L107.91,259.82L107.94,259.73L117.47,230.9L117.5,230.79L131.93,173.32L131.96,173.16L134.05,162.42L134.08,162.3L140.3,135.01L140.33,134.9L150.06,95.46L150.09,95.35L154.84,78.62L154.87,78.52L156.7,74.28L156.73,74.21L159.02,67.32L159.05,67.22L161.57,61.06L161.6,61L167.28,50.04L167.31,50L173.11,41.77L173.14,41.74L175.88,39.66L175.91,39.63L177.75,38.92L177.78,38.92L179.02,37.94L179.05,37.92L181.88,36.31L181.91,36.31L189.43,35.31L189.46,35.31L195.23,36.38L195.26,36.39L197.83,36.53L197.86,36.53L201.08,36.53L201.11,36.54L205.3,36.54L205.33,36.53L210.64,35.05L210.67,35.06L213.08,35.01L213.1,35L226.4,31.34L226.43,31.34L228.55,30.37L228.58,30.35L231.97,28.84L232,28.83L239.04,27.93L239.07,27.93L241.08,28.79L241.11,28.81L244.07,28.95L244.1,28.94L250.92,28.08L250.95,28.1L252.96,28.39L252.98,28.39L255.11,28.72L255.13,28.75L258.7,31.04L258.73,31.05L260.88,33.48L260.9,33.52L263.9,39.08L263.93,39.15L269.28,53.95L269.3,54.06L274.57,76.23L274.59,76.36L277.68,94.28L277.7,94.45L284.1,135.01L284.13,135.19L287.15,155.64L287.18,155.83L300.67,239.05L300.7,239.18L307.01,266.01L307.04,266.1L311.93,281.16L311.96,281.24L315.66,288.87L315.69,288.92L319.06,293.45L319.08,293.48L326.13,299.74L326.16,299.76L328.39,300.45L328.42,300.44L330.03,300.99L330.06,301L333.82,302.3L333.85,302.29L336.34,302.46L336.37,302.47L338.46,303.43L339.59,302.93L342.96,303.35L344.09,303.07L347.46,303.69L348.59,303.6L353.08,304.19L354.21,304L363.2,303.99L364.33,304.27L367.7,303.93L368.83,303.59L382.32,303.89L383.44,303.75L390.19,304.41L391.31,304.27L396.94,304.46L398.06,304.15L400.31,303.71L401.43,304.4L403.68,304.49L404.81,304.36L408.18,305.08L409.31,304.67L417.18,304.6L418.3,304.1L426.17,305.5L427.3,304.93L432.92,304.69L434.04,304.79L436.29,305L437.42,305.01L445.29,305.19L446.41,305.27L449.79,305.21L450.91,305.1L453.16,305.13L454.28,305.22L467.78,304.63L468.9,305.45L471.15,305.94L472.27,305.78L486.89,305.55L488.02,305.45L492.51,305.48L493.64,306.36L499.26,305.68L500.39,305.56L504.88,306.02L506.01,306.24L510.51,304.98L511.63,305.55L513.88,305.64L515,305.57L528.5,305.97L529.62,305.78L531.87,305.14L532.99,305.36L538.62,305.6L539.74,305.21L543.11,305.8L544.24,305.37L548.74,305.42L549.86,305.4L554.36,305.72L555.48,305.24L557.73,305.51L558.86,305.44L561.11,305.71L562.23,305.65L565.6,305.89L566.73,305.59L570.1,305.9L571.23,306.04L574.6,305.96L575.72,305.82L577.97,305.69L579.1,305.67L583.6,305.54L584.72,306.07L586.97,306.07L588.09,305.8L591.47,305.79L592.59,305.63L598.21,305.6L599.34,305.32L602.71,305.4L603.84,305.64L610.58,305.97L611.71,305.62L613.96,305.44L615.08,306.13L618.45,306.47L619.58,305.92L622.95,305.75L624.08,305.92L631.95,305.63L633.07,305.47L691.54,306.09L692.67,306.09L898.44,306.09" style="vector-effect: non-scaling-stroke; fill: none; stroke: rgb(172, 70, 76); stroke-opacity: 1; stroke-width: 2px; opacity: 1;"/></g><g class="points"/><g class="text"/></g><g class="trace scatter trace404585" style="stroke-miterlimit: 2; opacity: 1;"><g class="fills"/><g class="errorbars"/><g class="lines"><path class="js-line" d="M-293.42,306.09L0.25,306.09L1,303.76L12.96,303.66L13.7,303.84L15.2,303.81L15.95,303.22L17.44,303.32L18.19,303.66L19.68,304.32L20.43,303.7L21.92,304.1L22.67,304.44L24.91,303.78L25.66,303.28L30.89,304.3L31.64,304.81L36.12,304.78L36.87,304.52L39.86,303.57L40.61,303.79L51.07,302.58L51.82,302.92L54.8,303.39L55.55,303.14L58.54,302.53L59.29,302.67L63.02,302.47L63.77,302.39L67.51,301.63L68.25,301.26L70.5,300.59L71.24,300.77L74.23,299.88L74.98,299.73L87.73,292.82L87.76,292.78L90.12,291.31L90.16,291.3L92.4,289.09L92.43,289.03L98.6,278.96L98.63,278.92L102.57,273.25L102.6,273.19L110.25,255.82L110.28,255.72L121.83,218.15L121.86,218.03L140.39,140.12L140.42,139.97L146.01,116.62L146.04,116.53L150.71,99.32L150.74,99.18L155.23,83.03L155.26,82.93L160.36,67.8L160.39,67.71L165.79,54.89L165.82,54.82L169.57,48.25L169.6,48.21L171.63,44.62L171.66,44.56L173.57,42.4L173.6,42.36L176.06,40.31L176.09,40.3L177.87,39.18L177.9,39.16L181.55,35.76L181.59,35.74L185.12,34.26L185.15,34.27L186.62,33.9L186.65,33.89L189.05,33.38L189.08,33.39L191.45,33.49L191.48,33.48L193.04,32.3L193.08,32.27L194.37,32.07L194.4,32.08L198.08,32.94L198.11,32.96L200.73,33.38L200.76,33.38L203.67,33.2L203.71,33.2L207.12,32.98L207.15,33L208.31,32.72L208.34,32.71L211.08,32.47L211.11,32.48L213.87,32.63L213.91,32.62L215.66,32.81L215.69,32.83L217.07,32.88L217.1,32.86L219.53,31.63L219.56,31.63L220.69,32.29L220.73,32.31L221.59,32.05L221.62,32.02L223.31,31.4L223.34,31.42L226.16,32.3L226.19,32.26L228.16,31.14L228.19,31.14L233.72,31.15L233.75,31.12L236.09,29.98L236.12,29.97L240.97,29.56L241,29.55L250.13,28.21L250.16,28.19L251.94,28.17L251.97,28.2L254.3,29.22L254.34,29.21L257.72,28.86L257.75,28.87L258.64,28.5L258.67,28.47L260.48,28L260.51,28.01L263.43,28.59L263.46,28.56L265.15,28.01L265.18,28.02L272.86,27.8L272.89,27.79L274.43,28.07L274.46,28.09L277.72,28.98L277.75,28.99L279.59,29.85L279.62,29.87L283.77,30.18L283.8,30.2L285.76,30.74L285.8,30.74L289.82,33.33L289.85,33.35L291.76,33.52L291.79,33.51L294.67,34.06L294.7,34.07L297.65,35.77L297.68,35.79L298.94,35.94L298.98,35.93L301.83,35.74L301.86,35.76L303.98,35.78L304.01,35.77L307.61,35.63L307.64,35.64L310.71,35.73L310.74,35.72L321.49,31.7L321.53,31.68L324.75,29.94L324.78,29.95L326.75,29.51L326.78,29.48L328.38,29.16L328.41,29.17L336.3,29.8L336.33,29.78L339.1,29.36L339.13,29.37L340.14,30.09L340.17,30.14L342.85,32.56L342.88,32.57L347.45,34.09L347.49,34.12L353.45,41.6L353.48,41.65L356.95,49.34L356.98,49.44L360.78,64.74L361.86,70.1L365.12,90.15L366.2,98.15L372.7,148.83L373.79,158L382.46,227.28L383.54,234.38L390.05,268.36L391.13,272.58L395.47,285.61L396.55,287.73L399.8,293.48L400.89,294.8L403.06,297L404.14,297.26L407.39,299.94L408.48,299.94L417.15,302.33L418.23,301.43L427.99,303.22L429.07,302.76L431.24,303.29L432.32,303.15L439.91,302.85L441,302.37L449.67,303.49L450.75,303.04L451.84,304.06L452.92,303.42L454,302.76L455.09,303.29L459.42,304.7L460.51,304.5L463.76,303.44L464.84,303.29L465.93,304.61L467.01,304.05L469.18,304.31L470.26,304.91L473.52,304.55L474.6,305.16L475.68,305.35L476.77,304.54L482.19,304.89L483.27,305.48L484.36,305.96L485.44,305.44L487.61,305.84L488.69,306.44L491.94,305.63L493.03,305.34L500.62,303.84L501.7,304.06L503.87,304.62L504.95,304.32L506.04,303.95L507.12,304.74L509.29,305.83L510.37,305.67L512.54,305.8L513.62,306.54L516.88,305.4L517.96,305.93L520.13,305.95L521.21,305.35L525.55,304.85L526.63,305.16L532.05,305.38L533.14,305.09L539.64,304.9L540.72,305.17L545.06,306.21L546.14,305.59L548.31,306.06L549.4,305.6L551.56,304.94L552.65,305.36L554.82,306.24L555.9,306.34L556.98,306.39L558.07,305.36L560.24,305.06L561.32,305.27L563.49,304.78L564.57,305.71L568.91,306.15L569.99,305.54L571.08,305.02L572.16,305.5L574.33,304.87L575.41,305.3L577.58,305.35L578.66,304.85L581.91,305.32L583,305.08L585.17,305.78L586.25,305.25L589.5,305.94L590.59,306.68L592.75,305.97L593.84,305.07L597.09,305.58L598.17,304.89L600.34,305.04L601.43,305.82L603.59,304.87L604.68,304.02L606.85,305.31L607.93,305.28L615.52,305.3L616.6,305.83L618.77,305.55L619.85,306.34L625.27,305.74L626.36,306.21L627.44,305.61L628.53,305.91L631.78,306.56L632.86,306.47L636.11,305.88L637.2,305.96L639.37,306.09L640.45,306.09L898.44,306.09" style="vector-effect: non-scaling-stroke; fill: none; stroke: rgb(180, 101, 102); stroke-opacity: 1; stroke-width: 2px; opacity: 1;"/></g><g class="points"/><g class="text"/></g><g class="trace scatter trace6217f1" style="stroke-miterlimit: 2; opacity: 1;"><g class="fills"/><g class="errorbars"/><g class="lines"><path class="js-line" d="M-293.42,306.09L0.4,306.09L1.15,303.49L3.42,303.99L4.17,303.85L9.46,302.99L10.22,302.89L12.48,304.3L13.24,304.18L14.75,303.37L15.5,304.11L16.26,304.86L17.01,304.33L18.52,303.88L19.28,304.05L24.57,304.15L25.32,303.4L26.83,302.74L27.59,303.17L29.1,303.94L29.85,303.85L33.63,303.8L34.39,304.47L36.65,304.76L37.41,304.72L40.43,304.22L41.18,304.45L43.45,303.99L44.21,303.56L45.72,303.03L46.47,303.82L47.98,304.48L48.74,304.5L63.84,302.44L64.6,303.04L66.11,303.78L66.86,303.61L76.68,300.76L77.44,300.14L82.73,298.78L83.48,297.74L86.54,295.71L86.59,295.7L87.55,294.68L87.6,294.58L89.78,291.3L89.83,291.28L92.73,288.61L92.77,288.57L96.89,283.78L96.94,283.68L98.83,280.82L98.87,280.79L100.64,279.01L100.68,278.96L101.48,276.9L101.52,276.73L104.17,269.17L104.21,269.09L108.29,259.9L108.34,259.75L121.5,213.67L121.54,213.52L124.24,202.39L124.28,202.19L129.37,179.45L129.41,179.27L143.71,114.74L143.76,114.56L152.84,79L152.89,78.9L159.78,61.09L159.83,61.01L168.49,45.36L168.53,45.3L174.42,38.82L174.47,38.77L175.77,38.35L175.81,38.36L178.25,38.04L178.29,38.02L183.13,36.27L183.17,36.3L185.53,36.89L185.57,36.89L186.79,36.01L186.83,35.97L188.31,35.75L188.35,35.76L190.07,36.81L190.11,36.85L190.87,36.49L190.91,36.46L192.39,36.18L192.43,36.23L195.2,37.94L195.25,37.97L198.7,39L198.74,38.98L201.73,38.36L201.77,38.38L213.8,41.16L213.84,41.15L217.16,40.74L217.21,40.78L219.86,42.25L219.94,42.15L219.98,42.1L222.63,40.11L222.68,40.1L225.58,39.79L225.62,39.8L226.67,39.26L226.71,39.23L234.24,34.66L234.29,34.66L239.67,34.59L239.71,34.57L245.94,31.76L245.98,31.78L248.38,31.89L248.42,31.88L249.89,32.13L249.93,32.15L252.75,32.51L252.8,32.52L255.19,33.39L255.24,33.43L257.63,34.78L257.68,34.78L259.48,35.62L259.53,35.64L265.42,38.44L265.46,38.43L267.39,38.93L267.43,38.98L269.54,40.47L269.58,40.44L271.09,40.25L271.14,40.27L272.9,40.24L272.95,40.22L277.4,38.97L277.45,38.99L278.96,38.96L279,38.94L282.41,36.95L282.45,36.92L283.17,37.3L283.21,37.34L286.49,39.92L286.53,39.89L288.64,39.47L288.68,39.47L290.57,40.29L290.61,40.34L293.56,42.61L293.6,42.59L295.91,41.51L295.96,41.53L300.29,43.19L300.33,43.14L302.27,42.21L302.31,42.22L303.23,41.59L303.28,41.54L305.25,40.14L305.3,40.14L307.02,39.2L307.06,39.16L311.77,35.61L311.82,35.61L313.2,34.8L313.25,34.77L314.76,34.56L314.8,34.56L316.02,33.9L316.06,33.87L317.87,33.59L317.92,33.6L319.14,32.94L319.18,32.91L320.36,32.92L320.4,32.95L324.9,36.08L324.94,36.09L329.06,37.57L329.11,37.59L332.72,38.16L332.77,38.14L333.99,38.37L334.03,38.42L335.79,39.27L335.84,39.25L337.18,39.46L337.22,39.51L338.82,40.2L338.87,40.16L341.52,38.72L341.56,38.73L344.84,38.56L344.88,38.54L346.9,38.41L346.94,38.42L348.71,38.16L348.75,38.15L350.01,38.56L350.06,38.58L351.06,38.3L351.11,38.26L352.87,37.33L352.92,37.33L355.65,36.61L355.69,36.58L357.84,36.17L357.88,36.17L358.68,35.6L358.72,35.56L361.5,33.56L361.54,33.57L363.35,33.06L363.39,32.99L366.21,29.79L366.25,29.79L368.35,29.04L368.4,29.01L370.46,27.84L370.54,27.97L370.58,28.04L373.02,30.45L373.07,30.46L375.13,31.47L375.17,31.5L376.43,35.43L376.47,35.57L377.74,37.06L377.78,37.1L379.84,40.17L379.88,40.27L385.64,52.52L385.69,52.56L387.45,55.18L387.5,55.25L389.39,55.59L389.43,55.57L391.37,55.6L391.41,55.63L394.18,56.27L394.23,56.26L396.16,56.44L396.2,56.46L398.47,58.03L398.52,58.13L404.74,74.44L404.78,74.65L408.4,93.05L408.44,93.28L411.22,109.56L411.26,109.83L415.05,134.37L415.09,134.67L428.76,231.56L428.81,231.84L432.84,255.59L432.89,255.85L435.58,268L435.62,268.17L440.29,284.81L440.33,284.89L442.77,288.07L442.81,288.1L443.57,289.6L443.61,289.69L446.56,294.31L446.6,294.33L448.2,296.02L448.24,296.1L450.13,297.96L450.18,297.98L453.25,298.94L453.29,298.99L455.98,300.62L456.02,300.65L457.83,301.02L457.87,301.01L460.78,301.23L460.82,301.25L464.14,302.88L465.01,302.36L465.88,301.65L466.75,302.05L469.37,303.62L470.24,303.13L472.86,302.93L473.73,303.12L475.48,304.86L476.35,304.8L478.09,305.15L478.96,304.32L479.84,303.12L480.71,303.57L483.32,305.1L484.2,305.06L486.81,306.02L487.68,305.64L491.17,305.31L492.05,305.74L494.66,305.64L495.53,305.97L499.02,305.93L499.89,305.83L504.25,305.66L505.13,305.53L508.62,305.96L509.49,306.26L511.23,305.85L512.1,305.18L513.85,304.61L514.72,305.14L517.34,305.71L518.21,305.66L519.95,304.74L520.82,305.29L523.44,306.1L524.31,305.43L526.93,305.23L527.8,305.38L532.16,304.87L533.03,305.39L534.78,305.65L535.65,305.58L539.14,305.78L540.01,305.25L544.37,306.1L545.24,305.41L546.12,304.36L546.99,304.6L549.6,305.57L550.48,305.19L556.58,305L557.45,305.4L559.2,306.58L560.07,306.71L561.81,304.82L562.69,305.25L565.3,305.68L566.17,306.31L567.92,305.45L568.79,305.69L574.02,306.24L574.89,306.57L576.64,305.74L577.51,305.2L578.38,304.72L579.25,305.28L580.13,305.74L581,305.07L581.87,304.92L582.74,305.96L587.98,305.81L588.85,305.37L592.34,306.7L593.21,306.46L597.57,305.89L598.44,305.17L601.06,306.1L601.93,305.77L602.8,305.01L603.67,305.42L605.42,306.23L606.29,306L609.78,305.56L610.65,305.42L612.39,306.7L613.27,306.1L615.01,305.13L615.88,305.42L616.75,306.24L617.63,305.93L618.5,305.26L619.37,305.62L621.99,306.7L622.86,306.03L626.35,305.36L627.22,306.45L628.09,306.76L628.96,306.14L635.07,305.69L635.94,305.65L639.43,305.48L640.3,306.09L898.44,306.09" style="vector-effect: non-scaling-stroke; fill: none; stroke: rgb(184, 129, 128); stroke-opacity: 1; stroke-width: 2px; opacity: 1;"/></g><g class="points"/><g class="text"/></g></g></g><g class="overplot"/><path class="xlines-above crisp" d="M75,422.5H725M75,97.5H725" style="fill: none; stroke-width: 5px; stroke: rgb(0, 0, 0); stroke-opacity: 1;"/><path class="ylines-above crisp" d="M77.5,100V420M722.5,100V420" style="fill: none; stroke-width: 5px; stroke: rgb(0, 0, 0); stroke-opacity: 1;"/><g class="overlines-above"/><g class="xaxislayer-above"><path class="xtick ticks crisp" d="M0,425v5" transform="translate(124.07,0)" style="stroke: rgb(68, 68, 68); stroke-opacity: 1; stroke-width: 4px;"/><path class="xtick ticks crisp" d="M0,425v5" transform="translate(183.87,0)" style="stroke: rgb(68, 68, 68); stroke-opacity: 1; stroke-width: 4px;"/><path class="xtick ticks crisp" d="M0,425v5" transform="translate(243.66,0)" style="stroke: rgb(68, 68, 68); stroke-opacity: 1; stroke-width: 4px;"/><path class="xtick ticks crisp" d="M0,425v5" transform="translate(322.71000000000004,0)" style="stroke: rgb(68, 68, 68); stroke-opacity: 1; stroke-width: 4px;"/><path class="xtick ticks crisp" d="M0,425v5" transform="translate(382.51,0)" style="stroke: rgb(68, 68, 68); stroke-opacity: 1; stroke-width: 4px;"/><path class="xtick ticks crisp" d="M0,425v5" transform="translate(442.31,0)" style="stroke: rgb(68, 68, 68); stroke-opacity: 1; stroke-width: 4px;"/><path class="xtick ticks crisp" d="M0,425v5" transform="translate(521.36,0)" style="stroke: rgb(68, 68, 68); stroke-opacity: 1; stroke-width: 4px;"/><path class="xtick ticks crisp" d="M0,425v5" transform="translate(581.15,0)" style="stroke: rgb(68, 68, 68); stroke-opacity: 1; stroke-width: 4px;"/><path class="xtick ticks crisp" d="M0,425v5" transform="translate(640.95,0)" style="stroke: rgb(68, 68, 68); stroke-opacity: 1; stroke-width: 4px;"/><path class="xtick ticks crisp" d="M0,425v5" transform="translate(720,0)" style="stroke: rgb(68, 68, 68); stroke-opacity: 1; stroke-width: 4px;"/><g class="xtick"><text text-anchor="middle" x="0" y="447.1" transform="translate(124.07,0)" style="font-family: Arial; font-size: 13.5px; fill: rgb(0, 0, 0); fill-opacity: 1; white-space: pre; opacity: 1;">5</text></g><g class="xtick"><text text-anchor="middle" x="0" y="451.6" style="font-family: Arial; font-size: 18px; fill: rgb(0, 0, 0); fill-opacity: 1; white-space: pre; opacity: 1;" transform="translate(183.87,0)"><tspan style="font-weight:bold">1000</tspan></text></g><g class="xtick"><text text-anchor="middle" x="0" y="447.1" style="font-family: Arial; font-size: 13.5px; fill: rgb(0, 0, 0); fill-opacity: 1; white-space: pre; opacity: 1;" transform="translate(243.66,0)">2</text></g><g class="xtick"><text text-anchor="middle" x="0" y="447.1" style="font-family: Arial; font-size: 13.5px; fill: rgb(0, 0, 0); fill-opacity: 1; white-space: pre; opacity: 1;" transform="translate(322.71000000000004,0)">5</text></g><g class="xtick"><text text-anchor="middle" x="0" y="451.6" style="font-family: Arial; font-size: 18px; fill: rgb(0, 0, 0); fill-opacity: 1; white-space: pre; opacity: 1;" transform="translate(382.51,0)"><tspan style="font-weight:bold">10k</tspan></text></g><g class="xtick"><text text-anchor="middle" x="0" y="447.1" style="font-family: Arial; font-size: 13.5px; fill: rgb(0, 0, 0); fill-opacity: 1; white-space: pre; opacity: 1;" transform="translate(442.31,0)">2</text></g><g class="xtick"><text text-anchor="middle" x="0" y="447.1" style="font-family: Arial; font-size: 13.5px; fill: rgb(0, 0, 0); fill-opacity: 1; white-space: pre; opacity: 1;" transform="translate(521.36,0)">5</text></g><g class="xtick"><text text-anchor="middle" x="0" y="451.6" style="font-family: Arial; font-size: 18px; fill: rgb(0, 0, 0); fill-opacity: 1; white-space: pre; opacity: 1;" transform="translate(581.15,0)"><tspan style="font-weight:bold">100k</tspan></text></g><g class="xtick"><text text-anchor="middle" x="0" y="447.1" style="font-family: Arial; font-size: 13.5px; fill: rgb(0, 0, 0); fill-opacity: 1; white-space: pre; opacity: 1;" transform="translate(640.95,0)">2</text></g><g class="xtick"><text text-anchor="middle" x="0" y="447.1" style="font-family: Arial; font-size: 13.5px; fill: rgb(0, 0, 0); fill-opacity: 1; white-space: pre; opacity: 1;" transform="translate(720,0)">5</text></g></g><g class="yaxislayer-above"><path class="ytick ticks crisp" d="M75,0h-5" transform="translate(0,406.09)" style="stroke: rgb(68, 68, 68); stroke-opacity: 1; stroke-width: 4px;"/><path class="ytick ticks crisp" d="M75,0h-5" transform="translate(0,350.43)" style="stroke: rgb(68, 68, 68); stroke-opacity: 1; stroke-width: 4px;"/><path class="ytick ticks crisp" d="M75,0h-5" transform="translate(0,294.78)" style="stroke: rgb(68, 68, 68); stroke-opacity: 1; stroke-width: 4px;"/><path class="ytick ticks crisp" d="M75,0h-5" transform="translate(0,239.13)" style="stroke: rgb(68, 68, 68); stroke-opacity: 1; stroke-width: 4px;"/><path class="ytick ticks crisp" d="M75,0h-5" transform="translate(0,183.48000000000002)" style="stroke: rgb(68, 68, 68); stroke-opacity: 1; stroke-width: 4px;"/><path class="ytick ticks crisp" d="M75,0h-5" transform="translate(0,127.83)" style="stroke: rgb(68, 68, 68); stroke-opacity: 1; stroke-width: 4px;"/><g class="ytick"><text text-anchor="end" x="66.4" y="6.3" transform="translate(0,406.09)" style="font-family: Arial; font-size: 18px; fill: rgb(0, 0, 0); fill-opacity: 1; white-space: pre; opacity: 1;"><tspan style="font-weight:bold">0</tspan></text></g><g class="ytick"><text text-anchor="end" x="66.4" y="6.3" style="font-family: Arial; font-size: 18px; fill: rgb(0, 0, 0); fill-opacity: 1; white-space: pre; opacity: 1;" transform="translate(0,350.43)"><tspan style="font-weight:bold">0.2</tspan></text></g><g class="ytick"><text text-anchor="end" x="66.4" y="6.3" style="font-family: Arial; font-size: 18px; fill: rgb(0, 0, 0); fill-opacity: 1; white-space: pre; opacity: 1;" transform="translate(0,294.78)"><tspan style="font-weight:bold">0.4</tspan></text></g><g class="ytick"><text text-anchor="end" x="66.4" y="6.3" style="font-family: Arial; font-size: 18px; fill: rgb(0, 0, 0); fill-opacity: 1; white-space: pre; opacity: 1;" transform="translate(0,239.13)"><tspan style="font-weight:bold">0.6</tspan></text></g><g class="ytick"><text text-anchor="end" x="66.4" y="6.3" style="font-family: Arial; font-size: 18px; fill: rgb(0, 0, 0); fill-opacity: 1; white-space: pre; opacity: 1;" transform="translate(0,183.48000000000002)"><tspan style="font-weight:bold">0.8</tspan></text></g><g class="ytick"><text text-anchor="end" x="66.4" y="6.3" style="font-family: Arial; font-size: 18px; fill: rgb(0, 0, 0); fill-opacity: 1; white-space: pre; opacity: 1;" transform="translate(0,127.83)"><tspan style="font-weight:bold">1</tspan></text></g></g><g class="overaxes-above"/></g></g><g class="polarlayer"/><g class="smithlayer"/><g class="ternarylayer"/><g class="geolayer"/><g class="funnelarealayer"/><g class="pielayer"/><g class="iciclelayer"/><g class="treemaplayer"/><g class="sunburstlayer"/><g class="glimages"/><defs id="topdefs-2076b2"><g class="clips"/><clipPath id="legend2076b2"><rect width="145" height="86" x="0" y="0"/></clipPath></defs><g class="layer-above"><g class="imagelayer"/><g class="shapelayer"/></g><g class="infolayer"><g class="legend" pointer-events="all" transform="translate(92.8,116.00000000000001)"><rect class="bg" shape-rendering="crispEdges" style="stroke: rgb(68, 68, 68); stroke-opacity: 1; fill: rgb(255, 255, 255); fill-opacity: 1; stroke-width: 0px;" width="145" height="86" x="0" y="0"/><g class="scrollbox" transform="" clip-path="url(#legend2076b2)"><g class="groups"><g class="traces" transform="translate(0,14.5)" style="opacity: 1;"><text class="legendtext" text-anchor="start" x="40" y="3.9" style="font-family: Arial; font-size: 10px; fill: rgb(0, 0, 0); fill-opacity: 1; white-space: pre;">|custom(56840,5.60)|</text><g class="layers" style="opacity: 1;"><g class="legendfill"/><g class="legendlines"><path class="js-line" d="M5,0h30" style="fill: none; stroke: rgb(163, 31, 52); stroke-opacity: 1; stroke-width: 2px;"/></g><g class="legendsymbols"><g class="legendpoints"/></g></g><rect class="legendtoggle" x="0" y="-9.5" width="139.703125" height="19" style="fill: rgb(0, 0, 0); fill-opacity: 0;"/></g><g class="traces" transform="translate(0,33.5)" style="opacity: 1;"><text class="legendtext" text-anchor="start" x="40" y="3.9" style="font-family: Arial; font-size: 10px; fill: rgb(0, 0, 0); fill-opacity: 1; white-space: pre;">|custom(23479,10.41)|</text><g class="layers" style="opacity: 1;"><g class="legendfill"/><g class="legendlines"><path class="js-line" d="M5,0h30" style="fill: none; stroke: rgb(172, 70, 76); stroke-opacity: 1; stroke-width: 2px;"/></g><g class="legendsymbols"><g class="legendpoints"/></g></g><rect class="legendtoggle" x="0" y="-9.5" width="139.703125" height="19" style="fill: rgb(0, 0, 0); fill-opacity: 0;"/></g><g class="traces" transform="translate(0,52.5)" style="opacity: 1;"><text class="legendtext" text-anchor="start" x="40" y="3.9" style="font-family: Arial; font-size: 10px; fill: rgb(0, 0, 0); fill-opacity: 1; white-space: pre;">|custom(21562,5.65)|</text><g class="layers" style="opacity: 1;"><g class="legendfill"/><g class="legendlines"><path class="js-line" d="M5,0h30" style="fill: none; stroke: rgb(180, 101, 102); stroke-opacity: 1; stroke-width: 2px;"/></g><g class="legendsymbols"><g class="legendpoints"/></g></g><rect class="legendtoggle" x="0" y="-9.5" width="139.703125" height="19" style="fill: rgb(0, 0, 0); fill-opacity: 0;"/></g><g class="traces" transform="translate(0,71.5)" style="opacity: 1;"><text class="legendtext" text-anchor="start" x="40" y="3.9" style="font-family: Arial; font-size: 10px; fill: rgb(0, 0, 0); fill-opacity: 1; white-space: pre;">|custom(24707,2.82)|</text><g class="layers" style="opacity: 1;"><g class="legendfill"/><g class="legendlines"><path class="js-line" d="M5,0h30" style="fill: none; stroke: rgb(184, 129, 128); stroke-opacity: 1; stroke-width: 2px;"/></g><g class="legendsymbols"><g class="legendpoints"/></g></g><rect class="legendtoggle" x="0" y="-9.5" width="139.703125" height="19" style="fill: rgb(0, 0, 0); fill-opacity: 0;"/></g></g></g><rect class="scrollbar" rx="20" ry="3" width="0" height="0" style="fill: rgb(128, 139, 164); fill-opacity: 1;" x="0" y="0"/></g><g class="g-gtitle"/><g class="g-xtitle"><text class="xtitle" x="400" y="483.509375" text-anchor="middle" style="font-family: Arial; font-size: 22px; fill: rgb(0, 0, 0); opacity: 1; font-weight: normal; white-space: pre;"><tspan style="font-weight:bold">molecular weight, <tspan style="font-style:italic">mw​<tspan style="font-size:70%" dy="0.3em">i</tspan><tspan dy="-0.21em">​</tspan></tspan> (g/mol)</tspan></text></g><g class="g-ytitle" transform="translate(6.525390625,0)"><text class="ytitle" transform="rotate(-90,13.474999999999994,260)" x="13.474999999999994" y="260" text-anchor="middle" style="font-family: Arial; font-size: 22px; fill: rgb(0, 0, 0); opacity: 1; font-weight: normal; white-space: pre;"><tspan style="font-weight:bold">normalized mole fraction (<tspan style="font-style:italic">x​<tspan style="font-size:70%" dy="0.3em">i</tspan><tspan dy="-0.21em">​</tspan></tspan>)</tspan></text></g></g></svg>