<svg class="main-svg" xmlns="http://www.w3.org/2000/svg" xmlns:xlink="http://www.w3.org/1999/xlink" width="800" height="500" style="" viewBox="0 0 800 500"><rect x="0" y="0" width="800" height="500" style="fill: rgb(255, 255, 255); fill-opacity: 1;"/><defs id="defs-53bbe0"><g class="clips"><clipPath id="clip53bbe0xyplot" class="plotclip"><rect width="640" height="320"/></clipPath><clipPath class="axesclip" id="clip53bbe0x"><rect x="80" y="0" width="640" height="500"/></clipPath><clipPath class="axesclip" id="clip53bbe0y"><rect x="0" y="100" width="800" height="320"/></clipPath><clipPath class="axesclip" id="clip53bbe0xy"><rect x="80" y="100" width="640" height="320"/></clipPath></g><g class="gradients"/><g class="patterns"/></defs><g class="bglayer"/><g class="layer-below"><g class="imagelayer"/><g class="shapelayer"/></g><g class="cartesianlayer"><g class="subplot xy"><g class="layer-subplot"><g class="shapelayer"/><g class="imagelayer"/></g><g class="minor-gridlayer"><g class="x"/><g class="y"/></g><g class="gridlayer"><g class="x"/><g class="y"/></g><g class="zerolinelayer"><path class="yzl zl crisp" transform="translate(0,406.09)" d="M80,0h640" style="stroke: rgb(255, 255, 255); stroke-opacity: 1; stroke-width: 2px;"/></g><path class="xlines-below"/><path class="ylines-below"/><g class="overlines-below"/><g class="xaxislayer-below"/><g class="yaxislayer-below"/><g class="overaxes-below"/><g class="plot" transform="translate(80,100)" clip-path="url(#clip53bbe0xyplot)"><g class="scatterlayer mlayer"><g class="trace scatter trace078525" style="stroke-miterlimit: 2; opacity: 1;"><g class="fills"/><g class="errorbars"/><g class="lines"><path class="js-line" d="M-12800,306.09L-12800,28.415810526315795L0,27.83L48.16,83.48L96.33,234.85L111.84,270.47L124.5,288.99L135.22,298.11L144.49,302.44L152.68,304.45L166.62,305.77L172.67,305.95L233.98,306.09L236.34,306.09L639.99,306.09L639.99,306.09" style="vector-effect: non-scaling-stroke; fill: none; stroke: rgb(163, 31, 52); stroke-opacity: 1; stroke-width: 2px; opacity: 1;"/></g><g class="points"/><g class="text"/></g><g class="trace scatter traceacd19a" style="stroke-miterlimit: 2; opacity: 1;"><g class="fills"/><g class="errorbars"/><g class="lines"><path class="js-line" d="M-12800,306.09L-12800,269.2976210526316L0,269.22L48.16,236.03L76.34,206.26L96.33,179.64L111.84,155.93L124.5,134.91L166.62,63.26L172.67,54.43L183.38,41.11L188.17,36.38L196.87,30.22L200.84,28.6L208.16,27.83L211.56,28.52L217.88,31.73L220.83,34.11L226.4,40.18L229.02,43.76L236.34,56.18L238.62,60.76L247.05,80.48L249.01,85.64L259.72,117.03L261.35,122.21L296.2,233.88L297.17,236.52L306.21,258.65L307.05,260.47L314.96,275.49L315.7,276.7L322.73,286.62L323.39,287.42L330.31,294.36L330.91,294.85L337.69,299.39L338.23,299.68L345.82,302.77L346.3,302.92L355.22,304.8L355.63,304.85L367.47,305.79L367.82,305.8L402.75,306.09L402.96,306.09L639.99,306.09L639.99,306.09" style="vector-effect: non-scaling-stroke; fill: none; stroke: rgb(172, 70, 76); stroke-opacity: 1; stroke-width: 2px; opacity: 1;"/></g><g class="points"/><g class="text"/></g><g class="trace scatter tracedda8cc" style="stroke-miterlimit: 2; opacity: 1;"><g class="fills"/><g class="errorbars"/><g class="lines"><path class="js-line" d="M-12800,306.09L-12800,298.5758526315789L0,298.56L48.16,291.19L76.34,283.96L96.33,276.88L111.84,269.94L124.5,263.14L144.49,249.97L152.68,243.59L166.62,231.22L172.67,225.23L188.17,208.01L192.66,202.52L208.16,181.73L211.56,176.82L229.02,149.61L231.55,145.44L258.05,99.66L259.72,96.74L278.46,65.52L279.71,63.6L291.13,47.62L292.17,46.33L300.93,36.92L301.84,36.11L308.71,31.08L309.52,30.63L314.96,28.44L315.7,28.26L321.38,27.91L322.05,27.99L327.25,29.54L327.87,29.84L333.25,33.46L333.82,33.95L339.29,39.8L339.82,40.46L345.82,49.4L346.3,50.21L353.52,64.35L353.95,65.29L361.23,82.94L361.61,83.96L371.22,111.63L371.56,112.65L385.32,157.57L385.59,158.48L404.63,220.08L404.83,220.69L416.5,251.91L416.68,252.32L423.74,267.45L423.89,267.75L431.84,281.11L431.97,281.31L438.96,290L439.09,290.14L445.2,295.66L445.31,295.74L451.65,299.76L451.76,299.81L458.13,302.47L458.23,302.5L465.1,304.24L465.19,304.26L477.09,305.61L477.16,305.62L503.48,306.08L503.53,306.08L639.99,306.09L639.99,306.09" style="vector-effect: non-scaling-stroke; fill: none; stroke: rgb(180, 101, 102); stroke-opacity: 1; stroke-width: 2px; opacity: 1;"/></g><g class="points"/><g class="text"/></g><g class="trace scatter trace5250b1" style="stroke-miterlimit: 2; opacity: 1;"><g class="fills"/><g class="errorbars"/><g class="lines"><path class="js-line" d="M-12800,306.09L-12800,302.3179578947368L0,302.31L48.16,298.58L76.34,294.88L96.33,291.22L124.5,284.01L135.22,280.46L152.68,273.47L160,270.03L178.23,259.91L183.38,256.6L196.87,246.9L200.84,243.73L214.79,231.38L217.88,228.38L231.55,213.83L233.98,211.01L249.01,192.13L250.91,189.55L266.04,167.59L267.54,165.29L285.65,135.74L286.78,133.81L329.1,62L329.71,61.09L340.34,46.55L340.85,45.92L349.55,36.67L350,36.26L356.87,31.18L357.28,30.95L362.75,28.6L363.12,28.49L368.16,27.83L368.51,27.83L373.83,28.84L374.15,28.95L379.07,31.54L379.37,31.74L384.5,36.21L384.77,36.5L390.04,43.01L390.29,43.37L395.64,51.98L395.87,52.4L401.9,64.43L402.11,64.9L408.82,80.98L409.01,81.48L420.05,113.13L420.21,113.64L430.15,145.8L430.29,146.28L453.61,221.98L453.71,222.27L462.38,245.92L462.47,246.14L471.59,266.51L471.67,266.66L480.21,281.16L480.28,281.26L487.31,290.02L487.38,290.08L492.32,294.7L492.38,294.74L498.76,299.1L498.82,299.13L506.01,302.32L506.06,302.34L515.8,304.65L515.84,304.65L525.69,305.63L525.73,305.63L545.75,306.06L545.78,306.06L639.99,306.09L639.99,306.09" style="vector-effect: non-scaling-stroke; fill: none; stroke: rgb(184, 129, 128); stroke-opacity: 1; stroke-width: 2px; opacity: 1;"/></g><g class="points"/><g class="text"/></g><g class="trace scatter trace79cfa7" style="stroke-miterlimit: 2; opacity: 1;"><g class="fills"/><g class="errorbars"/><g class="lines"><path class="js-line" d="M-12800,306.09L-12800,304.5831908828827L48.16,304.58L76.34,303.82L124.5,301.57L135.22,300.83L172.67,297.11L178.23,296.38L204.6,291.98L208.16,291.25L229.02,286.2L231.55,285.48L250.91,279.1L252.77,278.4L270.43,270.78L271.84,270.09L287.89,261.32L288.99,260.66L304.49,250.2L305.36,249.56L320,237.62L320.69,237L333.25,224.96L333.82,224.37L349.55,206.74L350,206.19L364.6,187.19L364.97,186.69L382.55,160.54L382.83,160.09L399.73,132.15L399.95,131.77L440.33,63.14L440.45,62.95L452.07,46.85L452.17,46.72L461.84,36.39L461.93,36.31L468.71,31.27L468.79,31.22L474.05,28.8L474.13,28.78L479.3,27.84L479.37,27.84L484.18,28.35L484.25,28.36L490.25,31.01L490.31,31.05L496,35.73L496.06,35.78L502.88,44.26L502.93,44.34L509.69,55.82L509.73,55.91L516.3,69.91L516.34,70.01L525.33,93.27L525.36,93.37L531.62,111.89L531.65,111.99L538.54,133.94L538.57,134.04L566.47,224.57L566.49,224.63L574.48,246.24L574.5,246.28L581.71,262.77L581.73,262.8L588.5,275.45L588.52,275.47L595.42,285.54L595.44,285.56L601.56,292.29L601.57,292.3L608.88,298L608.89,298L614.46,300.95L614.47,300.95L622.69,303.67L622.7,303.67L635.32,305.47L635.33,305.47L639.99,305.74L639.99,305.74" style="vector-effect: non-scaling-stroke; fill: none; stroke: rgb(186, 157, 156); stroke-opacity: 1; stroke-width: 2px; opacity: 1;"/></g><g class="points"/><g class="text"/></g><g class="trace scatter trace306d40" style="stroke-miterlimit: 2; opacity: 1;"><g class="fills"/><g class="errorbars"/><g class="lines"><path class="js-line" d="M-12800,306.09L-12800,305.3316060072787L48.16,305.33L76.34,304.95L144.49,303.07L152.68,302.7L196.87,299.71L200.84,299.34L231.55,295.64L233.98,295.27L258.05,290.89L259.72,290.53L280.94,285.13L282.15,284.77L300.01,278.76L300.93,278.41L317.88,271.13L318.6,270.79L334.38,262.33L334.95,262L349.09,252.8L349.55,252.47L363.49,241.66L363.87,241.35L379.37,227.05L379.67,226.75L395.87,208.97L396.11,208.69L412.4,187.72L412.58,187.47L422.48,173.23L422.64,172.99L451.76,125.52L451.86,125.34L476.65,82.25L476.73,82.13L489.83,61.15L489.89,61.06L500.28,46.8L500.34,46.74L507.19,39.06L507.24,39.01L514.5,32.81L514.54,32.78L520.88,29.29L520.92,29.28L526.3,27.92L526.33,27.92L532.05,28.27L532.08,28.28L537.09,30.22L537.12,30.24L542.04,33.71L542.07,33.74L547.3,39.2L547.32,39.23L552.63,46.65L552.65,46.69L557.94,55.96L557.96,56.01L562.09,64.51L562.11,64.56L567.05,76.11L567.07,76.16L576.09,100.69L576.1,100.74L580.02,112.54L580.03,112.6L590.19,145.42L590.2,145.47L605.41,196.11L605.42,196.15L622.43,245.66L622.44,245.68L628.71,260.27L628.72,260.29L634.11,270.97L634.12,270.98L639.14,279.35L639.15,279.36L639.99,280.62" style="vector-effect: non-scaling-stroke; fill: none; stroke: rgb(185, 185, 185); stroke-opacity: 1; stroke-width: 2px; opacity: 1;"/></g><g class="points"/><g class="text"/></g></g></g><g class="overplot"/><path class="xlines-above crisp" d="M75,422.5H725M75,97.5H725" style="fill: none; stroke-width: 5px; stroke: rgb(0, 0, 0); stroke-opacity: 1;"/><path class="ylines-above crisp" d="M77.5,100V420M722.5,100V420" style="fill: none; stroke-width: 5px; stroke: rgb(0, 0, 0); stroke-opacity: 1;"/><g class="overlines-above"/><g class="xaxislayer-above"><path class="xtick ticks crisp" d="M0,425v5" transform="translate(80,0)" style="stroke: rgb(68, 68, 68); stroke-opacity: 1; stroke-width: 4px;"/><path class="xtick ticks crisp" d="M0,425v5" transform="translate(128.16,0)" style="stroke: rgb(68, 68, 68); stroke-opacity: 1; stroke-width: 4px;"/><path class="xtick ticks crisp" d="M0,425v5" transform="translate(191.84,0)" style="stroke: rgb(68, 68, 68); stroke-opacity: 1; stroke-width: 4px;"/><path class="xtick ticks crisp" d="M0,425v5" transform="translate(240,0)" style="stroke: rgb(68, 68, 68); stroke-opacity: 1; stroke-width: 4px;"/><path class="xtick ticks crisp" d="M0,425v5" transform="translate(288.15999999999997,0)" style="stroke: rgb(68, 68, 68); stroke-opacity: 1; stroke-width: 4px;"/><path class="xtick ticks crisp" d="M0,425v5" transform="translate(351.84,0)" style="stroke: rgb(68, 68, 68); stroke-opacity: 1; stroke-width: 4px;"/><path class="xtick ticks crisp" d="M0,425v5" transform="translate(400,0)" style="stroke: rgb(68, 68, 68); stroke-opacity: 1; stroke-width: 4px;"/><path class="xtick ticks crisp" d="M0,425v5" transform="translate(448.16,0)" style="stroke: rgb(68, 68, 68); stroke-opacity: 1; stroke-width: 4px;"/><path class="xtick ticks crisp" d="M0,425v5" transform="translate(511.84,0)" style="stroke: rgb(68, 68, 68); stroke-opacity: 1; stroke-width: 4px;"/><path class="xtick ticks crisp" d="M0,425v5" transform="translate(560,0)" style="stroke: rgb(68, 68, 68); stroke-opacity: 1; stroke-width: 4px;"/><path class="xtick ticks crisp" d="M0,425v5" transform="translate(608.16,0)" style="stroke: rgb(68, 68, 68); stroke-opacity: 1; stroke-width: 4px;"/><path class="xtick ticks crisp" d="M0,425v5" transform="translate(671.84,0)" style="stroke: rgb(68, 68, 68); stroke-opacity: 1; stroke-width: 4px;"/><path class="xtick ticks crisp" d="M0,425v5" transform="translate(720,0)" style="stroke: rgb(68, 68, 68); stroke-opacity: 1; stroke-width: 4px;"/><g class="xtick"><text text-anchor="middle" x="0" y="451.6" transform="translate(80,0)" style="font-family: Arial; font-size: 18px; fill: rgb(0, 0, 0); fill-opacity: 1; white-space: pre; opacity: 1;"><tspan style="font-weight:bold">1</tspan></text></g><g class="xtick"><text text-anchor="middle" x="0" y="447.1" style="font-family: Arial; font-size: 13.5px; fill: rgb(0, 0, 0); fill-opacity: 1; white-space: pre; opacity: 1;" transform="translate(128.16,0)">2</text></g><g class="xtick"><text text-anchor="middle" x="0" y="447.1" style="font-family: Arial; font-size: 13.5px; fill: rgb(0, 0, 0); fill-opacity: 1; white-space: pre; opacity: 1;" transform="translate(191.84,0)">5</text></g><g class="xtick"><text text-anchor="middle" x="0" y="451.6" style="font-family: Arial; font-size: 18px; fill: rgb(0, 0, 0); fill-opacity: 1; white-space: pre; opacity: 1;" transform="translate(240,0)"><tspan style="font-weight:bold">10</tspan></text></g><g class="xtick"><text text-anchor="middle" x="0" y="447.1" style="font-family: Arial; font-size: 13.5px; fill: rgb(0, 0, 0); fill-opacity: 1; white-space: pre; opacity: 1;" transform="translate(288.15999999999997,0)">2</text></g><g class="xtick"><text text-anchor="middle" x="0" y="447.1" style="font-family: Arial; font-size: 13.5px; fill: rgb(0, 0, 0); fill-opacity: 1; white-space: pre; opacity: 1;" transform="translate(351.84,0)">5</text></g><g class="xtick"><text text-anchor="middle" x="0" y="451.6" style="font-family: Arial; font-size: 18px; fill: rgb(0, 0, 0); fill-opacity: 1; white-space: pre; opacity: 1;" transform="translate(400,0)"><tspan style="font-weight:bold">100</tspan></text></g><g class="xtick"><text text-anchor="middle" x="0" y="447.1" style="font-family: Arial; font-size: 13.5px; fill: rgb(0, 0, 0); fill-opacity: 1; white-space: pre; opacity: 1;" transform="translate(448.16,0)">2</text></g><g class="xtick"><text text-anchor="middle" x="0" y="447.1" style="font-family: Arial; font-size: 13.5px; fill: rgb(0, 0, 0); fill-opacity: 1; white-space: pre; opacity: 1;" transform="translate(511.84,0)">5</text></g><g class="xtick"><text text-anchor="middle" x="0" y="451.6" style="font-family: Arial; font-size: 18px; fill: rgb(0, 0, 0); fill-opacity: 1; white-space: pre; opacity: 1;" transform="translate(560,0)"><tspan style="font-weight:bold">1000</tspan></text></g><g class="xtick"><text text-anchor="middle" x="0" y="447.1" style="font-family: Arial; font-size: 13.5px; fill: rgb(0, 0, 0); fill-opacity: 1; white-space: pre; opacity: 1;" transform="translate(608.16,0)">2</text></g><g class="xtick"><text text-anchor="middle" x="0" y="447.1" style="font-family: Arial; font-size: 13.5px; fill: rgb(0, 0, 0); fill-opacity: 1; white-space: pre; opacity: 1;" transform="translate(671.84,0)">5</text></g><g class="xtick"><text text-anchor="middle" x="0" y="451.6" style="font-family: Arial; font-size: 18px; fill: rgb(0, 0, 0); fill-opacity: 1; white-space: pre; opacity: 1;" transform="translate(720,0)"><tspan style="font-weight:bold">10k</tspan></text></g></g><g class="yaxislayer-above"><path class="ytick ticks crisp" d="M75,0h-5" transform="translate(0,406.09)" style="stroke: rgb(68, 68, 68); stroke-opacity: 1; stroke-width: 4px;"/><path class="ytick ticks crisp" d="M75,0h-5" transform="translate(0,350.43)" style="stroke: rgb(68, 68, 68); stroke-opacity: 1; stroke-width: 4px;"/><path class="ytick ticks crisp" d="M75,0h-5" transform="translate(0,294.78)" style="stroke: rgb(68, 68, 68); stroke-opacity: 1; stroke-width: 4px;"/><path class="ytick ticks crisp" d="M75,0h-5" transform="translate(0,239.13)" style="stroke: rgb(68, 68, 68); stroke-opacity: 1; stroke-width: 4px;"/><path class="ytick ticks crisp" d="M75,0h-5" transform="translate(0,183.48000000000002)" style="stroke: rgb(68, 68, 68); stroke-opacity: 1; stroke-width: 4px;"/><path class="ytick ticks crisp" d="M75,0h-5" transform="translate(0,127.83)" style="stroke: rgb(68, 68, 68); stroke-opacity: 1; stroke-width: 4px;"/><g class="ytick"><text text-anchor="end" x="66.4" y="6.3" transform="translate(0,406.09)" style="font-family: Arial; font-size: 18px; fill: rgb(0, 0, 0); fill-opacity: 1; white-space: pre; opacity: 1;"><tspan style="font-weight:bold">0</tspan></text></g><g class="ytick"><text text-anchor="end" x="66.4" y="6.3" style="font-family: Arial; font-size: 18px; fill: rgb(0, 0, 0); fill-opacity: 1; white-space: pre; opacity: 1;" transform="translate(0,350.43)"><tspan style="font-weight:bold">0.2</tspan></text></g><g class="ytick"><text text-anchor="end" x="66.4" y="6.3" style="font-family: Arial; font-size: 18px; fill: rgb(0, 0, 0); fill-opacity: 1; white-space: pre; opacity: 1;" transform="translate(0,294.78)"><tspan style="font-weight:bold">0.4</tspan></text></g><g class="ytick"><text text-anchor="end" x="66.4" y="6.3" style="font-family: Arial; font-size: 18px; fill: rgb(0, 0, 0); fill-opacity: 1; white-space: pre; opacity: 1;" transform="translate(0,239.13)"><tspan style="font-weight:bold">0.6</tspan></text></g><g class="ytick"><text text-anchor="end" x="66.4" y="6.3" style="font-family: Arial; font-size: 18px; fill: rgb(0, 0, 0); fill-opacity: 1; white-space: pre; opacity: 1;" transform="translate(0,183.48000000000002)"><tspan style="font-weight:bold">0.8</tspan></text></g><g class="ytick"><text text-anchor="end" x="66.4" y="6.3" style="font-family: Arial; font-size: 18px; fill: rgb(0, 0, 0); fill-opacity: 1; white-space: pre; opacity: 1;" transform="translate(0,127.83)"><tspan style="font-weight:bold">1</tspan></text></g></g><g class="overaxes-above"/></g></g><g class="polarlayer"/><g class="smithlayer"/><g class="ternarylayer"/><g class="geolayer"/><g class="funnelarealayer"/><g class="pielayer"/><g class="iciclelayer"/><g class="treemaplayer"/><g class="sunburstlayer"/><g class="glimages"/><defs id="topdefs-53bbe0"><g class="clips"/><clipPath id="legend53bbe0"><rect width="141" height="124" x="0" y="0"/></clipPath></defs><g class="layer-above"><g class="imagelayer"/><g class="shapelayer"/></g><g class="infolayer"><g class="legend" pointer-events="all" transform="translate(92.8,116.00000000000001)"><rect class="bg" shape-rendering="crispEdges" style="stroke: rgb(68, 68, 68); stroke-opacity: 1; fill: rgb(255, 255, 255); fill-opacity: 1; stroke-width: 0px;" width="141" height="124" x="0" y="0"/><g class="scrollbox" transform="" clip-path="url(#legend53bbe0)"><g class="groups"><g class="traces" transform="translate(0,14.5)" style="opacity: 1;"><text class="legendtext" text-anchor="start" x="40" y="3.9" style="font-family: Arial; font-size: 10px; fill: rgb(0, 0, 0); fill-opacity: 1; white-space: pre;">|flory_schulz(0.4000)|</text><g class="layers" style="opacity: 1;"><g class="legendfill"/><g class="legendlines"><path class="js-line" d="M5,0h30" style="fill: none; stroke: rgb(163, 31, 52); stroke-opacity: 1; stroke-width: 2px;"/></g><g class="legendsymbols"><g class="legendpoints"/></g></g><rect class="legendtoggle" x="0" y="-9.5" width="135.25" height="19" style="fill: rgb(0, 0, 0); fill-opacity: 0;"/></g><g class="traces" transform="translate(0,33.5)" style="opacity: 1;"><text class="legendtext" text-anchor="start" x="40" y="3.9" style="font-family: Arial; font-size: 10px; fill: rgb(0, 0, 0); fill-opacity: 1; white-space: pre;">|flory_schulz(0.9500)|</text><g class="layers" style="opacity: 1;"><g class="legendfill"/><g class="legendlines"><path class="js-line" d="M5,0h30" style="fill: none; stroke: rgb(172, 70, 76); stroke-opacity: 1; stroke-width: 2px;"/></g><g class="legendsymbols"><g class="legendpoints"/></g></g><rect class="legendtoggle" x="0" y="-9.5" width="135.25" height="19" style="fill: rgb(0, 0, 0); fill-opacity: 0;"/></g><g class="traces" transform="translate(0,52.5)" style="opacity: 1;"><text class="legendtext" text-anchor="start" x="40" y="3.9" style="font-family: Arial; font-size: 10px; fill: rgb(0, 0, 0); fill-opacity: 1; white-space: pre;">|flory_schulz(0.9900)|</text><g class="layers" style="opacity: 1;"><g class="legendfill"/><g class="legendlines"><path class="js-line" d="M5,0h30" style="fill: none; stroke: rgb(180, 101, 102); stroke-opacity: 1; stroke-width: 2px;"/></g><g class="legendsymbols"><g class="legendpoints"/></g></g><rect class="legendtoggle" x="0" y="-9.5" width="135.25" height="19" style="fill: rgb(0, 0, 0); fill-opacity: 0;"/></g><g class="traces" transform="translate(0,71.5)" style="opacity: 1;"><text class="legendtext" text-anchor="start" x="40" y="3.9" style="font-family: Arial; font-size: 10px; fill: rgb(0, 0, 0); fill-opacity: 1; white-space: pre;">|flory_schulz(0.9950)|</text><g class="layers" style="opacity: 1;"><g class="legendfill"/><g class="legendlines"><path class="js-line" d="M5,0h30" style="fill: none; stroke: rgb(184, 129, 128); stroke-opacity: 1; stroke-width: 2px;"/></g><g class="legendsymbols"><g class="legendpoints"/></g></g><rect class="legendtoggle" x="0" y="-9.5" width="135.25" height="19" style="fill: rgb(0, 0, 0); fill-opacity: 0;"/></g><g class="traces" transform="translate(0,90.5)" style="opacity: 1;"><text class="legendtext" text-anchor="start" x="40" y="3.9" style="font-family: Arial; font-size: 10px; fill: rgb(0, 0, 0); fill-opacity: 1; white-space: pre;">|flory_schulz(0.9990)|</text><g class="layers" style="opacity: 1;"><g class="legendfill"/><g class="legendlines"><path class="js-line" d="M5,0h30" style="fill: none; stroke: rgb(186, 157, 156); stroke-opacity: 1; stroke-width: 2px;"/></g><g class="legendsymbols"><g class="legendpoints"/></g></g><rect class="legendtoggle" x="0" y="-9.5" width="135.25" height="19" style="fill: rgb(0, 0, 0); fill-opacity: 0;"/></g><g class="traces" transform="translate(0,109.5)" style="opacity: 1;"><text class="legendtext" text-anchor="start" x="40" y="3.9" style="font-family: Arial; font-size: 10px; fill: rgb(0, 0, 0); fill-opacity: 1; white-space: pre;">|flory_schulz(0.9995)|</text><g class="layers" style="opacity: 1;"><g class="legendfill"/><g class="legendlines"><path class="js-line" d="M5,0h30" style="fill: none; stroke: rgb(185, 185, 185); stroke-opacity: 1; stroke-width: 2px;"/></g><g class="legendsymbols"><g class="legendpoints"/></g></g><rect class="legendtoggle" x="0" y="-9.5" width="135.25" height="19" style="fill: rgb(0, 0, 0); fill-opacity: 0;"/></g></g></g><rect class="scrollbar" rx="20" ry="3" width="0" height="0" style="fill: rgb(128, 139, 164); fill-opacity: 1;" x="0" y="0"/></g><g class="g-gtitle"/><g class="g-xtitle"><text class="xtitle" x="400" y="483.509375" text-anchor="middle" style="font-family: Arial; font-size: 22px; fill: rgb(0, 0, 0); opacity: 1; font-weight: normal; white-space: pre;"><tspan style="font-weight:bold">chain length</tspan></text></g><g class="g-ytitle" transform="translate(6.525390625,0)"><text class="ytitle" transform="rotate(-90,13.474999999999994,260)" x="13.474999999999994" y="260" text-anchor="middle" style="font-family: Arial; font-size: 22px; fill: rgb(0, 0, 0); opacity: 1; font-weight: normal; white-space: pre;"><tspan style="font-weight:bold">normalized mole fraction (<tspan style="font-style:italic">x​<tspan style="font-size:70%" dy="0.3em">i</tspan><tspan dy="-0.21em">​</tspan></tspan>)</tspan></text></g></g></svg>