<svg class="main-svg" xmlns="http://www.w3.org/2000/svg" xmlns:xlink="http://www.w3.org/1999/xlink" width="800" height="500" style="" viewBox="0 0 800 500"><rect x="0" y="0" width="800" height="500" style="fill: rgb(255, 255, 255); fill-opacity: 1;"/><defs id="defs-daae26"><g class="clips"><clipPath id="clipdaae26xyplot" class="plotclip"><rect width="640" height="320"/></clipPath><clipPath class="axesclip" id="clipdaae26x"><rect x="80" y="0" width="640" height="500"/></clipPath><clipPath class="axesclip" id="clipdaae26y"><rect x="0" y="100" width="800" height="320"/></clipPath><clipPath class="axesclip" id="clipdaae26xy"><rect x="80" y="100" width="640" height="320"/></clipPath></g><g class="gradients"/><g class="patterns"/></defs><g class="bglayer"/><g class="layer-below"><g class="imagelayer"/><g class="shapelayer"/></g><g class="cartesianlayer"><g class="subplot xy"><g class="layer-subplot"><g class="shapelayer"/><g class="imagelayer"/></g><g class="minor-gridlayer"><g class="x"/><g class="y"/></g><g class="gridlayer"><g class="x"/><g class="y"/></g><g class="zerolinelayer"><path class="yzl zl crisp" transform="translate(0,404)" d="M80,0h640" style="stroke: rgb(255, 255, 255); stroke-opacity: 1; stroke-width: 2px;"/></g><path class="xlines-below"/><path class="ylines-below"/><g class="overlines-below"/><g class="xaxislayer-below"/><g class="yaxislayer-below"/><g class="overaxes-below"/><g class="plot" transform="translate(80,100)" clip-path="url(#clipdaae26xyplot)"><g class="scatterlayer mlayer"><g class="trace scatter trace4e76e0" style="stroke-miterlimit: 2; opacity: 1;"><g class="fills"/><g class="errorbars"/><g class="lines"><path class="js-line" d="M0,304L185.01,303.35L185.39,303.21L187.67,301.46L188.05,300.94L189.57,297.68L190.17,295.69L192.07,285.04L192.07,285.01L194,263.61L194,263.55L196.18,219.76L196.18,219.67L197.43,183.72L197.43,183.61L198.93,131.9L198.93,131.77L200.78,66.83L200.78,66.71L203.54,16.01L203.54,16.01L203.55,16.01L203.96,17.12L203.96,17.14L204.61,24.16L204.61,24.22L205.93,57.21L205.93,57.32L207.16,104.74L207.16,104.89L207.56,122.16L207.56,122.32L207.96,139.58L207.96,139.74L208.71,172.63L208.72,172.78L209.47,203.54L209.48,203.67L213.09,289.42L213.1,289.45L215.13,301.14L215.14,301.15L216.88,303.51L216.88,303.51L216.89,303.51L219.49,303.98L219.49,303.98L219.5,303.98L230.85,304L231.62,304L609.42,304" style="vector-effect: non-scaling-stroke; fill: none; stroke: rgb(163, 31, 52); stroke-opacity: 1; stroke-width: 2px; opacity: 1;"/></g><g class="points"/><g class="text"/></g><g class="trace scatter tracec3834b" style="stroke-miterlimit: 2; opacity: 1;"><g class="fills"/><g class="errorbars"/><g class="lines"><path class="js-line" d="M0,304L214.03,303.25L214.48,303.21L223.08,301.55L223.53,301.4L228.72,298.69L228.72,298.68L232.59,294.85L232.6,294.84L236.04,289.15L236.04,289.13L238.99,281.57L239,281.54L241.96,270.29L241.97,270.25L245.13,252.58L245.14,252.52L247.05,238.27L247.06,238.2L249.09,219.67L249.09,219.59L251.47,192.96L251.48,192.86L253.74,162.83L253.74,162.72L256.22,125.66L256.22,125.54L259.34,77.22L259.34,77.1L264.52,20.02L264.53,19.98L266.03,16L266.03,16L266.04,16L266.78,16.91L266.79,16.93L268.03,23L268.03,23.05L269.31,35.22L269.31,35.32L270.79,56.48L270.79,56.62L272.6,91.18L272.61,91.35L274.89,142.87L274.9,143.06L278.24,216.6L278.24,216.76L283.11,283.04L283.12,283.1L285.07,294.51L285.08,294.54L287.31,300.8L287.32,300.81L289.64,303.18L289.65,303.18L292.76,303.91L292.77,303.91L304.8,304L305.42,304L609.42,304" style="vector-effect: non-scaling-stroke; fill: none; stroke: rgb(172, 70, 76); stroke-opacity: 1; stroke-width: 2px; opacity: 1;"/></g><g class="points"/><g class="text"/></g><g class="trace scatter trace73a51e" style="stroke-miterlimit: 2; opacity: 1;"><g class="fills"/><g class="errorbars"/><g class="lines"><path class="js-line" d="M0,304L244.38,303.26L244.9,303.24L263.53,301.44L263.54,301.43L270.21,299.79L270.22,299.78L275.54,297.59L275.55,297.58L279.69,294.99L279.71,294.98L283.87,291.19L283.88,291.17L288.2,285.36L288.21,285.34L293.05,275.42L293.06,275.39L296.93,263.72L296.94,263.67L300.47,249.01L300.48,248.95L303.36,233.45L303.37,233.38L306.16,214.73L306.17,214.65L308.5,196.13L308.51,196.03L310.6,177.06L310.61,176.95L323.12,41.64L323.14,41.54L325.54,24.18L325.56,24.11L327.44,16.98L327.45,16.96L328.61,16.04L328.71,16.1L328.72,16.1L329.72,17.9L329.73,17.94L331.16,24.56L331.17,24.63L332.5,35.06L332.51,35.17L336.41,87.59L336.42,87.79L337.44,105.5L337.45,105.72L342.38,197.67L342.39,197.88L345.33,243.88L345.35,244.04L347.81,271.53L347.83,271.63L350,287.24L350.01,287.3L352.99,298.51L353,298.54L355.41,302.18L355.42,302.19L358.02,303.56L358.04,303.57L362.47,303.98L362.49,303.98L609.42,304" style="vector-effect: non-scaling-stroke; fill: none; stroke: rgb(180, 101, 102); stroke-opacity: 1; stroke-width: 2px; opacity: 1;"/></g><g class="points"/><g class="text"/></g><g class="trace scatter trace5f4bf1" style="stroke-miterlimit: 2; opacity: 1;"><g class="fills"/><g class="errorbars"/><g class="lines"><path class="js-line" d="M0,304L275.94,303.25L275.95,303.24L293.64,302.49L293.66,302.48L310.79,300.67L310.81,300.66L319.51,298.75L319.53,298.74L327.15,295.94L327.17,295.93L333.75,292.04L333.77,292.02L340.16,286.08L340.17,286.06L345.39,278.75L345.41,278.72L350.83,267.6L350.84,267.55L354.22,258.11L354.24,258.05L357.53,246.48L357.55,246.41L366.07,202.04L366.09,201.91L376.32,116.69L376.33,116.51L386.54,28.18L386.56,28.08L389.5,17.01L389.52,16.98L390.92,16.06L390.93,16.07L390.95,16.08L392.02,17.59L392.04,17.64L393.67,23.87L393.69,23.97L396.81,49.28L396.83,49.48L399.45,83.16L399.47,83.43L402.71,135.27L402.72,135.59L411.24,260.73L411.26,260.91L414.99,288.01L415.01,288.1L418.04,298.38L418.06,298.42L420.57,302.05L420.59,302.06L423.49,303.55L423.51,303.55L427.99,303.97L428.01,303.97L439.52,304L439.87,304L609.42,304" style="vector-effect: non-scaling-stroke; fill: none; stroke: rgb(184, 129, 128); stroke-opacity: 1; stroke-width: 2px; opacity: 1;"/></g><g class="points"/><g class="text"/></g><g class="trace scatter traceb83e19" style="stroke-miterlimit: 2; opacity: 1;"><g class="fills"/><g class="errorbars"/><g class="lines"><path class="js-line" d="M0,304L311.56,303.25L311.65,303.24L334.27,302.49L334.36,302.48L358.58,300.4L358.67,300.39L374.32,297.07L374.41,297.04L384.33,292.97L384.42,292.92L390.41,289.09L390.5,289.03L396.85,283.17L396.94,283.07L402.3,276.02L402.39,275.88L407.58,266.43L407.66,266.24L412.4,254.53L412.49,254.28L417.59,237.32L417.68,236.98L422.77,214.25L422.86,213.79L428.14,182.98L428.23,182.39L434.13,138.79L434.22,138.06L448.11,28.86L448.13,28.78L450.62,18.92L450.64,18.88L452.5,16.05L452.51,16.04L453.67,16.56L453.68,16.58L454.91,19.22L454.93,19.27L456.65,26.77L456.66,26.86L458.15,36.97L458.16,37.1L459.79,51.95L459.8,52.12L461.56,72.2L461.57,72.4L463.66,100.81L463.67,101.04L465.96,135.98L465.97,136.23L468.88,181.91L468.89,182.16L476.66,273.86L476.67,273.97L479.51,290.02L479.53,290.09L482.43,298.67L482.45,298.7L484.94,302.03L484.96,302.05L487.88,303.51L487.89,303.51L492.83,303.98L492.85,303.98L579.06,304" style="vector-effect: non-scaling-stroke; fill: none; stroke: rgb(186, 157, 156); stroke-opacity: 1; stroke-width: 2px; opacity: 1;"/></g><g class="points"/><g class="text"/></g><g class="trace scatter trace4ce199" style="stroke-miterlimit: 2; opacity: 1;"><g class="fills"/><g class="errorbars"/><g class="lines"><path class="js-line" d="M0,304L353.13,303.25L353.23,303.24L378.83,302.49L378.93,302.48L407.18,300.4L407.28,300.39L420.28,298.34L420.38,298.32L431.05,295.53L431.15,295.49L438.26,292.68L438.37,292.63L445.58,288.57L445.68,288.5L452.99,282.49L453.1,282.39L459.19,275.24L459.29,275.1L464.98,265.9L465.08,265.71L469.76,255.66L469.86,255.41L475.45,239.5L475.55,239.17L481.34,216.92L481.44,216.47L487.23,187.02L487.33,186.43L494.04,142.55L494.14,141.81L509.59,29.89L509.61,29.81L512.57,18.77L512.59,18.73L514.45,16.07L514.47,16.07L515.68,16.45L515.7,16.46L517.15,19.32L517.16,19.36L518.84,26.07L518.85,26.15L521.77,46.85L521.79,46.99L525.94,94.2L525.95,94.42L528.15,125.4L528.16,125.63L530.69,163.33L530.7,163.57L533.69,206.54L533.7,206.76L540.69,277.73L540.71,277.83L543.56,291.81L543.58,291.86L546.58,299.45L546.59,299.47L549.29,302.44L549.31,302.45L552.59,303.68L552.61,303.68L560.59,304L560.61,304L640,304" style="vector-effect: non-scaling-stroke; fill: none; stroke: rgb(185, 185, 185); stroke-opacity: 1; stroke-width: 2px; opacity: 1;"/></g><g class="points"/><g class="text"/></g></g></g><g class="overplot"/><path class="xlines-above crisp" d="M75,422.5H725M75,97.5H725" style="fill: none; stroke-width: 5px; stroke: rgb(0, 0, 0); stroke-opacity: 1;"/><path class="ylines-above crisp" d="M77.5,100V420M722.5,100V420" style="fill: none; stroke-width: 5px; stroke: rgb(0, 0, 0); stroke-opacity: 1;"/><g class="overlines-above"/><g class="xaxislayer-above"><path class="xtick ticks crisp" d="M0,425v5" transform="translate(80,0)" style="stroke: rgb(68, 68, 68); stroke-opacity: 1; stroke-width: 4px;"/><path class="xtick ticks crisp" d="M0,425v5" transform="translate(181.57,0)" style="stroke: rgb(68, 68, 68); stroke-opacity: 1; stroke-width: 4px;"/><path class="xtick ticks crisp" d="M0,425v5" transform="translate(283.14,0)" style="stroke: rgb(68, 68, 68); stroke-opacity: 1; stroke-width: 4px;"/><path class="xtick ticks crisp" d="M0,425v5" transform="translate(384.71,0)" style="stroke: rgb(68, 68, 68); stroke-opacity: 1; stroke-width: 4px;"/><path class="xtick ticks crisp" d="M0,425v5" transform="translate(486.28,0)" style="stroke: rgb(68, 68, 68); stroke-opacity: 1; stroke-width: 4px;"/><path class="xtick ticks crisp" d="M0,425v5" transform="translate(587.85,0)" style="stroke: rgb(68, 68, 68); stroke-opacity: 1; stroke-width: 4px;"/><path class="xtick ticks crisp" d="M0,425v5" transform="translate(689.42,0)" style="stroke: rgb(68, 68, 68); stroke-opacity: 1; stroke-width: 4px;"/><g class="xtick"><text text-anchor="middle" x="0" y="451.6" transform="translate(80,0)" style="font-family: Arial; font-size: 18px; fill: rgb(0, 0, 0); fill-opacity: 1; white-space: pre; opacity: 1;"><tspan style="font-weight:bold">10</tspan></text></g><g class="xtick"><text text-anchor="middle" x="0" y="451.6" style="font-family: Arial; font-size: 18px; fill: rgb(0, 0, 0); fill-opacity: 1; white-space: pre; opacity: 1;" transform="translate(181.57,0)"><tspan style="font-weight:bold">100</tspan></text></g><g class="xtick"><text text-anchor="middle" x="0" y="451.6" style="font-family: Arial; font-size: 18px; fill: rgb(0, 0, 0); fill-opacity: 1; white-space: pre; opacity: 1;" transform="translate(283.14,0)"><tspan style="font-weight:bold">1000</tspan></text></g><g class="xtick"><text text-anchor="middle" x="0" y="451.6" style="font-family: Arial; font-size: 18px; fill: rgb(0, 0, 0); fill-opacity: 1; white-space: pre; opacity: 1;" transform="translate(384.71,0)"><tspan style="font-weight:bold">10k</tspan></text></g><g class="xtick"><text text-anchor="middle" x="0" y="451.6" style="font-family: Arial; font-size: 18px; fill: rgb(0, 0, 0); fill-opacity: 1; white-space: pre; opacity: 1;" transform="translate(486.28,0)"><tspan style="font-weight:bold">100k</tspan></text></g><g class="xtick"><text text-anchor="middle" x="0" y="451.6" style="font-family: Arial; font-size: 18px; fill: rgb(0, 0, 0); fill-opacity: 1; white-space: pre; opacity: 1;" transform="translate(587.85,0)"><tspan style="font-weight:bold">1M</tspan></text></g><g class="xtick"><text text-anchor="middle" x="0" y="451.6" style="font-family: Arial; font-size: 18px; fill: rgb(0, 0, 0); fill-opacity: 1; white-space: pre; opacity: 1;" transform="translate(689.42,0)"><tspan style="font-weight:bold">10M</tspan></text></g></g><g class="yaxislayer-above"><path class="ytick ticks crisp" d="M75,0h-5" transform="translate(0,404)" style="stroke: rgb(68, 68, 68); stroke-opacity: 1; stroke-width: 4px;"/><path class="ytick ticks crisp" d="M75,0h-5" transform="translate(0,346.4)" style="stroke: rgb(68, 68, 68); stroke-opacity: 1; stroke-width: 4px;"/><path class="ytick ticks crisp" d="M75,0h-5" transform="translate(0,288.8)" style="stroke: rgb(68, 68, 68); stroke-opacity: 1; stroke-width: 4px;"/><path class="ytick ticks crisp" d="M75,0h-5" transform="translate(0,231.2)" style="stroke: rgb(68, 68, 68); stroke-opacity: 1; stroke-width: 4px;"/><path class="ytick ticks crisp" d="M75,0h-5" transform="translate(0,173.6)" style="stroke: rgb(68, 68, 68); stroke-opacity: 1; stroke-width: 4px;"/><path class="ytick ticks crisp" d="M75,0h-5" transform="translate(0,116)" style="stroke: rgb(68, 68, 68); stroke-opacity: 1; stroke-width: 4px;"/><g class="ytick"><text text-anchor="end" x="66.4" y="6.3" transform="translate(0,404)" style="font-family: Arial; font-size: 18px; fill: rgb(0, 0, 0); fill-opacity: 1; white-space: pre; opacity: 1;"><tspan style="font-weight:bold">0</tspan></text></g><g class="ytick"><text text-anchor="end" x="66.4" y="6.3" style="font-family: Arial; font-size: 18px; fill: rgb(0, 0, 0); fill-opacity: 1; white-space: pre; opacity: 1;" transform="translate(0,346.4)"><tspan style="font-weight:bold">0.2</tspan></text></g><g class="ytick"><text text-anchor="end" x="66.4" y="6.3" style="font-family: Arial; font-size: 18px; fill: rgb(0, 0, 0); fill-opacity: 1; white-space: pre; opacity: 1;" transform="translate(0,288.8)"><tspan style="font-weight:bold">0.4</tspan></text></g><g class="ytick"><text text-anchor="end" x="66.4" y="6.3" style="font-family: Arial; font-size: 18px; fill: rgb(0, 0, 0); fill-opacity: 1; white-space: pre; opacity: 1;" transform="translate(0,231.2)"><tspan style="font-weight:bold">0.6</tspan></text></g><g class="ytick"><text text-anchor="end" x="66.4" y="6.3" style="font-family: Arial; font-size: 18px; fill: rgb(0, 0, 0); fill-opacity: 1; white-space: pre; opacity: 1;" transform="translate(0,173.6)"><tspan style="font-weight:bold">0.8</tspan></text></g><g class="ytick"><text text-anchor="end" x="66.4" y="6.3" style="font-family: Arial; font-size: 18px; fill: rgb(0, 0, 0); fill-opacity: 1; white-space: pre; opacity: 1;" transform="translate(0,116)"><tspan style="font-weight:bold">1</tspan></text></g></g><g class="overaxes-above"/></g></g><g class="polarlayer"/><g class="smithlayer"/><g class="ternarylayer"/><g class="geolayer"/><g class="funnelarealayer"/><g class="pielayer"/><g class="iciclelayer"/><g class="treemaplayer"/><g class="sunburstlayer"/><g class="glimages"/><defs id="topdefs-daae26"><g class="clips"/><clipPath id="legenddaae26"><rect width="141" height="124" x="0" y="0"/></clipPath></defs><g class="layer-above"><g class="imagelayer"/><g class="shapelayer"/></g><g class="infolayer"><g class="legend" pointer-events="all" transform="translate(92.8,116.00000000000001)"><rect class="bg" shape-rendering="crispEdges" style="stroke: rgb(68, 68, 68); stroke-opacity: 1; fill: rgb(255, 255, 255); fill-opacity: 1; stroke-width: 0px;" width="141" height="124" x="0" y="0"/><g class="scrollbox" transform="" clip-path="url(#legenddaae26)"><g class="groups"><g class="traces" transform="translate(0,14.5)" style="opacity: 1;"><text class="legendtext" text-anchor="start" x="40" y="3.9" style="font-family: Arial; font-size: 10px; fill: rgb(0, 0, 0); fill-opacity: 1; white-space: pre;">gauss(1000,1.01)</text><g class="layers" style="opacity: 1;"><g class="legendfill"/><g class="legendlines"><path class="js-line" d="M5,0h30" style="fill: none; stroke: rgb(163, 31, 52); stroke-opacity: 1; stroke-width: 2px;"/></g><g class="legendsymbols"><g class="legendpoints"/></g></g><rect class="legendtoggle" x="0" y="-9.5" width="135.1875" height="19" style="fill: rgb(0, 0, 0); fill-opacity: 0;"/></g><g class="traces" transform="translate(0,33.5)" style="opacity: 1;"><text class="legendtext" text-anchor="start" x="40" y="3.9" style="font-family: Arial; font-size: 10px; fill: rgb(0, 0, 0); fill-opacity: 1; white-space: pre;">gauss(3981,1.05)</text><g class="layers" style="opacity: 1;"><g class="legendfill"/><g class="legendlines"><path class="js-line" d="M5,0h30" style="fill: none; stroke: rgb(172, 70, 76); stroke-opacity: 1; stroke-width: 2px;"/></g><g class="legendsymbols"><g class="legendpoints"/></g></g><rect class="legendtoggle" x="0" y="-9.5" width="135.1875" height="19" style="fill: rgb(0, 0, 0); fill-opacity: 0;"/></g><g class="traces" transform="translate(0,52.5)" style="opacity: 1;"><text class="legendtext" text-anchor="start" x="40" y="3.9" style="font-family: Arial; font-size: 10px; fill: rgb(0, 0, 0); fill-opacity: 1; white-space: pre;">gauss(15849,1.09)</text><g class="layers" style="opacity: 1;"><g class="legendfill"/><g class="legendlines"><path class="js-line" d="M5,0h30" style="fill: none; stroke: rgb(180, 101, 102); stroke-opacity: 1; stroke-width: 2px;"/></g><g class="legendsymbols"><g class="legendpoints"/></g></g><rect class="legendtoggle" x="0" y="-9.5" width="135.1875" height="19" style="fill: rgb(0, 0, 0); fill-opacity: 0;"/></g><g class="traces" transform="translate(0,71.5)" style="opacity: 1;"><text class="legendtext" text-anchor="start" x="40" y="3.9" style="font-family: Arial; font-size: 10px; fill: rgb(0, 0, 0); fill-opacity: 1; white-space: pre;">gauss(63096,1.12)</text><g class="layers" style="opacity: 1;"><g class="legendfill"/><g class="legendlines"><path class="js-line" d="M5,0h30" style="fill: none; stroke: rgb(184, 129, 128); stroke-opacity: 1; stroke-width: 2px;"/></g><g class="legendsymbols"><g class="legendpoints"/></g></g><rect class="legendtoggle" x="0" y="-9.5" width="135.1875" height="19" style="fill: rgb(0, 0, 0); fill-opacity: 0;"/></g><g class="traces" transform="translate(0,90.5)" style="opacity: 1;"><text class="legendtext" text-anchor="start" x="40" y="3.9" style="font-family: Arial; font-size: 10px; fill: rgb(0, 0, 0); fill-opacity: 1; white-space: pre;">gauss(251189,1.16)</text><g class="layers" style="opacity: 1;"><g class="legendfill"/><g class="legendlines"><path class="js-line" d="M5,0h30" style="fill: none; stroke: rgb(186, 157, 156); stroke-opacity: 1; stroke-width: 2px;"/></g><g class="legendsymbols"><g class="legendpoints"/></g></g><rect class="legendtoggle" x="0" y="-9.5" width="135.1875" height="19" style="fill: rgb(0, 0, 0); fill-opacity: 0;"/></g><g class="traces" transform="translate(0,109.5)" style="opacity: 1;"><text class="legendtext" text-anchor="start" x="40" y="3.9" style="font-family: Arial; font-size: 10px; fill: rgb(0, 0, 0); fill-opacity: 1; white-space: pre;">gauss(1000000,1.20)</text><g class="layers" style="opacity: 1;"><g class="legendfill"/><g class="legendlines"><path class="js-line" d="M5,0h30" style="fill: none; stroke: rgb(185, 185, 185); stroke-opacity: 1; stroke-width: 2px;"/></g><g class="legendsymbols"><g class="legendpoints"/></g></g><rect class="legendtoggle" x="0" y="-9.5" width="135.1875" height="19" style="fill: rgb(0, 0, 0); fill-opacity: 0;"/></g></g></g><rect class="scrollbar" rx="20" ry="3" width="0" height="0" style="fill: rgb(128, 139, 164); fill-opacity: 1;" x="0" y="0"/></g><g class="g-gtitle"/><g class="g-xtitle"><text class="xtitle" x="400" y="483.509375" text-anchor="middle" style="font-family: Arial; font-size: 22px; fill: rgb(0, 0, 0); opacity: 1; font-weight: normal; white-space: pre;"><tspan style="font-weight:bold">molecular weight, <tspan style="font-style:italic">mw​<tspan style="font-size:70%" dy="0.3em">i</tspan><tspan dy="-0.21em">​</tspan></tspan> (g/mol)</tspan></text></g><g class="g-ytitle" transform="translate(6.525390625,0)"><text class="ytitle" transform="rotate(-90,13.474999999999994,260)" x="13.474999999999994" y="260" text-anchor="middle" style="font-family: Arial; font-size: 22px; fill: rgb(0, 0, 0); opacity: 1; font-weight: normal; white-space: pre;"><tspan style="font-weight:bold">normalized weight fraction, <tspan style="font-style:italic">w​<tspan style="font-size:70%" dy="0.3em">i</tspan><tspan dy="-0.21em">​</tspan></tspan></tspan></text></g></g></svg>