<svg class="main-svg" xmlns="http://www.w3.org/2000/svg" xmlns:xlink="http://www.w3.org/1999/xlink" width="800" height="500" style="" viewBox="0 0 800 500"><rect x="0" y="0" width="800" height="500" style="fill: rgb(255, 255, 255); fill-opacity: 1;"/><defs id="defs-65c4b8"><g class="clips"><clipPath id="clip65c4b8xyplot" class="plotclip"><rect width="640" height="320"/></clipPath><clipPath class="axesclip" id="clip65c4b8x"><rect x="80" y="0" width="640" height="500"/></clipPath><clipPath class="axesclip" id="clip65c4b8y"><rect x="0" y="100" width="800" height="320"/></clipPath><clipPath class="axesclip" id="clip65c4b8xy"><rect x="80" y="100" width="640" height="320"/></clipPath></g><g class="gradients"/><g class="patterns"/></defs><g class="bglayer"/><g class="layer-below"><g class="imagelayer"/><g class="shapelayer"/></g><g class="cartesianlayer"><g class="subplot xy"><g class="layer-subplot"><g class="shapelayer"/><g class="imagelayer"/></g><g class="minor-gridlayer"><g class="x"/><g class="y"/></g><g class="gridlayer"><g class="x"/><g class="y"/></g><g class="zerolinelayer"><path class="yzl zl crisp" transform="translate(0,406.09)" d="M80,0h640" style="stroke: rgb(255, 255, 255); stroke-opacity: 1; stroke-width: 2px;"/></g><path class="xlines-below"/><path class="ylines-below"/><g class="overlines-below"/><g class="xaxislayer-below"/><g class="yaxislayer-below"/><g class="overaxes-below"/><g class="plot" transform="translate(80,100)" clip-path="url(#clip65c4b8xyplot)"><g class="scatterlayer mlayer"><g class="trace scatter trace048cc1" style="stroke-miterlimit: 2; opacity: 1;"><g class="fills"/><g class="errorbars"/><g class="lines"><path class="js-line" d="M0,306.09L193.5,305.44L193.9,305.3L196.29,303.65L196.69,303.16L198.68,299.04L199.08,297.74L201.24,286.22L201.24,286.19L202.45,275.04L202.45,275L203.75,257.54L203.75,257.48L204.55,243.54L204.55,243.47L206.03,210.01L206.03,209.92L207.5,167.88L207.5,167.76L209.33,108.58L209.33,108.46L213.03,28.41L213.04,28.4L213.37,27.83L213.71,28.77L213.72,28.78L214.53,37.15L214.53,37.21L216.15,77.3L216.15,77.43L217.53,128.42L217.53,128.57L218.28,158.82L218.29,158.97L222.93,286.47L222.94,286.51L224.36,298.59L224.37,298.61L226.22,304.47L226.23,304.47L227.92,305.79L227.92,305.79L227.93,305.79L231.16,306.08L231.16,306.08L231.17,306.08L640,306.09" style="vector-effect: non-scaling-stroke; fill: none; stroke: rgb(163, 31, 52); stroke-opacity: 1; stroke-width: 2px; opacity: 1;"/></g><g class="points"/><g class="text"/></g><g class="trace scatter trace61c8c5" style="stroke-miterlimit: 2; opacity: 1;"><g class="fills"/><g class="errorbars"/><g class="lines"><path class="js-line" d="M0,306.08L212.41,305.34L212.89,305.31L224.29,303.89L224.77,303.79L231.42,301.56L231.9,301.33L237.12,297.74L237.4,297.48L241.18,293.01L241.19,292.99L244.79,286.49L244.8,286.47L249.48,272.94L249.48,272.91L251.95,262.52L251.95,262.48L254.21,250.35L254.22,250.3L256.53,234.94L256.53,234.88L259.06,214.06L259.07,213.98L261.42,190.76L261.42,190.67L264.1,159.77L264.11,159.66L266.79,125.43L266.79,125.32L275.09,34.24L275.1,34.2L276.8,28.2L276.81,28.19L277.62,27.93L277.81,28.14L277.82,28.15L278.83,30.92L278.83,30.95L280.1,38.55L280.1,38.62L281.62,53.73L281.62,53.83L283.62,82.72L283.62,82.86L285.94,125.74L285.94,125.91L288.78,183.24L288.78,183.41L294.58,272.68L294.59,272.76L297.98,295.69L297.99,295.72L300.3,302.28L300.31,302.3L302.9,305.11L302.91,305.11L305.65,305.92L305.66,305.92L318.79,306.09L319.44,306.09L640,306.09" style="vector-effect: non-scaling-stroke; fill: none; stroke: rgb(172, 70, 76); stroke-opacity: 1; stroke-width: 2px; opacity: 1;"/></g><g class="points"/><g class="text"/></g><g class="trace scatter tracebe2f13" style="stroke-miterlimit: 2; opacity: 1;"><g class="fills"/><g class="errorbars"/><g class="lines"><path class="js-line" d="M0,305.25L208.69,304.5L209.24,304.49L240.84,303.18L241.39,303.14L258.28,301.19L258.82,301.09L269.18,298.65L269.72,298.48L277.87,295.13L277.88,295.12L284.02,291.22L284.03,291.21L289.77,285.86L289.78,285.84L294.58,279.5L294.59,279.48L298.56,272.44L298.57,272.41L302.32,263.79L302.33,263.76L308.23,244.97L308.24,244.92L312.63,225.58L312.64,225.52L316.69,202.66L316.7,202.58L329.8,96.27L329.81,96.15L338.31,34.22L338.32,34.17L340.69,28.14L340.7,28.12L341.92,28.08L341.93,28.1L341.94,28.11L343.13,30.35L343.14,30.38L344.9,37.98L344.91,38.05L348.53,69.96L348.54,70.11L362.07,262.49L362.08,262.61L366.4,292.21L366.42,292.26L368.47,299.13L368.48,299.16L371.55,304.06L371.57,304.07L374.28,305.55L374.3,305.55L379.09,306.06L379.11,306.06L640,306.09" style="vector-effect: non-scaling-stroke; fill: none; stroke: rgb(180, 101, 102); stroke-opacity: 1; stroke-width: 2px; opacity: 1;"/></g><g class="points"/><g class="text"/></g><g class="trace scatter trace129b40" style="stroke-miterlimit: 2; opacity: 1;"><g class="fills"/><g class="errorbars"/><g class="lines"><path class="js-line" d="M0,301.15L218.61,300.4L219.18,300.39L265.82,298.82L266.38,298.79L294.77,296.08L294.79,296.07L307.62,293.72L307.64,293.71L317.42,290.99L317.44,290.98L327.27,286.92L327.29,286.91L332.98,283.66L333,283.64L339.44,278.8L339.46,278.78L345.25,272.99L345.26,272.97L350.38,266.33L350.39,266.3L355.31,258.13L355.33,258.09L359.73,248.88L359.75,248.84L365.25,234.11L365.26,234.06L370.38,216.37L370.39,216.29L375.25,195.17L375.27,195.07L379.77,171.37L379.79,171.26L385.32,136.67L385.34,136.54L400.4,39.03L400.42,38.95L403.57,29.39L403.59,29.36L405.3,27.83L405.32,27.83L406.57,28.65L406.59,28.68L408.12,32.1L408.14,32.16L410.62,43.78L410.64,43.9L413.23,63.99L413.25,64.17L416.04,94.27L416.06,94.5L420.54,154.67L420.56,154.94L428.29,253.12L428.31,253.31L432.15,282.74L432.17,282.85L435.39,296.45L435.41,296.5L437.66,301.52L437.68,301.55L440.63,304.65L440.65,304.66L444.18,305.82L444.2,305.82L452.32,306.09L452.34,306.09L640,306.09" style="vector-effect: non-scaling-stroke; fill: none; stroke: rgb(184, 129, 128); stroke-opacity: 1; stroke-width: 2px; opacity: 1;"/></g><g class="points"/><g class="text"/></g><g class="trace scatter trace203779" style="stroke-miterlimit: 2; opacity: 1;"><g class="fills"/><g class="errorbars"/><g class="lines"><path class="js-line" d="M0,293.38L253.02,292.63L253.12,292.62L284.29,291.87L284.38,291.86L302.03,291.11L302.12,291.1L331.51,288.81L331.6,288.8L350.19,286.09L350.29,286.07L369.63,281.11L369.72,281.08L378.92,277.39L379.02,277.35L390.09,271.02L390.19,270.96L397.79,264.86L397.89,264.77L405.49,256.59L405.59,256.47L412.72,246.18L412.81,246.02L418.17,236.07L418.26,235.88L426.05,216.89L426.15,216.62L432.62,195.68L432.72,195.33L440.04,164.81L440.13,164.37L445.3,138.27L445.39,137.77L451.87,100.86L451.96,100.3L463.32,40.25L463.42,39.9L466.52,30.8L466.61,30.61L468.77,27.95L468.86,27.91L470.38,28.27L470.4,28.29L472.09,31.03L472.1,31.07L473.98,37.2L473.99,37.27L476.58,51.37L476.59,51.48L478.75,68.19L478.76,68.34L480.98,89.9L481,90.08L483.26,115.67L483.27,115.87L485.66,145.69L485.67,145.9L489.01,188.8L489.02,189.01L497.27,272.53L497.29,272.65L500.24,288.79L500.26,288.86L503.37,298.74L503.39,298.77L506.32,303.32L506.34,303.33L509.29,305.23L509.31,305.24L513.38,305.97L513.4,305.97L526.39,306.09L526.41,306.09L608.11,306.09" style="vector-effect: non-scaling-stroke; fill: none; stroke: rgb(186, 157, 156); stroke-opacity: 1; stroke-width: 2px; opacity: 1;"/></g><g class="points"/><g class="text"/></g><g class="trace scatter tracedee29b" style="stroke-miterlimit: 2; opacity: 1;"><g class="fills"/><g class="errorbars"/><g class="lines"><path class="js-line" d="M0,283.24L300.54,282.49L300.65,282.48L332.01,281.73L332.12,281.72L350.26,280.97L350.36,280.96L378.1,278.95L378.21,278.94L399.33,276.18L399.44,276.16L412.35,273.56L412.46,273.53L426.43,269.44L426.54,269.4L436.46,265.31L436.57,265.26L446.49,259.71L446.6,259.64L455.88,252.59L455.98,252.49L463.24,245.24L463.35,245.11L472.2,233.4L472.31,233.23L480.1,219.43L480.2,219.22L486.39,205.18L486.5,204.92L495.03,179.95L495.14,179.59L501.22,157.16L501.33,156.73L512.32,106.55L512.42,106.02L526.29,41.32L526.4,40.95L530.35,30.53L530.45,30.34L532.91,27.88L533.01,27.86L534.63,28.38L534.64,28.4L536.22,30.68L536.23,30.72L538.07,35.78L538.09,35.84L540.81,48.36L540.82,48.45L542.85,61.72L542.86,61.85L544.93,78.82L544.95,78.97L547.42,103.16L547.44,103.34L549.59,127.21L549.61,127.4L551.58,150.68L551.6,150.88L553.47,173.46L553.49,173.66L555.34,195.7L555.36,195.89L557.08,215.41L557.1,215.59L558.87,234.11L558.89,234.28L560.68,250.9L560.69,251.05L566.46,287.88L566.48,287.95L569.63,297.97L569.64,298L572.81,303.06L572.82,303.07L575.97,305.16L575.99,305.17L580.8,305.99L580.81,305.99L593.56,306.09L593.57,306.09L672.11,306.09" style="vector-effect: non-scaling-stroke; fill: none; stroke: rgb(185, 185, 185); stroke-opacity: 1; stroke-width: 2px; opacity: 1;"/></g><g class="points"/><g class="text"/></g></g></g><g class="overplot"/><path class="xlines-above crisp" d="M75,422.5H725M75,97.5H725" style="fill: none; stroke-width: 5px; stroke: rgb(0, 0, 0); stroke-opacity: 1;"/><path class="ylines-above crisp" d="M77.5,100V420M722.5,100V420" style="fill: none; stroke-width: 5px; stroke: rgb(0, 0, 0); stroke-opacity: 1;"/><g class="overlines-above"/><g class="xaxislayer-above"><path class="xtick ticks crisp" d="M0,425v5" transform="translate(80,0)" style="stroke: rgb(68, 68, 68); stroke-opacity: 1; stroke-width: 4px;"/><path class="xtick ticks crisp" d="M0,425v5" transform="translate(112.11,0)" style="stroke: rgb(68, 68, 68); stroke-opacity: 1; stroke-width: 4px;"/><path class="xtick ticks crisp" d="M0,425v5" transform="translate(154.56,0)" style="stroke: rgb(68, 68, 68); stroke-opacity: 1; stroke-width: 4px;"/><path class="xtick ticks crisp" d="M0,425v5" transform="translate(186.67000000000002,0)" style="stroke: rgb(68, 68, 68); stroke-opacity: 1; stroke-width: 4px;"/><path class="xtick ticks crisp" d="M0,425v5" transform="translate(218.78,0)" style="stroke: rgb(68, 68, 68); stroke-opacity: 1; stroke-width: 4px;"/><path class="xtick ticks crisp" d="M0,425v5" transform="translate(261.22,0)" style="stroke: rgb(68, 68, 68); stroke-opacity: 1; stroke-width: 4px;"/><path class="xtick ticks crisp" d="M0,425v5" transform="translate(293.33000000000004,0)" style="stroke: rgb(68, 68, 68); stroke-opacity: 1; stroke-width: 4px;"/><path class="xtick ticks crisp" d="M0,425v5" transform="translate(325.44,0)" style="stroke: rgb(68, 68, 68); stroke-opacity: 1; stroke-width: 4px;"/><path class="xtick ticks crisp" d="M0,425v5" transform="translate(367.89,0)" style="stroke: rgb(68, 68, 68); stroke-opacity: 1; stroke-width: 4px;"/><path class="xtick ticks crisp" d="M0,425v5" transform="translate(400,0)" style="stroke: rgb(68, 68, 68); stroke-opacity: 1; stroke-width: 4px;"/><path class="xtick ticks crisp" d="M0,425v5" transform="translate(432.11,0)" style="stroke: rgb(68, 68, 68); stroke-opacity: 1; stroke-width: 4px;"/><path class="xtick ticks crisp" d="M0,425v5" transform="translate(474.56,0)" style="stroke: rgb(68, 68, 68); stroke-opacity: 1; stroke-width: 4px;"/><path class="xtick ticks crisp" d="M0,425v5" transform="translate(506.67,0)" style="stroke: rgb(68, 68, 68); stroke-opacity: 1; stroke-width: 4px;"/><path class="xtick ticks crisp" d="M0,425v5" transform="translate(538.78,0)" style="stroke: rgb(68, 68, 68); stroke-opacity: 1; stroke-width: 4px;"/><path class="xtick ticks crisp" d="M0,425v5" transform="translate(581.22,0)" style="stroke: rgb(68, 68, 68); stroke-opacity: 1; stroke-width: 4px;"/><path class="xtick ticks crisp" d="M0,425v5" transform="translate(613.33,0)" style="stroke: rgb(68, 68, 68); stroke-opacity: 1; stroke-width: 4px;"/><path class="xtick ticks crisp" d="M0,425v5" transform="translate(645.44,0)" style="stroke: rgb(68, 68, 68); stroke-opacity: 1; stroke-width: 4px;"/><path class="xtick ticks crisp" d="M0,425v5" transform="translate(687.89,0)" style="stroke: rgb(68, 68, 68); stroke-opacity: 1; stroke-width: 4px;"/><path class="xtick ticks crisp" d="M0,425v5" transform="translate(720,0)" style="stroke: rgb(68, 68, 68); stroke-opacity: 1; stroke-width: 4px;"/><g class="xtick"><text text-anchor="middle" x="0" y="451.6" transform="translate(80,0)" style="font-family: Arial; font-size: 18px; fill: rgb(0, 0, 0); fill-opacity: 1; white-space: pre; opacity: 1;"><tspan style="font-weight:bold">10</tspan></text></g><g class="xtick"><text text-anchor="middle" x="0" y="447.1" style="font-family: Arial; font-size: 13.5px; fill: rgb(0, 0, 0); fill-opacity: 1; white-space: pre; opacity: 1;" transform="translate(112.11,0)">2</text></g><g class="xtick"><text text-anchor="middle" x="0" y="447.1" style="font-family: Arial; font-size: 13.5px; fill: rgb(0, 0, 0); fill-opacity: 1; white-space: pre; opacity: 1;" transform="translate(154.56,0)">5</text></g><g class="xtick"><text text-anchor="middle" x="0" y="451.6" style="font-family: Arial; font-size: 18px; fill: rgb(0, 0, 0); fill-opacity: 1; white-space: pre; opacity: 1;" transform="translate(186.67000000000002,0)"><tspan style="font-weight:bold">100</tspan></text></g><g class="xtick"><text text-anchor="middle" x="0" y="447.1" style="font-family: Arial; font-size: 13.5px; fill: rgb(0, 0, 0); fill-opacity: 1; white-space: pre; opacity: 1;" transform="translate(218.78,0)">2</text></g><g class="xtick"><text text-anchor="middle" x="0" y="447.1" style="font-family: Arial; font-size: 13.5px; fill: rgb(0, 0, 0); fill-opacity: 1; white-space: pre; opacity: 1;" transform="translate(261.22,0)">5</text></g><g class="xtick"><text text-anchor="middle" x="0" y="451.6" style="font-family: Arial; font-size: 18px; fill: rgb(0, 0, 0); fill-opacity: 1; white-space: pre; opacity: 1;" transform="translate(293.33000000000004,0)"><tspan style="font-weight:bold">1000</tspan></text></g><g class="xtick"><text text-anchor="middle" x="0" y="447.1" style="font-family: Arial; font-size: 13.5px; fill: rgb(0, 0, 0); fill-opacity: 1; white-space: pre; opacity: 1;" transform="translate(325.44,0)">2</text></g><g class="xtick"><text text-anchor="middle" x="0" y="447.1" style="font-family: Arial; font-size: 13.5px; fill: rgb(0, 0, 0); fill-opacity: 1; white-space: pre; opacity: 1;" transform="translate(367.89,0)">5</text></g><g class="xtick"><text text-anchor="middle" x="0" y="451.6" style="font-family: Arial; font-size: 18px; fill: rgb(0, 0, 0); fill-opacity: 1; white-space: pre; opacity: 1;" transform="translate(400,0)"><tspan style="font-weight:bold">10k</tspan></text></g><g class="xtick"><text text-anchor="middle" x="0" y="447.1" style="font-family: Arial; font-size: 13.5px; fill: rgb(0, 0, 0); fill-opacity: 1; white-space: pre; opacity: 1;" transform="translate(432.11,0)">2</text></g><g class="xtick"><text text-anchor="middle" x="0" y="447.1" style="font-family: Arial; font-size: 13.5px; fill: rgb(0, 0, 0); fill-opacity: 1; white-space: pre; opacity: 1;" transform="translate(474.56,0)">5</text></g><g class="xtick"><text text-anchor="middle" x="0" y="451.6" style="font-family: Arial; font-size: 18px; fill: rgb(0, 0, 0); fill-opacity: 1; white-space: pre; opacity: 1;" transform="translate(506.67,0)"><tspan style="font-weight:bold">100k</tspan></text></g><g class="xtick"><text text-anchor="middle" x="0" y="447.1" style="font-family: Arial; font-size: 13.5px; fill: rgb(0, 0, 0); fill-opacity: 1; white-space: pre; opacity: 1;" transform="translate(538.78,0)">2</text></g><g class="xtick"><text text-anchor="middle" x="0" y="447.1" style="font-family: Arial; font-size: 13.5px; fill: rgb(0, 0, 0); fill-opacity: 1; white-space: pre; opacity: 1;" transform="translate(581.22,0)">5</text></g><g class="xtick"><text text-anchor="middle" x="0" y="451.6" style="font-family: Arial; font-size: 18px; fill: rgb(0, 0, 0); fill-opacity: 1; white-space: pre; opacity: 1;" transform="translate(613.33,0)"><tspan style="font-weight:bold">1M</tspan></text></g><g class="xtick"><text text-anchor="middle" x="0" y="447.1" style="font-family: Arial; font-size: 13.5px; fill: rgb(0, 0, 0); fill-opacity: 1; white-space: pre; opacity: 1;" transform="translate(645.44,0)">2</text></g><g class="xtick"><text text-anchor="middle" x="0" y="447.1" style="font-family: Arial; font-size: 13.5px; fill: rgb(0, 0, 0); fill-opacity: 1; white-space: pre; opacity: 1;" transform="translate(687.89,0)">5</text></g><g class="xtick"><text text-anchor="middle" x="0" y="451.6" style="font-family: Arial; font-size: 18px; fill: rgb(0, 0, 0); fill-opacity: 1; white-space: pre; opacity: 1;" transform="translate(720,0)"><tspan style="font-weight:bold">10M</tspan></text></g></g><g class="yaxislayer-above"><path class="ytick ticks crisp" d="M75,0h-5" transform="translate(0,406.09)" style="stroke: rgb(68, 68, 68); stroke-opacity: 1; stroke-width: 4px;"/><path class="ytick ticks crisp" d="M75,0h-5" transform="translate(0,350.43)" style="stroke: rgb(68, 68, 68); stroke-opacity: 1; stroke-width: 4px;"/><path class="ytick ticks crisp" d="M75,0h-5" transform="translate(0,294.78)" style="stroke: rgb(68, 68, 68); stroke-opacity: 1; stroke-width: 4px;"/><path class="ytick ticks crisp" d="M75,0h-5" transform="translate(0,239.13)" style="stroke: rgb(68, 68, 68); stroke-opacity: 1; stroke-width: 4px;"/><path class="ytick ticks crisp" d="M75,0h-5" transform="translate(0,183.48000000000002)" style="stroke: rgb(68, 68, 68); stroke-opacity: 1; stroke-width: 4px;"/><path class="ytick ticks crisp" d="M75,0h-5" transform="translate(0,127.83)" style="stroke: rgb(68, 68, 68); stroke-opacity: 1; stroke-width: 4px;"/><g class="ytick"><text text-anchor="end" x="66.4" y="6.3" transform="translate(0,406.09)" style="font-family: Arial; font-size: 18px; fill: rgb(0, 0, 0); fill-opacity: 1; white-space: pre; opacity: 1;"><tspan style="font-weight:bold">0</tspan></text></g><g class="ytick"><text text-anchor="end" x="66.4" y="6.3" style="font-family: Arial; font-size: 18px; fill: rgb(0, 0, 0); fill-opacity: 1; white-space: pre; opacity: 1;" transform="translate(0,350.43)"><tspan style="font-weight:bold">0.2</tspan></text></g><g class="ytick"><text text-anchor="end" x="66.4" y="6.3" style="font-family: Arial; font-size: 18px; fill: rgb(0, 0, 0); fill-opacity: 1; white-space: pre; opacity: 1;" transform="translate(0,294.78)"><tspan style="font-weight:bold">0.4</tspan></text></g><g class="ytick"><text text-anchor="end" x="66.4" y="6.3" style="font-family: Arial; font-size: 18px; fill: rgb(0, 0, 0); fill-opacity: 1; white-space: pre; opacity: 1;" transform="translate(0,239.13)"><tspan style="font-weight:bold">0.6</tspan></text></g><g class="ytick"><text text-anchor="end" x="66.4" y="6.3" style="font-family: Arial; font-size: 18px; fill: rgb(0, 0, 0); fill-opacity: 1; white-space: pre; opacity: 1;" transform="translate(0,183.48000000000002)"><tspan style="font-weight:bold">0.8</tspan></text></g><g class="ytick"><text text-anchor="end" x="66.4" y="6.3" style="font-family: Arial; font-size: 18px; fill: rgb(0, 0, 0); fill-opacity: 1; white-space: pre; opacity: 1;" transform="translate(0,127.83)"><tspan style="font-weight:bold">1</tspan></text></g></g><g class="overaxes-above"/></g></g><g class="polarlayer"/><g class="smithlayer"/><g class="ternarylayer"/><g class="geolayer"/><g class="funnelarealayer"/><g class="pielayer"/><g class="iciclelayer"/><g class="treemaplayer"/><g class="sunburstlayer"/><g class="glimages"/><defs id="topdefs-65c4b8"><g class="clips"/><clipPath id="legend65c4b8"><rect width="145" height="124" x="0" y="0"/></clipPath></defs><g class="layer-above"><g class="imagelayer"/><g class="shapelayer"/></g><g class="infolayer"><g class="legend" pointer-events="all" transform="translate(92.8,116.00000000000001)"><rect class="bg" shape-rendering="crispEdges" style="stroke: rgb(68, 68, 68); stroke-opacity: 1; fill: rgb(255, 255, 255); fill-opacity: 1; stroke-width: 0px;" width="145" height="124" x="0" y="0"/><g class="scrollbox" transform="" clip-path="url(#legend65c4b8)"><g class="groups"><g class="traces" transform="translate(0,14.5)" style="opacity: 1;"><text class="legendtext" text-anchor="start" x="40" y="3.9" style="font-family: Arial; font-size: 10px; fill: rgb(0, 0, 0); fill-opacity: 1; white-space: pre;">|gauss(1000,1.01)|</text><g class="layers" style="opacity: 1;"><g class="legendfill"/><g class="legendlines"><path class="js-line" d="M5,0h30" style="fill: none; stroke: rgb(163, 31, 52); stroke-opacity: 1; stroke-width: 2px;"/></g><g class="legendsymbols"><g class="legendpoints"/></g></g><rect class="legendtoggle" x="0" y="-9.5" width="139.71875" height="19" style="fill: rgb(0, 0, 0); fill-opacity: 0;"/></g><g class="traces" transform="translate(0,33.5)" style="opacity: 1;"><text class="legendtext" text-anchor="start" x="40" y="3.9" style="font-family: Arial; font-size: 10px; fill: rgb(0, 0, 0); fill-opacity: 1; white-space: pre;">|gauss(3981,1.05)|</text><g class="layers" style="opacity: 1;"><g class="legendfill"/><g class="legendlines"><path class="js-line" d="M5,0h30" style="fill: none; stroke: rgb(172, 70, 76); stroke-opacity: 1; stroke-width: 2px;"/></g><g class="legendsymbols"><g class="legendpoints"/></g></g><rect class="legendtoggle" x="0" y="-9.5" width="139.71875" height="19" style="fill: rgb(0, 0, 0); fill-opacity: 0;"/></g><g class="traces" transform="translate(0,52.5)" style="opacity: 1;"><text class="legendtext" text-anchor="start" x="40" y="3.9" style="font-family: Arial; font-size: 10px; fill: rgb(0, 0, 0); fill-opacity: 1; white-space: pre;">|gauss(15849,1.09)|</text><g class="layers" style="opacity: 1;"><g class="legendfill"/><g class="legendlines"><path class="js-line" d="M5,0h30" style="fill: none; stroke: rgb(180, 101, 102); stroke-opacity: 1; stroke-width: 2px;"/></g><g class="legendsymbols"><g class="legendpoints"/></g></g><rect class="legendtoggle" x="0" y="-9.5" width="139.71875" height="19" style="fill: rgb(0, 0, 0); fill-opacity: 0;"/></g><g class="traces" transform="translate(0,71.5)" style="opacity: 1;"><text class="legendtext" text-anchor="start" x="40" y="3.9" style="font-family: Arial; font-size: 10px; fill: rgb(0, 0, 0); fill-opacity: 1; white-space: pre;">|gauss(63096,1.12)|</text><g class="layers" style="opacity: 1;"><g class="legendfill"/><g class="legendlines"><path class="js-line" d="M5,0h30" style="fill: none; stroke: rgb(184, 129, 128); stroke-opacity: 1; stroke-width: 2px;"/></g><g class="legendsymbols"><g class="legendpoints"/></g></g><rect class="legendtoggle" x="0" y="-9.5" width="139.71875" height="19" style="fill: rgb(0, 0, 0); fill-opacity: 0;"/></g><g class="traces" transform="translate(0,90.5)" style="opacity: 1;"><text class="legendtext" text-anchor="start" x="40" y="3.9" style="font-family: Arial; font-size: 10px; fill: rgb(0, 0, 0); fill-opacity: 1; white-space: pre;">|gauss(251189,1.16)|</text><g class="layers" style="opacity: 1;"><g class="legendfill"/><g class="legendlines"><path class="js-line" d="M5,0h30" style="fill: none; stroke: rgb(186, 157, 156); stroke-opacity: 1; stroke-width: 2px;"/></g><g class="legendsymbols"><g class="legendpoints"/></g></g><rect class="legendtoggle" x="0" y="-9.5" width="139.71875" height="19" style="fill: rgb(0, 0, 0); fill-opacity: 0;"/></g><g class="traces" transform="translate(0,109.5)" style="opacity: 1;"><text class="legendtext" text-anchor="start" x="40" y="3.9" style="font-family: Arial; font-size: 10px; fill: rgb(0, 0, 0); fill-opacity: 1; white-space: pre;">|gauss(1000000,1.20)|</text><g class="layers" style="opacity: 1;"><g class="legendfill"/><g class="legendlines"><path class="js-line" d="M5,0h30" style="fill: none; stroke: rgb(185, 185, 185); stroke-opacity: 1; stroke-width: 2px;"/></g><g class="legendsymbols"><g class="legendpoints"/></g></g><rect class="legendtoggle" x="0" y="-9.5" width="139.71875" height="19" style="fill: rgb(0, 0, 0); fill-opacity: 0;"/></g></g></g><rect class="scrollbar" rx="20" ry="3" width="0" height="0" style="fill: rgb(128, 139, 164); fill-opacity: 1;" x="0" y="0"/></g><g class="g-gtitle"/><g class="g-xtitle"><text class="xtitle" x="400" y="483.509375" text-anchor="middle" style="font-family: Arial; font-size: 22px; fill: rgb(0, 0, 0); opacity: 1; font-weight: normal; white-space: pre;"><tspan style="font-weight:bold">molecular weight (g/mol)</tspan></text></g><g class="g-ytitle" transform="translate(6.525390625,0)"><text class="ytitle" transform="rotate(-90,13.474999999999994,260)" x="13.474999999999994" y="260" text-anchor="middle" style="font-family: Arial; font-size: 22px; fill: rgb(0, 0, 0); opacity: 1; font-weight: normal; white-space: pre;"><tspan style="font-weight:bold">normalized mole fraction</tspan></text></g></g></svg>