<svg class="main-svg" xmlns="http://www.w3.org/2000/svg" xmlns:xlink="http://www.w3.org/1999/xlink" width="800" height="500" style="" viewBox="0 0 800 500"><rect x="0" y="0" width="800" height="500" style="fill: rgb(255, 255, 255); fill-opacity: 1;"/><defs id="defs-9489e3"><g class="clips"><clipPath id="clip9489e3xyplot" class="plotclip"><rect width="640" height="320"/></clipPath><clipPath class="axesclip" id="clip9489e3x"><rect x="80" y="0" width="640" height="500"/></clipPath><clipPath class="axesclip" id="clip9489e3y"><rect x="0" y="100" width="800" height="320"/></clipPath><clipPath class="axesclip" id="clip9489e3xy"><rect x="80" y="100" width="640" height="320"/></clipPath></g><g class="gradients"/><g class="patterns"/></defs><g class="bglayer"/><g class="layer-below"><g class="imagelayer"/><g class="shapelayer"/></g><g class="cartesianlayer"><g class="subplot xy"><g class="layer-subplot"><g class="shapelayer"/><g class="imagelayer"/></g><g class="minor-gridlayer"><g class="x"/><g class="y"/></g><g class="gridlayer"><g class="x"/><g class="y"/></g><g class="zerolinelayer"><path class="yzl zl crisp" transform="translate(0,406.09)" d="M80,0h640" style="stroke: rgb(255, 255, 255); stroke-opacity: 1; stroke-width: 2px;"/></g><path class="xlines-below"/><path class="ylines-below"/><g class="overlines-below"/><g class="xaxislayer-below"/><g class="yaxislayer-below"/><g class="overaxes-below"/><g class="plot" transform="translate(80,100)" clip-path="url(#clip9489e3xyplot)"><g class="scatterlayer mlayer"><g class="trace scatter trace871967" style="stroke-miterlimit: 2; opacity: 1;"><g class="fills"/><g class="errorbars"/><g class="lines"><path class="js-line" d="M0,306.09L183.87,305.34L183.91,305.33L186.84,303.58L186.87,303.54L188.95,300.62L188.99,300.55L191.44,293.59L191.47,293.45L193.51,282.96L193.55,282.72L195.63,265.73L195.67,265.36L199.97,204.58L200.01,203.91L206.9,66.79L206.94,66.18L209.91,31.91L209.95,31.7L211.24,27.83L211.28,27.83L211.95,28.81L211.99,28.92L213.17,35.58L213.21,35.89L214.84,54.33L214.88,54.85L217.25,96.06L217.29,96.8L226.23,258.31L226.27,258.72L228.46,278.89L228.49,279.16L231.65,295.51L231.68,295.63L234.54,302.17L234.58,302.23L237.36,304.78L237.4,304.8L240.59,305.77L240.62,305.77L248.56,306.08L248.6,306.08L370.89,306.09" style="vector-effect: non-scaling-stroke; fill: none; stroke: rgb(163, 31, 52); stroke-opacity: 1; stroke-width: 2px; opacity: 1;"/></g><g class="points"/><g class="text"/></g><g class="trace scatter trace1572bd" style="stroke-miterlimit: 2; opacity: 1;"><g class="fills"/><g class="errorbars"/><g class="lines"><path class="js-line" d="M0,306.09L200.09,305.34L200.52,305.28L207.42,303.48L207.85,303.29L212.59,300.32L213.02,299.94L217.13,295.2L217.14,295.18L220.84,288.54L220.85,288.51L224.59,278.73L224.6,278.7L229.08,261.89L229.09,261.85L233.73,237.53L233.74,237.47L237.86,209.83L237.87,209.75L244.42,156.19L244.43,156.1L256.67,56.81L256.68,56.75L260.79,36.57L260.8,36.54L262.87,30.66L262.88,30.64L265.07,27.93L265.08,27.93L266.59,28.2L266.6,28.21L268.28,30.57L268.29,30.59L270.63,37.36L270.64,37.4L273.64,51.55L273.65,51.61L276.88,72.66L276.89,72.73L283.15,124.16L283.16,124.25L295.91,227.75L295.92,227.81L301.04,256.89L301.05,256.94L305.35,274.63L306.02,276.88L310.72,289.3L311.39,290.66L315.41,297.01L316.08,297.82L320.78,301.91L321.45,302.32L326.81,304.5L327.48,304.67L334.86,305.72L335.53,305.76L352.97,306.08L353.64,306.08L640,306.09" style="vector-effect: non-scaling-stroke; fill: none; stroke: rgb(172, 70, 76); stroke-opacity: 1; stroke-width: 2px; opacity: 1;"/></g><g class="points"/><g class="text"/></g><g class="trace scatter trace9f02f1" style="stroke-miterlimit: 2; opacity: 1;"><g class="fills"/><g class="errorbars"/><g class="lines"><path class="js-line" d="M0,306.09L234.98,305.35L235.49,305.3L244.69,303.49L245.2,303.32L251.33,300.43L251.84,300.1L257.12,295.57L257.13,295.55L261.02,290.6L261.03,290.58L264.89,283.89L264.9,283.86L269.56,272.88L269.57,272.85L274.02,258.87L274.03,258.82L278.48,241.04L278.49,240.98L282.32,222.58L282.33,222.52L308.86,59.25L308.88,59.19L311.69,46.85L311.71,46.8L314.4,37.64L314.42,37.6L317.81,30.22L317.83,30.2L320.27,27.98L320.28,27.98L322.23,28.11L322.24,28.12L324.09,29.81L324.1,29.83L326.43,34.07L326.44,34.1L329.52,43.18L329.53,43.22L333.02,57.71L333.03,57.77L336.39,75.31L336.4,75.38L340.14,97.89L340.15,97.97L342.69,114.47L342.7,114.55L345.68,134.5L345.69,134.58L348.58,154.04L348.59,154.12L351.91,175.89L351.92,175.97L355.04,195.39L355.05,195.47L364.66,245.14L365.22,247.46L370.74,267.36L371.3,269.04L376.27,281.73L376.83,282.9L381.8,291.5L382.36,292.27L387.33,297.77L387.88,298.24L393.41,301.85L393.97,302.11L400.6,304.32L401.15,304.44L411.11,305.66L411.66,305.69L432.12,306.07L432.67,306.07L474.69,306.09L475.24,306.09L640,306.09" style="vector-effect: non-scaling-stroke; fill: none; stroke: rgb(180, 101, 102); stroke-opacity: 1; stroke-width: 2px; opacity: 1;"/></g><g class="points"/><g class="text"/></g><g class="trace scatter trace145865" style="stroke-miterlimit: 2; opacity: 1;"><g class="fills"/><g class="errorbars"/><g class="lines"><path class="js-line" d="M0,306.09L276.49,305.36L277.09,305.31L287.91,303.5L288.51,303.33L295.72,300.44L296.32,300.11L302.38,295.71L302.39,295.7L308.86,288.23L308.87,288.21L313.64,280.26L313.65,280.23L317.65,271.61L317.66,271.57L322.16,259.42L322.17,259.38L326.68,244.35L326.69,244.3L329.47,233.61L329.48,233.55L335.76,205.37L335.77,205.3L345.62,152.31L345.63,152.23L350.78,122.66L350.79,122.58L363.26,58.93L363.28,58.87L368.72,40.11L368.74,40.08L371.94,32.84L371.96,32.81L375.14,28.75L375.15,28.74L377.61,27.83L377.62,27.83L379.88,28.72L379.89,28.73L382.27,31.44L382.28,31.46L384.81,36.28L384.82,36.31L387.85,44.56L387.86,44.6L391.02,55.78L391.03,55.84L396.86,82.22L396.87,82.29L404.94,126.42L404.95,126.5L410.1,156.06L410.11,156.14L425.79,234.38L426.22,236.13L433.2,260.31L433.64,261.6L439.75,276.88L440.18,277.79L445.86,287.73L446.29,288.36L451.96,295.04L452.4,295.45L458.07,299.72L458.51,299.98L465.05,302.87L465.49,303.01L472.9,304.69L473.34,304.76L486.43,305.81L486.87,305.82L508.24,306.07L508.68,306.07L542.27,306.09L542.71,306.09L640,306.09" style="vector-effect: non-scaling-stroke; fill: none; stroke: rgb(184, 129, 128); stroke-opacity: 1; stroke-width: 2px; opacity: 1;"/></g><g class="points"/><g class="text"/></g><g class="trace scatter trace914a1a" style="stroke-miterlimit: 2; opacity: 1;"><g class="fills"/><g class="errorbars"/><g class="lines"><path class="js-line" d="M0,306.09L321.59,305.38L322.29,305.33L334.15,303.62L334.85,303.46L343.22,300.53L343.92,300.19L350.72,295.8L350.73,295.79L356.84,289.74L356.86,289.72L362.47,281.83L362.48,281.81L368.32,270.63L368.34,270.59L374.95,253.68L374.96,253.63L380.43,235.9L380.44,235.85L392.1,186.99L392.11,186.92L395.68,169.57L395.69,169.5L416.74,66.78L416.76,66.73L420.91,51.51L420.92,51.47L426.97,35.49L426.99,35.46L430.49,30.12L430.51,30.11L433.44,28.03L433.45,28.03L435.88,28.01L435.9,28.01L438.35,29.55L438.37,29.57L441.09,33.08L441.11,33.11L444.18,39.27L444.2,39.31L448.19,50.5L448.2,50.55L453.11,68.57L453.12,68.63L465,124.92L465.01,124.99L483.49,214.65L483.81,215.98L491.48,244.43L491.8,245.47L498.51,264.6L498.83,265.38L504.26,277.1L504.57,277.69L510.64,287.31L510.96,287.73L516.71,294.09L517.03,294.38L523.1,298.88L523.42,299.07L530.77,302.36L531.08,302.47L540.03,304.53L540.35,304.58L551.85,305.63L552.17,305.65L587.62,306.08L587.94,306.08L640,306.09" style="vector-effect: non-scaling-stroke; fill: none; stroke: rgb(186, 157, 156); stroke-opacity: 1; stroke-width: 2px; opacity: 1;"/></g><g class="points"/><g class="text"/></g><g class="trace scatter trace4908bf" style="stroke-miterlimit: 2; opacity: 1;"><g class="fills"/><g class="errorbars"/><g class="lines"><path class="js-line" d="M0,306.09L369.69,305.38L370.49,305.32L383.26,303.63L384.06,303.45L392.05,300.99L392.85,300.65L400.21,296.57L400.23,296.56L406.75,290.99L406.77,290.97L412.2,284.48L412.21,284.46L417.02,276.99L417.03,276.96L421.65,268.03L421.66,267.99L426.39,256.86L426.4,256.82L431.38,242.77L431.39,242.72L435.34,229.86L435.35,229.8L440.44,211.02L440.45,210.96L445.68,189.35L445.69,189.28L451.75,161.97L451.76,161.9L454.85,147.41L454.86,147.34L466.08,95.04L466.1,94.97L470.1,77.97L470.12,77.9L474.01,63.05L474.03,62.99L477.47,51.63L477.49,51.58L482.05,39.58L482.07,39.55L485.82,32.68L485.84,32.66L489.34,28.91L489.36,28.9L492.49,27.83L492.51,27.83L495.1,28.58L495.12,28.59L497.9,31.04L497.92,31.06L501.24,36.14L501.25,36.16L505.29,45.32L505.3,45.36L509,56.31L509.01,56.36L514.49,76.39L514.5,76.46L518.95,95.25L518.96,95.32L524.3,119.76L524.31,119.83L536.47,176.82L536.49,176.89L540.25,193.44L540.45,194.3L551.36,235.64L551.56,236.3L558.43,256.42L558.63,256.95L565.49,272.44L565.69,272.83L572.76,284.45L572.96,284.73L580.23,292.93L580.43,293.12L587.7,298.43L587.91,298.55L595.58,301.97L595.78,302.03L603.65,304.01L603.86,304.05L619,305.6L619.2,305.61L640,306.04" style="vector-effect: non-scaling-stroke; fill: none; stroke: rgb(185, 185, 185); stroke-opacity: 1; stroke-width: 2px; opacity: 1;"/></g><g class="points"/><g class="text"/></g></g></g><g class="overplot"/><path class="xlines-above crisp" d="M75,422.5H725M75,97.5H725" style="fill: none; stroke-width: 5px; stroke: rgb(0, 0, 0); stroke-opacity: 1;"/><path class="ylines-above crisp" d="M77.5,100V420M722.5,100V420" style="fill: none; stroke-width: 5px; stroke: rgb(0, 0, 0); stroke-opacity: 1;"/><g class="overlines-above"/><g class="xaxislayer-above"><path class="xtick ticks crisp" d="M0,425v5" transform="translate(80,0)" style="stroke: rgb(68, 68, 68); stroke-opacity: 1; stroke-width: 4px;"/><path class="xtick ticks crisp" d="M0,425v5" transform="translate(112.11,0)" style="stroke: rgb(68, 68, 68); stroke-opacity: 1; stroke-width: 4px;"/><path class="xtick ticks crisp" d="M0,425v5" transform="translate(154.56,0)" style="stroke: rgb(68, 68, 68); stroke-opacity: 1; stroke-width: 4px;"/><path class="xtick ticks crisp" d="M0,425v5" transform="translate(186.67000000000002,0)" style="stroke: rgb(68, 68, 68); stroke-opacity: 1; stroke-width: 4px;"/><path class="xtick ticks crisp" d="M0,425v5" transform="translate(218.78,0)" style="stroke: rgb(68, 68, 68); stroke-opacity: 1; stroke-width: 4px;"/><path class="xtick ticks crisp" d="M0,425v5" transform="translate(261.22,0)" style="stroke: rgb(68, 68, 68); stroke-opacity: 1; stroke-width: 4px;"/><path class="xtick ticks crisp" d="M0,425v5" transform="translate(293.33000000000004,0)" style="stroke: rgb(68, 68, 68); stroke-opacity: 1; stroke-width: 4px;"/><path class="xtick ticks crisp" d="M0,425v5" transform="translate(325.44,0)" style="stroke: rgb(68, 68, 68); stroke-opacity: 1; stroke-width: 4px;"/><path class="xtick ticks crisp" d="M0,425v5" transform="translate(367.89,0)" style="stroke: rgb(68, 68, 68); stroke-opacity: 1; stroke-width: 4px;"/><path class="xtick ticks crisp" d="M0,425v5" transform="translate(400,0)" style="stroke: rgb(68, 68, 68); stroke-opacity: 1; stroke-width: 4px;"/><path class="xtick ticks crisp" d="M0,425v5" transform="translate(432.11,0)" style="stroke: rgb(68, 68, 68); stroke-opacity: 1; stroke-width: 4px;"/><path class="xtick ticks crisp" d="M0,425v5" transform="translate(474.56,0)" style="stroke: rgb(68, 68, 68); stroke-opacity: 1; stroke-width: 4px;"/><path class="xtick ticks crisp" d="M0,425v5" transform="translate(506.67,0)" style="stroke: rgb(68, 68, 68); stroke-opacity: 1; stroke-width: 4px;"/><path class="xtick ticks crisp" d="M0,425v5" transform="translate(538.78,0)" style="stroke: rgb(68, 68, 68); stroke-opacity: 1; stroke-width: 4px;"/><path class="xtick ticks crisp" d="M0,425v5" transform="translate(581.22,0)" style="stroke: rgb(68, 68, 68); stroke-opacity: 1; stroke-width: 4px;"/><path class="xtick ticks crisp" d="M0,425v5" transform="translate(613.33,0)" style="stroke: rgb(68, 68, 68); stroke-opacity: 1; stroke-width: 4px;"/><path class="xtick ticks crisp" d="M0,425v5" transform="translate(645.44,0)" style="stroke: rgb(68, 68, 68); stroke-opacity: 1; stroke-width: 4px;"/><path class="xtick ticks crisp" d="M0,425v5" transform="translate(687.89,0)" style="stroke: rgb(68, 68, 68); stroke-opacity: 1; stroke-width: 4px;"/><path class="xtick ticks crisp" d="M0,425v5" transform="translate(720,0)" style="stroke: rgb(68, 68, 68); stroke-opacity: 1; stroke-width: 4px;"/><g class="xtick"><text text-anchor="middle" x="0" y="451.6" transform="translate(80,0)" style="font-family: Arial; font-size: 18px; fill: rgb(0, 0, 0); fill-opacity: 1; white-space: pre; opacity: 1;"><tspan style="font-weight:bold">10</tspan></text></g><g class="xtick"><text text-anchor="middle" x="0" y="447.1" style="font-family: Arial; font-size: 13.5px; fill: rgb(0, 0, 0); fill-opacity: 1; white-space: pre; opacity: 1;" transform="translate(112.11,0)">2</text></g><g class="xtick"><text text-anchor="middle" x="0" y="447.1" style="font-family: Arial; font-size: 13.5px; fill: rgb(0, 0, 0); fill-opacity: 1; white-space: pre; opacity: 1;" transform="translate(154.56,0)">5</text></g><g class="xtick"><text text-anchor="middle" x="0" y="451.6" style="font-family: Arial; font-size: 18px; fill: rgb(0, 0, 0); fill-opacity: 1; white-space: pre; opacity: 1;" transform="translate(186.67000000000002,0)"><tspan style="font-weight:bold">100</tspan></text></g><g class="xtick"><text text-anchor="middle" x="0" y="447.1" style="font-family: Arial; font-size: 13.5px; fill: rgb(0, 0, 0); fill-opacity: 1; white-space: pre; opacity: 1;" transform="translate(218.78,0)">2</text></g><g class="xtick"><text text-anchor="middle" x="0" y="447.1" style="font-family: Arial; font-size: 13.5px; fill: rgb(0, 0, 0); fill-opacity: 1; white-space: pre; opacity: 1;" transform="translate(261.22,0)">5</text></g><g class="xtick"><text text-anchor="middle" x="0" y="451.6" style="font-family: Arial; font-size: 18px; fill: rgb(0, 0, 0); fill-opacity: 1; white-space: pre; opacity: 1;" transform="translate(293.33000000000004,0)"><tspan style="font-weight:bold">1000</tspan></text></g><g class="xtick"><text text-anchor="middle" x="0" y="447.1" style="font-family: Arial; font-size: 13.5px; fill: rgb(0, 0, 0); fill-opacity: 1; white-space: pre; opacity: 1;" transform="translate(325.44,0)">2</text></g><g class="xtick"><text text-anchor="middle" x="0" y="447.1" style="font-family: Arial; font-size: 13.5px; fill: rgb(0, 0, 0); fill-opacity: 1; white-space: pre; opacity: 1;" transform="translate(367.89,0)">5</text></g><g class="xtick"><text text-anchor="middle" x="0" y="451.6" style="font-family: Arial; font-size: 18px; fill: rgb(0, 0, 0); fill-opacity: 1; white-space: pre; opacity: 1;" transform="translate(400,0)"><tspan style="font-weight:bold">10k</tspan></text></g><g class="xtick"><text text-anchor="middle" x="0" y="447.1" style="font-family: Arial; font-size: 13.5px; fill: rgb(0, 0, 0); fill-opacity: 1; white-space: pre; opacity: 1;" transform="translate(432.11,0)">2</text></g><g class="xtick"><text text-anchor="middle" x="0" y="447.1" style="font-family: Arial; font-size: 13.5px; fill: rgb(0, 0, 0); fill-opacity: 1; white-space: pre; opacity: 1;" transform="translate(474.56,0)">5</text></g><g class="xtick"><text text-anchor="middle" x="0" y="451.6" style="font-family: Arial; font-size: 18px; fill: rgb(0, 0, 0); fill-opacity: 1; white-space: pre; opacity: 1;" transform="translate(506.67,0)"><tspan style="font-weight:bold">100k</tspan></text></g><g class="xtick"><text text-anchor="middle" x="0" y="447.1" style="font-family: Arial; font-size: 13.5px; fill: rgb(0, 0, 0); fill-opacity: 1; white-space: pre; opacity: 1;" transform="translate(538.78,0)">2</text></g><g class="xtick"><text text-anchor="middle" x="0" y="447.1" style="font-family: Arial; font-size: 13.5px; fill: rgb(0, 0, 0); fill-opacity: 1; white-space: pre; opacity: 1;" transform="translate(581.22,0)">5</text></g><g class="xtick"><text text-anchor="middle" x="0" y="451.6" style="font-family: Arial; font-size: 18px; fill: rgb(0, 0, 0); fill-opacity: 1; white-space: pre; opacity: 1;" transform="translate(613.33,0)"><tspan style="font-weight:bold">1M</tspan></text></g><g class="xtick"><text text-anchor="middle" x="0" y="447.1" style="font-family: Arial; font-size: 13.5px; fill: rgb(0, 0, 0); fill-opacity: 1; white-space: pre; opacity: 1;" transform="translate(645.44,0)">2</text></g><g class="xtick"><text text-anchor="middle" x="0" y="447.1" style="font-family: Arial; font-size: 13.5px; fill: rgb(0, 0, 0); fill-opacity: 1; white-space: pre; opacity: 1;" transform="translate(687.89,0)">5</text></g><g class="xtick"><text text-anchor="middle" x="0" y="451.6" style="font-family: Arial; font-size: 18px; fill: rgb(0, 0, 0); fill-opacity: 1; white-space: pre; opacity: 1;" transform="translate(720,0)"><tspan style="font-weight:bold">10M</tspan></text></g></g><g class="yaxislayer-above"><path class="ytick ticks crisp" d="M75,0h-5" transform="translate(0,406.09)" style="stroke: rgb(68, 68, 68); stroke-opacity: 1; stroke-width: 4px;"/><path class="ytick ticks crisp" d="M75,0h-5" transform="translate(0,350.43)" style="stroke: rgb(68, 68, 68); stroke-opacity: 1; stroke-width: 4px;"/><path class="ytick ticks crisp" d="M75,0h-5" transform="translate(0,294.78)" style="stroke: rgb(68, 68, 68); stroke-opacity: 1; stroke-width: 4px;"/><path class="ytick ticks crisp" d="M75,0h-5" transform="translate(0,239.13)" style="stroke: rgb(68, 68, 68); stroke-opacity: 1; stroke-width: 4px;"/><path class="ytick ticks crisp" d="M75,0h-5" transform="translate(0,183.48000000000002)" style="stroke: rgb(68, 68, 68); stroke-opacity: 1; stroke-width: 4px;"/><path class="ytick ticks crisp" d="M75,0h-5" transform="translate(0,127.83)" style="stroke: rgb(68, 68, 68); stroke-opacity: 1; stroke-width: 4px;"/><g class="ytick"><text text-anchor="end" x="66.4" y="6.3" transform="translate(0,406.09)" style="font-family: Arial; font-size: 18px; fill: rgb(0, 0, 0); fill-opacity: 1; white-space: pre; opacity: 1;"><tspan style="font-weight:bold">0</tspan></text></g><g class="ytick"><text text-anchor="end" x="66.4" y="6.3" style="font-family: Arial; font-size: 18px; fill: rgb(0, 0, 0); fill-opacity: 1; white-space: pre; opacity: 1;" transform="translate(0,350.43)"><tspan style="font-weight:bold">0.2</tspan></text></g><g class="ytick"><text text-anchor="end" x="66.4" y="6.3" style="font-family: Arial; font-size: 18px; fill: rgb(0, 0, 0); fill-opacity: 1; white-space: pre; opacity: 1;" transform="translate(0,294.78)"><tspan style="font-weight:bold">0.4</tspan></text></g><g class="ytick"><text text-anchor="end" x="66.4" y="6.3" style="font-family: Arial; font-size: 18px; fill: rgb(0, 0, 0); fill-opacity: 1; white-space: pre; opacity: 1;" transform="translate(0,239.13)"><tspan style="font-weight:bold">0.6</tspan></text></g><g class="ytick"><text text-anchor="end" x="66.4" y="6.3" style="font-family: Arial; font-size: 18px; fill: rgb(0, 0, 0); fill-opacity: 1; white-space: pre; opacity: 1;" transform="translate(0,183.48000000000002)"><tspan style="font-weight:bold">0.8</tspan></text></g><g class="ytick"><text text-anchor="end" x="66.4" y="6.3" style="font-family: Arial; font-size: 18px; fill: rgb(0, 0, 0); fill-opacity: 1; white-space: pre; opacity: 1;" transform="translate(0,127.83)"><tspan style="font-weight:bold">1</tspan></text></g></g><g class="overaxes-above"/></g></g><g class="polarlayer"/><g class="smithlayer"/><g class="ternarylayer"/><g class="geolayer"/><g class="funnelarealayer"/><g class="pielayer"/><g class="iciclelayer"/><g class="treemaplayer"/><g class="sunburstlayer"/><g class="glimages"/><defs id="topdefs-9489e3"><g class="clips"/><clipPath id="legend9489e3"><rect width="155" height="124" x="0" y="0"/></clipPath></defs><g class="layer-above"><g class="imagelayer"/><g class="shapelayer"/></g><g class="infolayer"><g class="legend" pointer-events="all" transform="translate(92.8,116.00000000000001)"><rect class="bg" shape-rendering="crispEdges" style="stroke: rgb(68, 68, 68); stroke-opacity: 1; fill: rgb(255, 255, 255); fill-opacity: 1; stroke-width: 0px;" width="155" height="124" x="0" y="0"/><g class="scrollbox" transform="" clip-path="url(#legend9489e3)"><g class="groups"><g class="traces" transform="translate(0,14.5)" style="opacity: 1;"><text class="legendtext" text-anchor="start" x="40" y="3.9" style="font-family: Arial; font-size: 10px; fill: rgb(0, 0, 0); fill-opacity: 1; white-space: pre;">|lognorm(1000,1.03)|</text><g class="layers" style="opacity: 1;"><g class="legendfill"/><g class="legendlines"><path class="js-line" d="M5,0h30" style="fill: none; stroke: rgb(163, 31, 52); stroke-opacity: 1; stroke-width: 2px;"/></g><g class="legendsymbols"><g class="legendpoints"/></g></g><rect class="legendtoggle" x="0" y="-9.5" width="149.15625" height="19" style="fill: rgb(0, 0, 0); fill-opacity: 0;"/></g><g class="traces" transform="translate(0,33.5)" style="opacity: 1;"><text class="legendtext" text-anchor="start" x="40" y="3.9" style="font-family: Arial; font-size: 10px; fill: rgb(0, 0, 0); fill-opacity: 1; white-space: pre;">|lognorm(3981,1.18)|</text><g class="layers" style="opacity: 1;"><g class="legendfill"/><g class="legendlines"><path class="js-line" d="M5,0h30" style="fill: none; stroke: rgb(172, 70, 76); stroke-opacity: 1; stroke-width: 2px;"/></g><g class="legendsymbols"><g class="legendpoints"/></g></g><rect class="legendtoggle" x="0" y="-9.5" width="149.15625" height="19" style="fill: rgb(0, 0, 0); fill-opacity: 0;"/></g><g class="traces" transform="translate(0,52.5)" style="opacity: 1;"><text class="legendtext" text-anchor="start" x="40" y="3.9" style="font-family: Arial; font-size: 10px; fill: rgb(0, 0, 0); fill-opacity: 1; white-space: pre;">|lognorm(15849,1.34)|</text><g class="layers" style="opacity: 1;"><g class="legendfill"/><g class="legendlines"><path class="js-line" d="M5,0h30" style="fill: none; stroke: rgb(180, 101, 102); stroke-opacity: 1; stroke-width: 2px;"/></g><g class="legendsymbols"><g class="legendpoints"/></g></g><rect class="legendtoggle" x="0" y="-9.5" width="149.15625" height="19" style="fill: rgb(0, 0, 0); fill-opacity: 0;"/></g><g class="traces" transform="translate(0,71.5)" style="opacity: 1;"><text class="legendtext" text-anchor="start" x="40" y="3.9" style="font-family: Arial; font-size: 10px; fill: rgb(0, 0, 0); fill-opacity: 1; white-space: pre;">|lognorm(63096,1.49)|</text><g class="layers" style="opacity: 1;"><g class="legendfill"/><g class="legendlines"><path class="js-line" d="M5,0h30" style="fill: none; stroke: rgb(184, 129, 128); stroke-opacity: 1; stroke-width: 2px;"/></g><g class="legendsymbols"><g class="legendpoints"/></g></g><rect class="legendtoggle" x="0" y="-9.5" width="149.15625" height="19" style="fill: rgb(0, 0, 0); fill-opacity: 0;"/></g><g class="traces" transform="translate(0,90.5)" style="opacity: 1;"><text class="legendtext" text-anchor="start" x="40" y="3.9" style="font-family: Arial; font-size: 10px; fill: rgb(0, 0, 0); fill-opacity: 1; white-space: pre;">|lognorm(251189,1.65)|</text><g class="layers" style="opacity: 1;"><g class="legendfill"/><g class="legendlines"><path class="js-line" d="M5,0h30" style="fill: none; stroke: rgb(186, 157, 156); stroke-opacity: 1; stroke-width: 2px;"/></g><g class="legendsymbols"><g class="legendpoints"/></g></g><rect class="legendtoggle" x="0" y="-9.5" width="149.15625" height="19" style="fill: rgb(0, 0, 0); fill-opacity: 0;"/></g><g class="traces" transform="translate(0,109.5)" style="opacity: 1;"><text class="legendtext" text-anchor="start" x="40" y="3.9" style="font-family: Arial; font-size: 10px; fill: rgb(0, 0, 0); fill-opacity: 1; white-space: pre;">|lognorm(1000000,1.80)|</text><g class="layers" style="opacity: 1;"><g class="legendfill"/><g class="legendlines"><path class="js-line" d="M5,0h30" style="fill: none; stroke: rgb(185, 185, 185); stroke-opacity: 1; stroke-width: 2px;"/></g><g class="legendsymbols"><g class="legendpoints"/></g></g><rect class="legendtoggle" x="0" y="-9.5" width="149.15625" height="19" style="fill: rgb(0, 0, 0); fill-opacity: 0;"/></g></g></g><rect class="scrollbar" rx="20" ry="3" width="0" height="0" style="fill: rgb(128, 139, 164); fill-opacity: 1;" x="0" y="0"/></g><g class="g-gtitle"/><g class="g-xtitle"><text class="xtitle" x="400" y="483.509375" text-anchor="middle" style="font-family: Arial; font-size: 22px; fill: rgb(0, 0, 0); opacity: 1; font-weight: normal; white-space: pre;"><tspan style="font-weight:bold">molecular weight, <tspan style="font-style:italic">mw​<tspan style="font-size:70%" dy="0.3em">i</tspan><tspan dy="-0.21em">​</tspan></tspan> (g/mol)</tspan></text></g><g class="g-ytitle" transform="translate(6.525390625,0)"><text class="ytitle" transform="rotate(-90,13.474999999999994,260)" x="13.474999999999994" y="260" text-anchor="middle" style="font-family: Arial; font-size: 22px; fill: rgb(0, 0, 0); opacity: 1; font-weight: normal; white-space: pre;"><tspan style="font-weight:bold">normalized mole fraction (<tspan style="font-style:italic">x​<tspan style="font-size:70%" dy="0.3em">i</tspan><tspan dy="-0.21em">​</tspan></tspan>)</tspan></text></g></g></svg>