<svg class="main-svg" xmlns="http://www.w3.org/2000/svg" xmlns:xlink="http://www.w3.org/1999/xlink" width="800" height="500" style="" viewBox="0 0 800 500"><rect x="0" y="0" width="800" height="500" style="fill: rgb(255, 255, 255); fill-opacity: 1;"/><defs id="defs-6433b9"><g class="clips"><clipPath id="clip6433b9xyplot" class="plotclip"><rect width="640" height="320"/></clipPath><clipPath class="axesclip" id="clip6433b9x"><rect x="80" y="0" width="640" height="500"/></clipPath><clipPath class="axesclip" id="clip6433b9y"><rect x="0" y="100" width="800" height="320"/></clipPath><clipPath class="axesclip" id="clip6433b9xy"><rect x="80" y="100" width="640" height="320"/></clipPath></g><g class="gradients"/><g class="patterns"/></defs><g class="bglayer"/><g class="layer-below"><g class="imagelayer"/><g class="shapelayer"/></g><g class="cartesianlayer"><g class="subplot xy"><g class="layer-subplot"><g class="shapelayer"/><g class="imagelayer"/></g><g class="minor-gridlayer"><g class="x"/><g class="y"/></g><g class="gridlayer"><g class="x"/><g class="y"/></g><g class="zerolinelayer"><path class="yzl zl crisp" transform="translate(0,404)" d="M80,0h640" style="stroke: rgb(255, 255, 255); stroke-opacity: 1; stroke-width: 2px;"/></g><path class="xlines-below"/><path class="ylines-below"/><g class="overlines-below"/><g class="xaxislayer-below"/><g class="yaxislayer-below"/><g class="overaxes-below"/><g class="plot" transform="translate(80,100)" clip-path="url(#clip6433b9xyplot)"><g class="scatterlayer mlayer"><g class="trace scatter trace44c4ac" style="stroke-miterlimit: 2; opacity: 1;"><g class="fills"/><g class="errorbars"/><g class="lines"><path class="js-line" d="M0,304L185.14,303.26L185.52,303.13L188.18,301.43L188.56,301.02L190.88,297.13L190.89,297.11L192.99,290.31L192.99,290.29L195.03,279.09L195.03,279.05L197.93,251.82L197.93,251.75L199.81,225.51L199.81,225.42L204.5,133.41L204.5,133.29L208.83,47.24L208.84,47.16L211.09,21.46L211.1,21.43L212.57,16.01L212.57,16.01L212.58,16.01L213.24,16.8L213.25,16.82L214.34,22.43L214.35,22.48L216.2,43.23L216.2,43.31L216.98,55.57L216.98,55.66L217.75,69.37L217.75,69.47L226.79,244.45L226.8,244.53L228.4,263.3L228.41,263.36L232.18,289.78L232.19,289.8L234.42,297.13L234.43,297.15L237.04,301.35L237.05,301.36L239.92,303.18L239.92,303.18L239.93,303.18L244.39,303.9L245.19,303.93L277.03,304L277.82,304L640,304" style="vector-effect: non-scaling-stroke; fill: none; stroke: rgb(163, 31, 52); stroke-opacity: 1; stroke-width: 2px; opacity: 1;"/></g><g class="points"/><g class="text"/></g><g class="trace scatter tracea793f2" style="stroke-miterlimit: 2; opacity: 1;"><g class="fills"/><g class="errorbars"/><g class="lines"><path class="js-line" d="M0,304L207.4,303.29L207.83,303.24L214.7,301.53L214.71,301.52L219.81,298.53L219.82,298.52L223.49,294.76L223.5,294.74L227.67,287.96L227.68,287.93L231.37,278.89L231.38,278.85L235.07,266.15L235.08,266.1L238.71,249.37L238.72,249.31L247.15,192.87L247.16,192.77L258.5,92.13L258.52,92.03L262,63.4L262.02,63.31L265.57,39.45L265.59,39.39L268.34,26.09L268.35,26.04L271.47,17.5L271.49,17.48L273.32,16L273.34,16L274.8,16.75L274.81,16.77L276.47,19.68L276.48,19.7L278.93,27.81L278.94,27.86L281.27,39.48L281.28,39.55L283.9,56.45L283.91,56.53L304.64,228.92L304.65,228.99L307.58,246.4L307.59,246.46L310.84,262.28L310.86,262.33L314.05,274.46L314.06,274.5L319.49,288.6L319.51,288.62L323.31,294.7L323.95,295.49L328.43,299.57L329.08,299.98L334.2,302.24L334.84,302.42L342.54,303.6L343.18,303.65L360.49,303.99L361.13,303.99L640,304" style="vector-effect: non-scaling-stroke; fill: none; stroke: rgb(172, 70, 76); stroke-opacity: 1; stroke-width: 2px; opacity: 1;"/></g><g class="points"/><g class="text"/></g><g class="trace scatter trace9c379b" style="stroke-miterlimit: 2; opacity: 1;"><g class="fills"/><g class="errorbars"/><g class="lines"><path class="js-line" d="M0,304L248.35,303.25L248.85,303.2L257.96,301.38L257.98,301.37L264.27,298.49L264.29,298.48L269.22,294.57L269.24,294.55L273.15,289.95L273.17,289.93L278.72,280.31L278.73,280.27L282.62,270.83L282.63,270.79L287.93,253.55L287.94,253.5L291.56,238.55L291.57,238.49L295.91,217.03L295.92,216.94L302.35,178.64L302.36,178.54L311.68,114.77L311.69,114.66L322.12,49.67L322.14,49.6L326.32,31.32L326.34,31.27L329.39,22.16L329.41,22.12L332.34,17.16L332.36,17.14L334.56,16L334.57,16L336.39,16.75L336.41,16.76L338.47,19.45L338.48,19.47L341.06,25.48L341.07,25.52L344.79,39.01L344.8,39.07L348.27,56.04L348.28,56.12L353.76,89.37L353.77,89.47L373.49,218.2L373.51,218.28L379.87,248.18L379.89,248.24L383.9,262.86L383.92,262.91L387.41,273.11L387.43,273.15L392.18,283.73L392.68,284.65L397.74,292.16L398.25,292.75L403.3,297.41L403.81,297.77L409.37,300.72L409.88,300.91L416.45,302.65L416.96,302.74L427.58,303.72L428.09,303.74L452.87,304L453.37,304L640,304" style="vector-effect: non-scaling-stroke; fill: none; stroke: rgb(180, 101, 102); stroke-opacity: 1; stroke-width: 2px; opacity: 1;"/></g><g class="points"/><g class="text"/></g><g class="trace scatter trace020373" style="stroke-miterlimit: 2; opacity: 1;"><g class="fills"/><g class="errorbars"/><g class="lines"><path class="js-line" d="M0,304L294.51,303.29L295.1,303.24L304.19,301.89L304.21,301.88L310.52,299.94L310.53,299.93L316.09,297.06L316.1,297.04L321.07,293.11L321.09,293.09L325.89,287.64L325.91,287.61L331.62,278.36L331.63,278.33L337.45,265.06L337.47,265.01L343.35,246.9L343.37,246.84L351.63,212.81L351.64,212.73L355.95,191.19L355.96,191.09L359.57,171.42L359.58,171.32L364.36,143.6L364.38,143.49L368.39,119.66L368.4,119.55L383.09,42.9L383.11,42.83L387.2,28.88L387.22,28.83L390.68,20.82L390.7,20.79L393.51,17.1L393.53,17.08L395.97,16L395.99,16L398.18,16.75L398.2,16.76L400.68,19.54L400.69,19.57L403.72,25.65L403.73,25.69L407.81,38.22L407.83,38.29L413.5,62.72L413.52,62.81L441.17,215.92L441.19,216L445.23,233.51L445.25,233.58L450.8,253.67L450.82,253.73L455.55,267.3L455.92,268.24L461.53,280.26L461.91,280.93L467.52,289.27L467.89,289.72L473.88,295.53L474.25,295.81L480.61,299.52L480.99,299.68L487.72,301.84L488.1,301.92L498.2,303.34L498.57,303.37L523.64,303.98L524.01,303.98L640,304" style="vector-effect: non-scaling-stroke; fill: none; stroke: rgb(184, 129, 128); stroke-opacity: 1; stroke-width: 2px; opacity: 1;"/></g><g class="points"/><g class="text"/></g><g class="trace scatter trace040015" style="stroke-miterlimit: 2; opacity: 1;"><g class="fills"/><g class="errorbars"/><g class="lines"><path class="js-line" d="M0,304L345.02,303.25L345.04,303.24L355.45,301.85L355.47,301.84L363.07,299.66L363.09,299.65L369.59,296.42L369.61,296.4L374.54,292.72L374.56,292.7L379.45,287.66L379.47,287.63L384.93,279.92L384.95,279.89L390.28,269.81L390.3,269.77L398.62,247.94L398.64,247.88L404.12,229.08L404.14,229L411.18,199.72L411.2,199.63L419.56,158.56L419.58,158.45L441.15,50.96L441.17,50.89L446.51,32.62L446.53,32.57L451.01,22.12L451.03,22.08L454.94,17.09L454.96,17.08L457.63,16L457.65,16L460.15,16.75L460.17,16.76L462.98,19.6L462.99,19.62L466.24,25.45L466.26,25.49L471.32,39.63L471.34,39.7L476.53,59.6L476.55,59.69L483.38,91.98L483.4,92.07L508.41,217.08L508.43,217.16L516.62,246.9L516.64,246.96L524.09,267.12L524.34,267.68L530.44,279.58L530.68,279.98L536.78,288.42L537.03,288.7L542.39,293.86L542.64,294.05L548.01,297.59L548.25,297.72L555.57,300.7L555.82,300.78L564.84,302.64L565.09,302.68L579.24,303.71L579.48,303.72L640,304" style="vector-effect: non-scaling-stroke; fill: none; stroke: rgb(186, 157, 156); stroke-opacity: 1; stroke-width: 2px; opacity: 1;"/></g><g class="points"/><g class="text"/></g><g class="trace scatter trace42ce50" style="stroke-miterlimit: 2; opacity: 1;"><g class="fills"/><g class="errorbars"/><g class="lines"><path class="js-line" d="M0,304L397.25,303.25L397.27,303.24L409.4,301.69L409.42,301.68L418.14,299.18L418.16,299.17L425.64,295.38L425.66,295.36L431.28,291.03L431.3,291.01L436.12,285.96L436.14,285.93L441.69,278.22L441.71,278.18L445.85,270.89L445.87,270.84L450.18,261.65L450.2,261.6L458.24,239.64L458.26,239.57L467.41,206.66L467.43,206.57L479.58,151.93L479.6,151.83L490.29,99.66L490.32,99.56L497.82,65.87L497.84,65.78L503.97,42.98L503.99,42.91L508.34,30.41L508.36,30.36L512.05,22.64L512.07,22.61L515.2,18.33L515.22,18.3L518.37,16.21L518.39,16.2L521.15,16.23L521.17,16.24L523.81,17.91L523.83,17.92L527.24,22.38L527.26,22.42L530.93,29.99L530.95,30.04L537.01,48.19L537.03,48.27L540.23,60.22L540.25,60.31L551.54,111.22L551.56,111.32L556.17,133.92L556.19,134.02L564.93,175.93L564.96,176.03L571.06,202.71L571.08,202.8L583.95,247.89L584.07,248.21L589.57,262.37L589.69,262.63L595.42,274.29L595.53,274.49L601.26,283.36L601.38,283.51L606.99,289.93L607.11,290.04L612.95,294.82L613.07,294.89L619.37,298.38L619.48,298.43L627.51,301.12L627.62,301.15L639.77,303.05L639.89,303.06" style="vector-effect: non-scaling-stroke; fill: none; stroke: rgb(185, 185, 185); stroke-opacity: 1; stroke-width: 2px; opacity: 1;"/></g><g class="points"/><g class="text"/></g></g></g><g class="overplot"/><path class="xlines-above crisp" d="M75,422.5H725M75,97.5H725" style="fill: none; stroke-width: 5px; stroke: rgb(0, 0, 0); stroke-opacity: 1;"/><path class="ylines-above crisp" d="M77.5,100V420M722.5,100V420" style="fill: none; stroke-width: 5px; stroke: rgb(0, 0, 0); stroke-opacity: 1;"/><g class="overlines-above"/><g class="xaxislayer-above"><path class="xtick ticks crisp" d="M0,425v5" transform="translate(80,0)" style="stroke: rgb(68, 68, 68); stroke-opacity: 1; stroke-width: 4px;"/><path class="xtick ticks crisp" d="M0,425v5" transform="translate(112.11,0)" style="stroke: rgb(68, 68, 68); stroke-opacity: 1; stroke-width: 4px;"/><path class="xtick ticks crisp" d="M0,425v5" transform="translate(154.56,0)" style="stroke: rgb(68, 68, 68); stroke-opacity: 1; stroke-width: 4px;"/><path class="xtick ticks crisp" d="M0,425v5" transform="translate(186.67000000000002,0)" style="stroke: rgb(68, 68, 68); stroke-opacity: 1; stroke-width: 4px;"/><path class="xtick ticks crisp" d="M0,425v5" transform="translate(218.78,0)" style="stroke: rgb(68, 68, 68); stroke-opacity: 1; stroke-width: 4px;"/><path class="xtick ticks crisp" d="M0,425v5" transform="translate(261.22,0)" style="stroke: rgb(68, 68, 68); stroke-opacity: 1; stroke-width: 4px;"/><path class="xtick ticks crisp" d="M0,425v5" transform="translate(293.33000000000004,0)" style="stroke: rgb(68, 68, 68); stroke-opacity: 1; stroke-width: 4px;"/><path class="xtick ticks crisp" d="M0,425v5" transform="translate(325.44,0)" style="stroke: rgb(68, 68, 68); stroke-opacity: 1; stroke-width: 4px;"/><path class="xtick ticks crisp" d="M0,425v5" transform="translate(367.89,0)" style="stroke: rgb(68, 68, 68); stroke-opacity: 1; stroke-width: 4px;"/><path class="xtick ticks crisp" d="M0,425v5" transform="translate(400,0)" style="stroke: rgb(68, 68, 68); stroke-opacity: 1; stroke-width: 4px;"/><path class="xtick ticks crisp" d="M0,425v5" transform="translate(432.11,0)" style="stroke: rgb(68, 68, 68); stroke-opacity: 1; stroke-width: 4px;"/><path class="xtick ticks crisp" d="M0,425v5" transform="translate(474.56,0)" style="stroke: rgb(68, 68, 68); stroke-opacity: 1; stroke-width: 4px;"/><path class="xtick ticks crisp" d="M0,425v5" transform="translate(506.67,0)" style="stroke: rgb(68, 68, 68); stroke-opacity: 1; stroke-width: 4px;"/><path class="xtick ticks crisp" d="M0,425v5" transform="translate(538.78,0)" style="stroke: rgb(68, 68, 68); stroke-opacity: 1; stroke-width: 4px;"/><path class="xtick ticks crisp" d="M0,425v5" transform="translate(581.22,0)" style="stroke: rgb(68, 68, 68); stroke-opacity: 1; stroke-width: 4px;"/><path class="xtick ticks crisp" d="M0,425v5" transform="translate(613.33,0)" style="stroke: rgb(68, 68, 68); stroke-opacity: 1; stroke-width: 4px;"/><path class="xtick ticks crisp" d="M0,425v5" transform="translate(645.44,0)" style="stroke: rgb(68, 68, 68); stroke-opacity: 1; stroke-width: 4px;"/><path class="xtick ticks crisp" d="M0,425v5" transform="translate(687.89,0)" style="stroke: rgb(68, 68, 68); stroke-opacity: 1; stroke-width: 4px;"/><path class="xtick ticks crisp" d="M0,425v5" transform="translate(720,0)" style="stroke: rgb(68, 68, 68); stroke-opacity: 1; stroke-width: 4px;"/><g class="xtick"><text text-anchor="middle" x="0" y="451.6" transform="translate(80,0)" style="font-family: Arial; font-size: 18px; fill: rgb(0, 0, 0); fill-opacity: 1; white-space: pre; opacity: 1;"><tspan style="font-weight:bold">10</tspan></text></g><g class="xtick"><text text-anchor="middle" x="0" y="447.1" style="font-family: Arial; font-size: 13.5px; fill: rgb(0, 0, 0); fill-opacity: 1; white-space: pre; opacity: 1;" transform="translate(112.11,0)">2</text></g><g class="xtick"><text text-anchor="middle" x="0" y="447.1" style="font-family: Arial; font-size: 13.5px; fill: rgb(0, 0, 0); fill-opacity: 1; white-space: pre; opacity: 1;" transform="translate(154.56,0)">5</text></g><g class="xtick"><text text-anchor="middle" x="0" y="451.6" style="font-family: Arial; font-size: 18px; fill: rgb(0, 0, 0); fill-opacity: 1; white-space: pre; opacity: 1;" transform="translate(186.67000000000002,0)"><tspan style="font-weight:bold">100</tspan></text></g><g class="xtick"><text text-anchor="middle" x="0" y="447.1" style="font-family: Arial; font-size: 13.5px; fill: rgb(0, 0, 0); fill-opacity: 1; white-space: pre; opacity: 1;" transform="translate(218.78,0)">2</text></g><g class="xtick"><text text-anchor="middle" x="0" y="447.1" style="font-family: Arial; font-size: 13.5px; fill: rgb(0, 0, 0); fill-opacity: 1; white-space: pre; opacity: 1;" transform="translate(261.22,0)">5</text></g><g class="xtick"><text text-anchor="middle" x="0" y="451.6" style="font-family: Arial; font-size: 18px; fill: rgb(0, 0, 0); fill-opacity: 1; white-space: pre; opacity: 1;" transform="translate(293.33000000000004,0)"><tspan style="font-weight:bold">1000</tspan></text></g><g class="xtick"><text text-anchor="middle" x="0" y="447.1" style="font-family: Arial; font-size: 13.5px; fill: rgb(0, 0, 0); fill-opacity: 1; white-space: pre; opacity: 1;" transform="translate(325.44,0)">2</text></g><g class="xtick"><text text-anchor="middle" x="0" y="447.1" style="font-family: Arial; font-size: 13.5px; fill: rgb(0, 0, 0); fill-opacity: 1; white-space: pre; opacity: 1;" transform="translate(367.89,0)">5</text></g><g class="xtick"><text text-anchor="middle" x="0" y="451.6" style="font-family: Arial; font-size: 18px; fill: rgb(0, 0, 0); fill-opacity: 1; white-space: pre; opacity: 1;" transform="translate(400,0)"><tspan style="font-weight:bold">10k</tspan></text></g><g class="xtick"><text text-anchor="middle" x="0" y="447.1" style="font-family: Arial; font-size: 13.5px; fill: rgb(0, 0, 0); fill-opacity: 1; white-space: pre; opacity: 1;" transform="translate(432.11,0)">2</text></g><g class="xtick"><text text-anchor="middle" x="0" y="447.1" style="font-family: Arial; font-size: 13.5px; fill: rgb(0, 0, 0); fill-opacity: 1; white-space: pre; opacity: 1;" transform="translate(474.56,0)">5</text></g><g class="xtick"><text text-anchor="middle" x="0" y="451.6" style="font-family: Arial; font-size: 18px; fill: rgb(0, 0, 0); fill-opacity: 1; white-space: pre; opacity: 1;" transform="translate(506.67,0)"><tspan style="font-weight:bold">100k</tspan></text></g><g class="xtick"><text text-anchor="middle" x="0" y="447.1" style="font-family: Arial; font-size: 13.5px; fill: rgb(0, 0, 0); fill-opacity: 1; white-space: pre; opacity: 1;" transform="translate(538.78,0)">2</text></g><g class="xtick"><text text-anchor="middle" x="0" y="447.1" style="font-family: Arial; font-size: 13.5px; fill: rgb(0, 0, 0); fill-opacity: 1; white-space: pre; opacity: 1;" transform="translate(581.22,0)">5</text></g><g class="xtick"><text text-anchor="middle" x="0" y="451.6" style="font-family: Arial; font-size: 18px; fill: rgb(0, 0, 0); fill-opacity: 1; white-space: pre; opacity: 1;" transform="translate(613.33,0)"><tspan style="font-weight:bold">1M</tspan></text></g><g class="xtick"><text text-anchor="middle" x="0" y="447.1" style="font-family: Arial; font-size: 13.5px; fill: rgb(0, 0, 0); fill-opacity: 1; white-space: pre; opacity: 1;" transform="translate(645.44,0)">2</text></g><g class="xtick"><text text-anchor="middle" x="0" y="447.1" style="font-family: Arial; font-size: 13.5px; fill: rgb(0, 0, 0); fill-opacity: 1; white-space: pre; opacity: 1;" transform="translate(687.89,0)">5</text></g><g class="xtick"><text text-anchor="middle" x="0" y="451.6" style="font-family: Arial; font-size: 18px; fill: rgb(0, 0, 0); fill-opacity: 1; white-space: pre; opacity: 1;" transform="translate(720,0)"><tspan style="font-weight:bold">10M</tspan></text></g></g><g class="yaxislayer-above"><path class="ytick ticks crisp" d="M75,0h-5" transform="translate(0,404)" style="stroke: rgb(68, 68, 68); stroke-opacity: 1; stroke-width: 4px;"/><path class="ytick ticks crisp" d="M75,0h-5" transform="translate(0,346.4)" style="stroke: rgb(68, 68, 68); stroke-opacity: 1; stroke-width: 4px;"/><path class="ytick ticks crisp" d="M75,0h-5" transform="translate(0,288.8)" style="stroke: rgb(68, 68, 68); stroke-opacity: 1; stroke-width: 4px;"/><path class="ytick ticks crisp" d="M75,0h-5" transform="translate(0,231.2)" style="stroke: rgb(68, 68, 68); stroke-opacity: 1; stroke-width: 4px;"/><path class="ytick ticks crisp" d="M75,0h-5" transform="translate(0,173.6)" style="stroke: rgb(68, 68, 68); stroke-opacity: 1; stroke-width: 4px;"/><path class="ytick ticks crisp" d="M75,0h-5" transform="translate(0,116)" style="stroke: rgb(68, 68, 68); stroke-opacity: 1; stroke-width: 4px;"/><g class="ytick"><text text-anchor="end" x="66.4" y="6.3" transform="translate(0,404)" style="font-family: Arial; font-size: 18px; fill: rgb(0, 0, 0); fill-opacity: 1; white-space: pre; opacity: 1;"><tspan style="font-weight:bold">0</tspan></text></g><g class="ytick"><text text-anchor="end" x="66.4" y="6.3" style="font-family: Arial; font-size: 18px; fill: rgb(0, 0, 0); fill-opacity: 1; white-space: pre; opacity: 1;" transform="translate(0,346.4)"><tspan style="font-weight:bold">0.2</tspan></text></g><g class="ytick"><text text-anchor="end" x="66.4" y="6.3" style="font-family: Arial; font-size: 18px; fill: rgb(0, 0, 0); fill-opacity: 1; white-space: pre; opacity: 1;" transform="translate(0,288.8)"><tspan style="font-weight:bold">0.4</tspan></text></g><g class="ytick"><text text-anchor="end" x="66.4" y="6.3" style="font-family: Arial; font-size: 18px; fill: rgb(0, 0, 0); fill-opacity: 1; white-space: pre; opacity: 1;" transform="translate(0,231.2)"><tspan style="font-weight:bold">0.6</tspan></text></g><g class="ytick"><text text-anchor="end" x="66.4" y="6.3" style="font-family: Arial; font-size: 18px; fill: rgb(0, 0, 0); fill-opacity: 1; white-space: pre; opacity: 1;" transform="translate(0,173.6)"><tspan style="font-weight:bold">0.8</tspan></text></g><g class="ytick"><text text-anchor="end" x="66.4" y="6.3" style="font-family: Arial; font-size: 18px; fill: rgb(0, 0, 0); fill-opacity: 1; white-space: pre; opacity: 1;" transform="translate(0,116)"><tspan style="font-weight:bold">1</tspan></text></g></g><g class="overaxes-above"/></g></g><g class="polarlayer"/><g class="smithlayer"/><g class="ternarylayer"/><g class="geolayer"/><g class="funnelarealayer"/><g class="pielayer"/><g class="iciclelayer"/><g class="treemaplayer"/><g class="sunburstlayer"/><g class="glimages"/><defs id="topdefs-6433b9"><g class="clips"/><clipPath id="legend6433b9"><rect width="150" height="124" x="0" y="0"/></clipPath></defs><g class="layer-above"><g class="imagelayer"/><g class="shapelayer"/></g><g class="infolayer"><g class="legend" pointer-events="all" transform="translate(92.8,116.00000000000001)"><rect class="bg" shape-rendering="crispEdges" style="stroke: rgb(68, 68, 68); stroke-opacity: 1; fill: rgb(255, 255, 255); fill-opacity: 1; stroke-width: 0px;" width="150" height="124" x="0" y="0"/><g class="scrollbox" transform="" clip-path="url(#legend6433b9)"><g class="groups"><g class="traces" transform="translate(0,14.5)" style="opacity: 1;"><text class="legendtext" text-anchor="start" x="40" y="3.9" style="font-family: Arial; font-size: 10px; fill: rgb(0, 0, 0); fill-opacity: 1; white-space: pre;">lognorm(1000,1.03)</text><g class="layers" style="opacity: 1;"><g class="legendfill"/><g class="legendlines"><path class="js-line" d="M5,0h30" style="fill: none; stroke: rgb(163, 31, 52); stroke-opacity: 1; stroke-width: 2px;"/></g><g class="legendsymbols"><g class="legendpoints"/></g></g><rect class="legendtoggle" x="0" y="-9.5" width="144.640625" height="19" style="fill: rgb(0, 0, 0); fill-opacity: 0;"/></g><g class="traces" transform="translate(0,33.5)" style="opacity: 1;"><text class="legendtext" text-anchor="start" x="40" y="3.9" style="font-family: Arial; font-size: 10px; fill: rgb(0, 0, 0); fill-opacity: 1; white-space: pre;">lognorm(3981,1.18)</text><g class="layers" style="opacity: 1;"><g class="legendfill"/><g class="legendlines"><path class="js-line" d="M5,0h30" style="fill: none; stroke: rgb(172, 70, 76); stroke-opacity: 1; stroke-width: 2px;"/></g><g class="legendsymbols"><g class="legendpoints"/></g></g><rect class="legendtoggle" x="0" y="-9.5" width="144.640625" height="19" style="fill: rgb(0, 0, 0); fill-opacity: 0;"/></g><g class="traces" transform="translate(0,52.5)" style="opacity: 1;"><text class="legendtext" text-anchor="start" x="40" y="3.9" style="font-family: Arial; font-size: 10px; fill: rgb(0, 0, 0); fill-opacity: 1; white-space: pre;">lognorm(15849,1.34)</text><g class="layers" style="opacity: 1;"><g class="legendfill"/><g class="legendlines"><path class="js-line" d="M5,0h30" style="fill: none; stroke: rgb(180, 101, 102); stroke-opacity: 1; stroke-width: 2px;"/></g><g class="legendsymbols"><g class="legendpoints"/></g></g><rect class="legendtoggle" x="0" y="-9.5" width="144.640625" height="19" style="fill: rgb(0, 0, 0); fill-opacity: 0;"/></g><g class="traces" transform="translate(0,71.5)" style="opacity: 1;"><text class="legendtext" text-anchor="start" x="40" y="3.9" style="font-family: Arial; font-size: 10px; fill: rgb(0, 0, 0); fill-opacity: 1; white-space: pre;">lognorm(63096,1.49)</text><g class="layers" style="opacity: 1;"><g class="legendfill"/><g class="legendlines"><path class="js-line" d="M5,0h30" style="fill: none; stroke: rgb(184, 129, 128); stroke-opacity: 1; stroke-width: 2px;"/></g><g class="legendsymbols"><g class="legendpoints"/></g></g><rect class="legendtoggle" x="0" y="-9.5" width="144.640625" height="19" style="fill: rgb(0, 0, 0); fill-opacity: 0;"/></g><g class="traces" transform="translate(0,90.5)" style="opacity: 1;"><text class="legendtext" text-anchor="start" x="40" y="3.9" style="font-family: Arial; font-size: 10px; fill: rgb(0, 0, 0); fill-opacity: 1; white-space: pre;">lognorm(251189,1.65)</text><g class="layers" style="opacity: 1;"><g class="legendfill"/><g class="legendlines"><path class="js-line" d="M5,0h30" style="fill: none; stroke: rgb(186, 157, 156); stroke-opacity: 1; stroke-width: 2px;"/></g><g class="legendsymbols"><g class="legendpoints"/></g></g><rect class="legendtoggle" x="0" y="-9.5" width="144.640625" height="19" style="fill: rgb(0, 0, 0); fill-opacity: 0;"/></g><g class="traces" transform="translate(0,109.5)" style="opacity: 1;"><text class="legendtext" text-anchor="start" x="40" y="3.9" style="font-family: Arial; font-size: 10px; fill: rgb(0, 0, 0); fill-opacity: 1; white-space: pre;">lognorm(1000000,1.80)</text><g class="layers" style="opacity: 1;"><g class="legendfill"/><g class="legendlines"><path class="js-line" d="M5,0h30" style="fill: none; stroke: rgb(185, 185, 185); stroke-opacity: 1; stroke-width: 2px;"/></g><g class="legendsymbols"><g class="legendpoints"/></g></g><rect class="legendtoggle" x="0" y="-9.5" width="144.640625" height="19" style="fill: rgb(0, 0, 0); fill-opacity: 0;"/></g></g></g><rect class="scrollbar" rx="20" ry="3" width="0" height="0" style="fill: rgb(128, 139, 164); fill-opacity: 1;" x="0" y="0"/></g><g class="g-gtitle"/><g class="g-xtitle"><text class="xtitle" x="400" y="483.509375" text-anchor="middle" style="font-family: Arial; font-size: 22px; fill: rgb(0, 0, 0); opacity: 1; font-weight: normal; white-space: pre;"><tspan style="font-weight:bold">molecular weight, <tspan style="font-style:italic">mw​<tspan style="font-size:70%" dy="0.3em">i</tspan><tspan dy="-0.21em">​</tspan></tspan> (g/mol)</tspan></text></g><g class="g-ytitle" transform="translate(6.525390625,0)"><text class="ytitle" transform="rotate(-90,13.474999999999994,260)" x="13.474999999999994" y="260" text-anchor="middle" style="font-family: Arial; font-size: 22px; fill: rgb(0, 0, 0); opacity: 1; font-weight: normal; white-space: pre;"><tspan style="font-weight:bold">normalized weight fraction, <tspan style="font-style:italic">w​<tspan style="font-size:70%" dy="0.3em">i</tspan><tspan dy="-0.21em">​</tspan></tspan></tspan></text></g></g></svg>