<svg class="main-svg" xmlns="http://www.w3.org/2000/svg" xmlns:xlink="http://www.w3.org/1999/xlink" width="800" height="500" style="" viewBox="0 0 800 500"><rect x="0" y="0" width="800" height="500" style="fill: rgb(255, 255, 255); fill-opacity: 1;"/><defs id="defs-d9c1e3"><g class="clips"><clipPath id="clipd9c1e3xyplot" class="plotclip"><rect width="640" height="320"/></clipPath><clipPath class="axesclip" id="clipd9c1e3x"><rect x="80" y="0" width="640" height="500"/></clipPath><clipPath class="axesclip" id="clipd9c1e3y"><rect x="0" y="100" width="800" height="320"/></clipPath><clipPath class="axesclip" id="clipd9c1e3xy"><rect x="80" y="100" width="640" height="320"/></clipPath></g><g class="gradients"/><g class="patterns"/></defs><g class="bglayer"/><g class="layer-below"><g class="imagelayer"/><g class="shapelayer"/></g><g class="cartesianlayer"><g class="subplot xy"><g class="layer-subplot"><g class="shapelayer"/><g class="imagelayer"/></g><g class="minor-gridlayer"><g class="x"/><g class="y"/></g><g class="gridlayer"><g class="x"/><g class="y"/></g><g class="zerolinelayer"><path class="yzl zl crisp" transform="translate(0,406.09)" d="M80,0h640" style="stroke: rgb(255, 255, 255); stroke-opacity: 1; stroke-width: 2px;"/></g><path class="xlines-below"/><path class="ylines-below"/><g class="overlines-below"/><g class="xaxislayer-below"/><g class="yaxislayer-below"/><g class="overaxes-below"/><g class="plot" transform="translate(80,100)" clip-path="url(#clipd9c1e3xyplot)"><g class="scatterlayer mlayer"><g class="trace scatter trace1e3e75" style="stroke-miterlimit: 2; opacity: 1;"><g class="fills"/><g class="errorbars"/><g class="lines"><path class="js-line" d="M0,306.09L180.75,305.34L180.79,305.33L184.43,303.6L184.46,303.57L187.1,300.53L187.13,300.47L189.25,295.94L189.29,295.84L192.03,285.34L192.07,285.16L195.85,257.2L195.89,256.83L198.56,224.33L198.6,223.8L209.58,38.95L209.61,38.61L211.62,28.02L211.65,27.98L212.21,28L212.39,28.29L212.43,28.37L213.32,31.94L213.36,32.16L214.77,44.63L214.81,45.06L218.55,109.51L218.59,110.29L226.6,260.51L226.64,260.95L230.01,289.51L230.05,289.72L232.91,300.34L232.94,300.43L235.73,304.4L235.76,304.43L238.8,305.73L238.84,305.74L244.33,306.08L244.37,306.08L370.89,306.09" style="vector-effect: non-scaling-stroke; fill: none; stroke: rgb(163, 31, 52); stroke-opacity: 1; stroke-width: 2px; opacity: 1;"/></g><g class="points"/><g class="text"/></g><g class="trace scatter trace9e117b" style="stroke-miterlimit: 2; opacity: 1;"><g class="fills"/><g class="errorbars"/><g class="lines"><path class="js-line" d="M0,306.09L164.44,305.36L164.83,305.33L177.3,303.95L177.69,303.88L187.82,301.09L188.21,300.93L195.18,297.26L195.19,297.25L200.06,293.38L200.07,293.36L205.2,287.65L205.21,287.63L209.24,281.63L209.25,281.61L213.85,272.73L213.86,272.7L217.63,263.49L217.64,263.45L220.83,254.11L220.84,254.07L226.53,233.39L226.54,233.33L231.89,208.86L231.9,208.8L238.63,171.37L238.64,171.3L243,144.01L243.01,143.92L247.11,117.13L247.13,117.05L250.29,96.55L250.31,96.47L253.55,76.58L253.57,76.51L256.07,62.54L256.09,62.47L261.59,38.59L261.61,38.55L264.68,30.74L264.7,30.72L267.1,28.01L267.11,28.01L268.88,28.1L268.89,28.1L270.7,30.09L270.71,30.11L272.87,35.04L272.88,35.08L276.26,48.3L276.27,48.37L279.78,68.65L279.79,68.74L282.57,88.79L282.58,88.89L285.83,115.58L285.84,115.69L289.49,147.99L289.5,148.11L294.62,193.14L294.63,193.25L304.1,259.47L304.12,259.54L306.54,271.22L306.56,271.28L311.06,287.21L311.08,287.25L313.87,293.87L314.53,295.11L318.46,300.63L319.12,301.28L323.06,303.95L323.71,304.24L328.96,305.57L329.62,305.65L340.12,306.07L340.78,306.07L390.65,306.09L391.3,306.09L640,306.09" style="vector-effect: non-scaling-stroke; fill: none; stroke: rgb(172, 70, 76); stroke-opacity: 1; stroke-width: 2px; opacity: 1;"/></g><g class="points"/><g class="text"/></g><g class="trace scatter tracea364b3" style="stroke-miterlimit: 2; opacity: 1;"><g class="fills"/><g class="errorbars"/><g class="lines"><path class="js-line" d="M0,306.08L137.08,305.33L137.47,305.32L171.25,302.99L171.65,302.94L186.97,300.26L187.36,300.17L201.03,295.91L201.05,295.9L210.85,291.19L210.87,291.17L216.88,287.33L216.9,287.31L224.4,281.21L224.42,281.19L234.36,270.28L234.38,270.25L242.86,257.73L242.88,257.69L249.36,245.75L249.37,245.71L256.53,229.75L256.54,229.7L262.75,213.33L262.76,213.28L271.16,187.27L271.17,187.21L280.57,153.29L280.59,153.21L290.15,115.35L290.16,115.27L304.52,60.86L304.54,60.8L311.65,40.69L311.67,40.64L316.83,31.36L316.85,31.34L319.83,28.54L319.85,28.53L322.56,27.84L322.58,27.84L325.1,28.9L325.12,28.91L327.74,31.81L327.76,31.84L331.69,39.76L331.71,39.81L335.33,50.85L335.35,50.92L339.19,66.33L339.21,66.42L344.94,95.63L344.96,95.74L352.11,139.25L352.13,139.38L369.69,243.45L369.71,243.55L376.05,269.37L376.59,271.17L381.43,284.78L381.97,286.01L386.82,294.84L387.36,295.6L392.21,300.76L392.75,301.17L397.6,303.84L398.13,304.05L404.6,305.49L405.14,305.56L418.6,306.07L419.14,306.07L640,306.09" style="vector-effect: non-scaling-stroke; fill: none; stroke: rgb(180, 101, 102); stroke-opacity: 1; stroke-width: 2px; opacity: 1;"/></g><g class="points"/><g class="text"/></g><g class="trace scatter tracecd2e29" style="stroke-miterlimit: 2; opacity: 1;"><g class="fills"/><g class="errorbars"/><g class="lines"><path class="js-line" d="M0,305.9L72.27,305.15L72.63,305.14L126.02,302.99L126.38,302.97L159.8,299.55L160.16,299.5L185.42,294.6L185.45,294.59L201.04,289.93L201.06,289.92L209.6,286.64L209.62,286.62L218.69,282.42L218.72,282.4L230.03,275.92L230.05,275.9L241.3,267.79L241.33,267.76L247.74,262.27L247.76,262.24L255.52,254.61L255.54,254.58L263.3,245.76L263.32,245.72L271.77,234.58L271.8,234.54L279.9,222.23L279.93,222.18L290.27,203.97L290.29,203.92L304.94,173.14L304.96,173.08L321.71,131.54L321.73,131.46L327.57,115.93L327.6,115.85L333.07,101.19L333.09,101.11L339.18,85.01L339.2,84.94L356.21,45.84L356.24,45.79L362.16,36.27L362.19,36.23L367.84,30.21L367.87,30.19L371.75,28.15L371.77,28.14L375.46,27.98L375.49,27.98L379.09,29.65L379.12,29.67L382.54,33.02L382.57,33.06L386.93,39.94L386.95,39.99L392.09,51.91L392.12,51.99L395.22,61.12L395.24,61.21L398.93,73.91L398.96,74.01L408.84,116.23L408.86,116.36L414.52,144.2L414.54,144.33L423.51,189.75L423.53,189.88L437.38,250.65L437.81,252.2L443.86,271.27L444.29,272.43L449.47,284.47L449.91,285.31L455.09,293.67L455.52,294.23L460.71,299.55L461.14,299.89L466.76,303.15L467.19,303.33L473.67,305.09L474.1,305.16L483.17,305.92L483.61,305.94L521.62,306.09L522.06,306.09L640,306.09" style="vector-effect: non-scaling-stroke; fill: none; stroke: rgb(184, 129, 128); stroke-opacity: 1; stroke-width: 2px; opacity: 1;"/></g><g class="points"/><g class="text"/></g><g class="trace scatter trace56d5e0" style="stroke-miterlimit: 2; opacity: 1;"><g class="fills"/><g class="errorbars"/><g class="lines"><path class="js-line" d="M0,302.79L73.72,298.2L74.09,298.16L101.69,295.11L102.05,295.06L135.83,289.65L136.19,289.58L160.52,284.1L160.89,284L179.41,278.62L179.77,278.5L201.43,270.51L201.46,270.49L212.83,265.43L212.86,265.41L228.84,257.07L228.87,257.05L243.59,247.92L243.62,247.9L261.11,234.91L261.14,234.88L271.38,226.06L271.41,226.03L287.06,210.58L287.1,210.54L302.68,192.58L302.71,192.54L314.05,177.77L314.08,177.72L324,163.6L324.03,163.55L333.89,148.46L333.92,148.41L344.36,131.41L344.39,131.35L374.85,78.71L374.89,78.66L382.03,66.77L382.07,66.72L388.89,56.1L388.93,56.06L394.66,47.96L394.69,47.92L404,37.02L404.03,36.99L410.47,31.61L410.5,31.59L415.75,28.85L415.79,28.84L420.55,27.84L420.58,27.84L424.9,28.32L424.93,28.33L429.09,30.14L429.12,30.16L433.79,33.91L433.82,33.94L438.65,39.83L438.68,39.88L443.55,47.98L443.58,48.04L450.73,63.93L450.76,64.02L459.04,88.12L459.07,88.23L468.86,123.4L468.89,123.52L475,147.98L475.34,149.36L493.52,222.78L493.86,224.03L501.94,251.37L502.27,252.39L509.35,271.37L509.68,272.16L516.08,284.93L516.42,285.49L521.8,293.13L522.14,293.53L527.87,298.98L528.2,299.23L534.26,302.68L534.6,302.82L542.01,304.9L542.35,304.96L553.46,305.92L553.8,305.93L583.76,306.09L584.1,306.09L640,306.09" style="vector-effect: non-scaling-stroke; fill: none; stroke: rgb(186, 157, 156); stroke-opacity: 1; stroke-width: 2px; opacity: 1;"/></g><g class="points"/><g class="text"/></g><g class="trace scatter trace476bed" style="stroke-miterlimit: 2; opacity: 1;"><g class="fills"/><g class="errorbars"/><g class="lines"><path class="js-line" d="M0,276.04L44.31,267.93L44.67,267.85L71.91,261.8L72.27,261.71L95.51,255.78L95.88,255.69L131.11,245.14L131.47,245.02L162.34,233.96L162.7,233.82L189.58,222.57L189.61,222.55L202.15,216.73L202.19,216.71L234.3,199.9L234.33,199.88L249.2,191.1L249.24,191.07L281.38,169.66L281.42,169.63L293.48,160.69L293.52,160.66L309.56,147.97L309.59,147.94L328.22,132.09L328.25,132.05L348.85,113.22L348.88,113.18L376.62,86.28L376.65,86.24L405.37,58.58L405.41,58.55L419.77,46.17L419.81,46.14L428.66,39.54L428.7,39.51L440.36,32.61L440.4,32.6L449.69,29.07L449.73,29.06L457.09,27.87L457.13,27.87L463.76,28.24L463.8,28.25L470.03,30.04L470.07,30.06L476.66,33.68L476.7,33.71L482.39,38.4L482.42,38.44L488.29,44.93L488.33,44.98L495.4,55.18L495.43,55.24L502.76,68.66L502.8,68.73L512.99,92.21L513.25,92.88L522.62,119.07L522.88,119.85L536.68,164.14L536.94,165.01L557.5,231.99L557.76,232.76L566.87,257.47L567.13,258.11L574.67,274.5L574.93,274.99L581.7,286.18L581.96,286.55L588.21,294.02L588.47,294.28L594.97,299.51L595.23,299.67L602.26,303.03L602.52,303.12L609.81,304.89L610.07,304.93L621,305.87L621.26,305.88L640,306.08" style="vector-effect: non-scaling-stroke; fill: none; stroke: rgb(185, 185, 185); stroke-opacity: 1; stroke-width: 2px; opacity: 1;"/></g><g class="points"/><g class="text"/></g></g></g><g class="overplot"/><path class="xlines-above crisp" d="M75,422.5H725M75,97.5H725" style="fill: none; stroke-width: 5px; stroke: rgb(0, 0, 0); stroke-opacity: 1;"/><path class="ylines-above crisp" d="M77.5,100V420M722.5,100V420" style="fill: none; stroke-width: 5px; stroke: rgb(0, 0, 0); stroke-opacity: 1;"/><g class="overlines-above"/><g class="xaxislayer-above"><path class="xtick ticks crisp" d="M0,425v5" transform="translate(80,0)" style="stroke: rgb(68, 68, 68); stroke-opacity: 1; stroke-width: 4px;"/><path class="xtick ticks crisp" d="M0,425v5" transform="translate(112.11,0)" style="stroke: rgb(68, 68, 68); stroke-opacity: 1; stroke-width: 4px;"/><path class="xtick ticks crisp" d="M0,425v5" transform="translate(154.56,0)" style="stroke: rgb(68, 68, 68); stroke-opacity: 1; stroke-width: 4px;"/><path class="xtick ticks crisp" d="M0,425v5" transform="translate(186.67000000000002,0)" style="stroke: rgb(68, 68, 68); stroke-opacity: 1; stroke-width: 4px;"/><path class="xtick ticks crisp" d="M0,425v5" transform="translate(218.78,0)" style="stroke: rgb(68, 68, 68); stroke-opacity: 1; stroke-width: 4px;"/><path class="xtick ticks crisp" d="M0,425v5" transform="translate(261.22,0)" style="stroke: rgb(68, 68, 68); stroke-opacity: 1; stroke-width: 4px;"/><path class="xtick ticks crisp" d="M0,425v5" transform="translate(293.33000000000004,0)" style="stroke: rgb(68, 68, 68); stroke-opacity: 1; stroke-width: 4px;"/><path class="xtick ticks crisp" d="M0,425v5" transform="translate(325.44,0)" style="stroke: rgb(68, 68, 68); stroke-opacity: 1; stroke-width: 4px;"/><path class="xtick ticks crisp" d="M0,425v5" transform="translate(367.89,0)" style="stroke: rgb(68, 68, 68); stroke-opacity: 1; stroke-width: 4px;"/><path class="xtick ticks crisp" d="M0,425v5" transform="translate(400,0)" style="stroke: rgb(68, 68, 68); stroke-opacity: 1; stroke-width: 4px;"/><path class="xtick ticks crisp" d="M0,425v5" transform="translate(432.11,0)" style="stroke: rgb(68, 68, 68); stroke-opacity: 1; stroke-width: 4px;"/><path class="xtick ticks crisp" d="M0,425v5" transform="translate(474.56,0)" style="stroke: rgb(68, 68, 68); stroke-opacity: 1; stroke-width: 4px;"/><path class="xtick ticks crisp" d="M0,425v5" transform="translate(506.67,0)" style="stroke: rgb(68, 68, 68); stroke-opacity: 1; stroke-width: 4px;"/><path class="xtick ticks crisp" d="M0,425v5" transform="translate(538.78,0)" style="stroke: rgb(68, 68, 68); stroke-opacity: 1; stroke-width: 4px;"/><path class="xtick ticks crisp" d="M0,425v5" transform="translate(581.22,0)" style="stroke: rgb(68, 68, 68); stroke-opacity: 1; stroke-width: 4px;"/><path class="xtick ticks crisp" d="M0,425v5" transform="translate(613.33,0)" style="stroke: rgb(68, 68, 68); stroke-opacity: 1; stroke-width: 4px;"/><path class="xtick ticks crisp" d="M0,425v5" transform="translate(645.44,0)" style="stroke: rgb(68, 68, 68); stroke-opacity: 1; stroke-width: 4px;"/><path class="xtick ticks crisp" d="M0,425v5" transform="translate(687.89,0)" style="stroke: rgb(68, 68, 68); stroke-opacity: 1; stroke-width: 4px;"/><path class="xtick ticks crisp" d="M0,425v5" transform="translate(720,0)" style="stroke: rgb(68, 68, 68); stroke-opacity: 1; stroke-width: 4px;"/><g class="xtick"><text text-anchor="middle" x="0" y="451.6" transform="translate(80,0)" style="font-family: Arial; font-size: 18px; fill: rgb(0, 0, 0); fill-opacity: 1; white-space: pre; opacity: 1;"><tspan style="font-weight:bold">10</tspan></text></g><g class="xtick"><text text-anchor="middle" x="0" y="447.1" style="font-family: Arial; font-size: 13.5px; fill: rgb(0, 0, 0); fill-opacity: 1; white-space: pre; opacity: 1;" transform="translate(112.11,0)">2</text></g><g class="xtick"><text text-anchor="middle" x="0" y="447.1" style="font-family: Arial; font-size: 13.5px; fill: rgb(0, 0, 0); fill-opacity: 1; white-space: pre; opacity: 1;" transform="translate(154.56,0)">5</text></g><g class="xtick"><text text-anchor="middle" x="0" y="451.6" style="font-family: Arial; font-size: 18px; fill: rgb(0, 0, 0); fill-opacity: 1; white-space: pre; opacity: 1;" transform="translate(186.67000000000002,0)"><tspan style="font-weight:bold">100</tspan></text></g><g class="xtick"><text text-anchor="middle" x="0" y="447.1" style="font-family: Arial; font-size: 13.5px; fill: rgb(0, 0, 0); fill-opacity: 1; white-space: pre; opacity: 1;" transform="translate(218.78,0)">2</text></g><g class="xtick"><text text-anchor="middle" x="0" y="447.1" style="font-family: Arial; font-size: 13.5px; fill: rgb(0, 0, 0); fill-opacity: 1; white-space: pre; opacity: 1;" transform="translate(261.22,0)">5</text></g><g class="xtick"><text text-anchor="middle" x="0" y="451.6" style="font-family: Arial; font-size: 18px; fill: rgb(0, 0, 0); fill-opacity: 1; white-space: pre; opacity: 1;" transform="translate(293.33000000000004,0)"><tspan style="font-weight:bold">1000</tspan></text></g><g class="xtick"><text text-anchor="middle" x="0" y="447.1" style="font-family: Arial; font-size: 13.5px; fill: rgb(0, 0, 0); fill-opacity: 1; white-space: pre; opacity: 1;" transform="translate(325.44,0)">2</text></g><g class="xtick"><text text-anchor="middle" x="0" y="447.1" style="font-family: Arial; font-size: 13.5px; fill: rgb(0, 0, 0); fill-opacity: 1; white-space: pre; opacity: 1;" transform="translate(367.89,0)">5</text></g><g class="xtick"><text text-anchor="middle" x="0" y="451.6" style="font-family: Arial; font-size: 18px; fill: rgb(0, 0, 0); fill-opacity: 1; white-space: pre; opacity: 1;" transform="translate(400,0)"><tspan style="font-weight:bold">10k</tspan></text></g><g class="xtick"><text text-anchor="middle" x="0" y="447.1" style="font-family: Arial; font-size: 13.5px; fill: rgb(0, 0, 0); fill-opacity: 1; white-space: pre; opacity: 1;" transform="translate(432.11,0)">2</text></g><g class="xtick"><text text-anchor="middle" x="0" y="447.1" style="font-family: Arial; font-size: 13.5px; fill: rgb(0, 0, 0); fill-opacity: 1; white-space: pre; opacity: 1;" transform="translate(474.56,0)">5</text></g><g class="xtick"><text text-anchor="middle" x="0" y="451.6" style="font-family: Arial; font-size: 18px; fill: rgb(0, 0, 0); fill-opacity: 1; white-space: pre; opacity: 1;" transform="translate(506.67,0)"><tspan style="font-weight:bold">100k</tspan></text></g><g class="xtick"><text text-anchor="middle" x="0" y="447.1" style="font-family: Arial; font-size: 13.5px; fill: rgb(0, 0, 0); fill-opacity: 1; white-space: pre; opacity: 1;" transform="translate(538.78,0)">2</text></g><g class="xtick"><text text-anchor="middle" x="0" y="447.1" style="font-family: Arial; font-size: 13.5px; fill: rgb(0, 0, 0); fill-opacity: 1; white-space: pre; opacity: 1;" transform="translate(581.22,0)">5</text></g><g class="xtick"><text text-anchor="middle" x="0" y="451.6" style="font-family: Arial; font-size: 18px; fill: rgb(0, 0, 0); fill-opacity: 1; white-space: pre; opacity: 1;" transform="translate(613.33,0)"><tspan style="font-weight:bold">1M</tspan></text></g><g class="xtick"><text text-anchor="middle" x="0" y="447.1" style="font-family: Arial; font-size: 13.5px; fill: rgb(0, 0, 0); fill-opacity: 1; white-space: pre; opacity: 1;" transform="translate(645.44,0)">2</text></g><g class="xtick"><text text-anchor="middle" x="0" y="447.1" style="font-family: Arial; font-size: 13.5px; fill: rgb(0, 0, 0); fill-opacity: 1; white-space: pre; opacity: 1;" transform="translate(687.89,0)">5</text></g><g class="xtick"><text text-anchor="middle" x="0" y="451.6" style="font-family: Arial; font-size: 18px; fill: rgb(0, 0, 0); fill-opacity: 1; white-space: pre; opacity: 1;" transform="translate(720,0)"><tspan style="font-weight:bold">10M</tspan></text></g></g><g class="yaxislayer-above"><path class="ytick ticks crisp" d="M75,0h-5" transform="translate(0,406.09)" style="stroke: rgb(68, 68, 68); stroke-opacity: 1; stroke-width: 4px;"/><path class="ytick ticks crisp" d="M75,0h-5" transform="translate(0,350.43)" style="stroke: rgb(68, 68, 68); stroke-opacity: 1; stroke-width: 4px;"/><path class="ytick ticks crisp" d="M75,0h-5" transform="translate(0,294.78)" style="stroke: rgb(68, 68, 68); stroke-opacity: 1; stroke-width: 4px;"/><path class="ytick ticks crisp" d="M75,0h-5" transform="translate(0,239.13)" style="stroke: rgb(68, 68, 68); stroke-opacity: 1; stroke-width: 4px;"/><path class="ytick ticks crisp" d="M75,0h-5" transform="translate(0,183.48000000000002)" style="stroke: rgb(68, 68, 68); stroke-opacity: 1; stroke-width: 4px;"/><path class="ytick ticks crisp" d="M75,0h-5" transform="translate(0,127.83)" style="stroke: rgb(68, 68, 68); stroke-opacity: 1; stroke-width: 4px;"/><g class="ytick"><text text-anchor="end" x="66.4" y="6.3" transform="translate(0,406.09)" style="font-family: Arial; font-size: 18px; fill: rgb(0, 0, 0); fill-opacity: 1; white-space: pre; opacity: 1;"><tspan style="font-weight:bold">0</tspan></text></g><g class="ytick"><text text-anchor="end" x="66.4" y="6.3" style="font-family: Arial; font-size: 18px; fill: rgb(0, 0, 0); fill-opacity: 1; white-space: pre; opacity: 1;" transform="translate(0,350.43)"><tspan style="font-weight:bold">0.2</tspan></text></g><g class="ytick"><text text-anchor="end" x="66.4" y="6.3" style="font-family: Arial; font-size: 18px; fill: rgb(0, 0, 0); fill-opacity: 1; white-space: pre; opacity: 1;" transform="translate(0,294.78)"><tspan style="font-weight:bold">0.4</tspan></text></g><g class="ytick"><text text-anchor="end" x="66.4" y="6.3" style="font-family: Arial; font-size: 18px; fill: rgb(0, 0, 0); fill-opacity: 1; white-space: pre; opacity: 1;" transform="translate(0,239.13)"><tspan style="font-weight:bold">0.6</tspan></text></g><g class="ytick"><text text-anchor="end" x="66.4" y="6.3" style="font-family: Arial; font-size: 18px; fill: rgb(0, 0, 0); fill-opacity: 1; white-space: pre; opacity: 1;" transform="translate(0,183.48000000000002)"><tspan style="font-weight:bold">0.8</tspan></text></g><g class="ytick"><text text-anchor="end" x="66.4" y="6.3" style="font-family: Arial; font-size: 18px; fill: rgb(0, 0, 0); fill-opacity: 1; white-space: pre; opacity: 1;" transform="translate(0,127.83)"><tspan style="font-weight:bold">1</tspan></text></g></g><g class="overaxes-above"/></g></g><g class="polarlayer"/><g class="smithlayer"/><g class="ternarylayer"/><g class="geolayer"/><g class="funnelarealayer"/><g class="pielayer"/><g class="iciclelayer"/><g class="treemaplayer"/><g class="sunburstlayer"/><g class="glimages"/><defs id="topdefs-d9c1e3"><g class="clips"/><clipPath id="legendd9c1e3"><rect width="176" height="124" x="0" y="0"/></clipPath></defs><g class="layer-above"><g class="imagelayer"/><g class="shapelayer"/></g><g class="infolayer"><g class="legend" pointer-events="all" transform="translate(92.8,116.00000000000001)"><rect class="bg" shape-rendering="crispEdges" style="stroke: rgb(68, 68, 68); stroke-opacity: 1; fill: rgb(255, 255, 255); fill-opacity: 1; stroke-width: 0px;" width="176" height="124" x="0" y="0"/><g class="scrollbox" transform="" clip-path="url(#legendd9c1e3)"><g class="groups"><g class="traces" transform="translate(0,14.5)" style="opacity: 1;"><text class="legendtext" text-anchor="start" x="40" y="3.9" style="font-family: Arial; font-size: 10px; fill: rgb(0, 0, 0); fill-opacity: 1; white-space: pre;">|schulz_zimm(1000,1.03)|</text><g class="layers" style="opacity: 1;"><g class="legendfill"/><g class="legendlines"><path class="js-line" d="M5,0h30" style="fill: none; stroke: rgb(163, 31, 52); stroke-opacity: 1; stroke-width: 2px;"/></g><g class="legendsymbols"><g class="legendpoints"/></g></g><rect class="legendtoggle" x="0" y="-9.5" width="170.828125" height="19" style="fill: rgb(0, 0, 0); fill-opacity: 0;"/></g><g class="traces" transform="translate(0,33.5)" style="opacity: 1;"><text class="legendtext" text-anchor="start" x="40" y="3.9" style="font-family: Arial; font-size: 10px; fill: rgb(0, 0, 0); fill-opacity: 1; white-space: pre;">|schulz_zimm(3981,1.18)|</text><g class="layers" style="opacity: 1;"><g class="legendfill"/><g class="legendlines"><path class="js-line" d="M5,0h30" style="fill: none; stroke: rgb(172, 70, 76); stroke-opacity: 1; stroke-width: 2px;"/></g><g class="legendsymbols"><g class="legendpoints"/></g></g><rect class="legendtoggle" x="0" y="-9.5" width="170.828125" height="19" style="fill: rgb(0, 0, 0); fill-opacity: 0;"/></g><g class="traces" transform="translate(0,52.5)" style="opacity: 1;"><text class="legendtext" text-anchor="start" x="40" y="3.9" style="font-family: Arial; font-size: 10px; fill: rgb(0, 0, 0); fill-opacity: 1; white-space: pre;">|schulz_zimm(15849,1.34)|</text><g class="layers" style="opacity: 1;"><g class="legendfill"/><g class="legendlines"><path class="js-line" d="M5,0h30" style="fill: none; stroke: rgb(180, 101, 102); stroke-opacity: 1; stroke-width: 2px;"/></g><g class="legendsymbols"><g class="legendpoints"/></g></g><rect class="legendtoggle" x="0" y="-9.5" width="170.828125" height="19" style="fill: rgb(0, 0, 0); fill-opacity: 0;"/></g><g class="traces" transform="translate(0,71.5)" style="opacity: 1;"><text class="legendtext" text-anchor="start" x="40" y="3.9" style="font-family: Arial; font-size: 10px; fill: rgb(0, 0, 0); fill-opacity: 1; white-space: pre;">|schulz_zimm(63096,1.49)|</text><g class="layers" style="opacity: 1;"><g class="legendfill"/><g class="legendlines"><path class="js-line" d="M5,0h30" style="fill: none; stroke: rgb(184, 129, 128); stroke-opacity: 1; stroke-width: 2px;"/></g><g class="legendsymbols"><g class="legendpoints"/></g></g><rect class="legendtoggle" x="0" y="-9.5" width="170.828125" height="19" style="fill: rgb(0, 0, 0); fill-opacity: 0;"/></g><g class="traces" transform="translate(0,90.5)" style="opacity: 1;"><text class="legendtext" text-anchor="start" x="40" y="3.9" style="font-family: Arial; font-size: 10px; fill: rgb(0, 0, 0); fill-opacity: 1; white-space: pre;">|schulz_zimm(251189,1.65)|</text><g class="layers" style="opacity: 1;"><g class="legendfill"/><g class="legendlines"><path class="js-line" d="M5,0h30" style="fill: none; stroke: rgb(186, 157, 156); stroke-opacity: 1; stroke-width: 2px;"/></g><g class="legendsymbols"><g class="legendpoints"/></g></g><rect class="legendtoggle" x="0" y="-9.5" width="170.828125" height="19" style="fill: rgb(0, 0, 0); fill-opacity: 0;"/></g><g class="traces" transform="translate(0,109.5)" style="opacity: 1;"><text class="legendtext" text-anchor="start" x="40" y="3.9" style="font-family: Arial; font-size: 10px; fill: rgb(0, 0, 0); fill-opacity: 1; white-space: pre;">|schulz_zimm(1000000,1.80)|</text><g class="layers" style="opacity: 1;"><g class="legendfill"/><g class="legendlines"><path class="js-line" d="M5,0h30" style="fill: none; stroke: rgb(185, 185, 185); stroke-opacity: 1; stroke-width: 2px;"/></g><g class="legendsymbols"><g class="legendpoints"/></g></g><rect class="legendtoggle" x="0" y="-9.5" width="170.828125" height="19" style="fill: rgb(0, 0, 0); fill-opacity: 0;"/></g></g></g><rect class="scrollbar" rx="20" ry="3" width="0" height="0" style="fill: rgb(128, 139, 164); fill-opacity: 1;" x="0" y="0"/></g><g class="g-gtitle"/><g class="g-xtitle"><text class="xtitle" x="400" y="483.509375" text-anchor="middle" style="font-family: Arial; font-size: 22px; fill: rgb(0, 0, 0); opacity: 1; font-weight: normal; white-space: pre;"><tspan style="font-weight:bold">molecular weight (g/mol)</tspan></text></g><g class="g-ytitle" transform="translate(6.525390625,0)"><text class="ytitle" transform="rotate(-90,13.474999999999994,260)" x="13.474999999999994" y="260" text-anchor="middle" style="font-family: Arial; font-size: 22px; fill: rgb(0, 0, 0); opacity: 1; font-weight: normal; white-space: pre;"><tspan style="font-weight:bold">normalized mole fraction</tspan></text></g></g></svg>