<svg class="main-svg" xmlns="http://www.w3.org/2000/svg" xmlns:xlink="http://www.w3.org/1999/xlink" width="800" height="500" style="" viewBox="0 0 800 500"><rect x="0" y="0" width="800" height="500" style="fill: rgb(255, 255, 255); fill-opacity: 1;"/><defs id="defs-f14626"><g class="clips"><clipPath id="clipf14626xyplot" class="plotclip"><rect width="640" height="320"/></clipPath><clipPath class="axesclip" id="clipf14626x"><rect x="80" y="0" width="640" height="500"/></clipPath><clipPath class="axesclip" id="clipf14626y"><rect x="0" y="100" width="800" height="320"/></clipPath><clipPath class="axesclip" id="clipf14626xy"><rect x="80" y="100" width="640" height="320"/></clipPath></g><g class="gradients"/><g class="patterns"/></defs><g class="bglayer"/><g class="layer-below"><g class="imagelayer"/><g class="shapelayer"/></g><g class="cartesianlayer"><g class="subplot xy"><g class="layer-subplot"><g class="shapelayer"/><g class="imagelayer"/></g><g class="minor-gridlayer"><g class="x"/><g class="y"/></g><g class="gridlayer"><g class="x"/><g class="y"/></g><g class="zerolinelayer"><path class="yzl zl crisp" transform="translate(0,404)" d="M80,0h640" style="stroke: rgb(255, 255, 255); stroke-opacity: 1; stroke-width: 2px;"/></g><path class="xlines-below"/><path class="ylines-below"/><g class="overlines-below"/><g class="xaxislayer-below"/><g class="yaxislayer-below"/><g class="overaxes-below"/><g class="plot" transform="translate(80,100)" clip-path="url(#clipf14626xyplot)"><g class="scatterlayer mlayer"><g class="trace scatter tracefb6f61" style="stroke-miterlimit: 2; opacity: 1;"><g class="fills"/><g class="errorbars"/><g class="lines"><path class="js-line" d="M0,304L182.44,303.29L182.81,303.19L186.21,301.49L186.59,301.17L188.48,298.95L189.27,297.63L191.89,290.75L191.89,290.73L193.91,281.76L193.91,281.73L196.34,264.74L196.34,264.69L198.7,239.83L198.7,239.76L204.04,150.34L204.04,150.23L205.03,130.2L205.03,130.08L205.99,110.5L205.99,110.38L207.12,87.88L207.12,87.77L209.94,40.06L209.95,39.98L212.05,19.61L212.06,19.58L213.38,16L213.47,16.04L213.48,16.05L214.21,17.73L214.22,17.75L215.5,26.43L215.5,26.49L216.9,43.71L216.9,43.8L220.88,123.46L220.88,123.6L225.23,217.31L225.24,217.42L227.95,258.7L227.96,258.77L231.5,288.69L231.51,288.72L234.21,298.49L234.22,298.5L236.53,302.01L236.54,302.01L239.02,303.43L239.02,303.43L239.03,303.43L243.8,303.97L244.6,303.98L304.94,304L305.73,304L640,304" style="vector-effect: non-scaling-stroke; fill: none; stroke: rgb(163, 31, 52); stroke-opacity: 1; stroke-width: 2px; opacity: 1;"/></g><g class="points"/><g class="text"/></g><g class="trace scatter trace0f585e" style="stroke-miterlimit: 2; opacity: 1;"><g class="fills"/><g class="errorbars"/><g class="lines"><path class="js-line" d="M0,304L186.58,303.27L186.97,303.24L198.92,301.55L198.93,301.54L205.39,299.49L205.4,299.48L211.8,295.93L211.81,295.92L216.67,291.65L216.68,291.63L220.94,286.31L220.96,286.28L225.16,279.11L225.17,279.08L228.46,271.82L228.47,271.78L232.52,260.43L232.53,260.39L237.48,242.26L237.49,242.2L240.55,228.4L240.56,228.33L248.25,184.34L248.26,184.24L254.69,138.74L254.7,138.63L268.42,41.94L268.44,41.86L273.05,22.4L273.07,22.36L275.99,16.65L276.01,16.63L277.8,16.08L277.82,16.09L279.35,17.5L279.36,17.52L281.16,21.43L281.17,21.47L283.58,30.51L283.59,30.58L285.79,42.44L285.8,42.53L288.83,63.94L288.84,64.05L293.42,104.87L293.43,105.01L308.37,242.57L308.39,242.67L313.44,271.37L313.45,271.43L316.69,283.82L316.71,283.86L319.37,291.04L319.39,291.07L322.91,297.27L323.35,297.82L327.15,301.25L327.79,301.62L332.23,303.21L332.87,303.34L341.12,303.95L341.75,303.96L391.25,304L391.88,304L640,304" style="vector-effect: non-scaling-stroke; fill: none; stroke: rgb(172, 70, 76); stroke-opacity: 1; stroke-width: 2px; opacity: 1;"/></g><g class="points"/><g class="text"/></g><g class="trace scatter trace74f145" style="stroke-miterlimit: 2; opacity: 1;"><g class="fills"/><g class="errorbars"/><g class="lines"><path class="js-line" d="M0,304L204.33,303.25L204.35,303.24L215.92,302.49L215.95,302.48L227.87,300.94L227.89,300.93L239.58,297.99L239.6,297.98L247.85,294.44L247.87,294.43L256.5,288.67L256.52,288.65L262.28,283.19L262.3,283.16L268.58,275.21L268.6,275.18L274.51,265.34L274.53,265.3L279.4,255.13L279.42,255.08L284.09,243.3L284.11,243.24L288.94,228.77L288.96,228.7L300.82,182.46L300.84,182.36L305.09,162.29L305.11,162.18L310,137.31L310.02,137.19L314.98,110.86L315,110.74L330.42,37.07L330.45,36.99L333.94,26.11L333.96,26.05L337.99,18.16L338.01,18.13L340.53,16.13L340.56,16.12L342.61,16.33L342.64,16.34L344.87,18.54L344.89,18.57L347.37,23.46L347.39,23.52L350.29,32.52L350.31,32.6L353.28,45.33L353.3,45.44L356.09,60.39L356.11,60.52L359.08,79.16L359.1,79.31L380.49,235.1L380.52,235.23L385.01,258.58L385.03,258.68L388.81,273.78L388.83,273.85L394.59,289.39L395.09,290.37L399.08,296.48L399.58,297.05L403.57,300.48L404.07,300.79L409.06,302.8L409.56,302.92L417.04,303.82L417.54,303.84L439.98,304L440.48,304L640,304" style="vector-effect: non-scaling-stroke; fill: none; stroke: rgb(180, 101, 102); stroke-opacity: 1; stroke-width: 2px; opacity: 1;"/></g><g class="points"/><g class="text"/></g><g class="trace scatter trace3b98c9" style="stroke-miterlimit: 2; opacity: 1;"><g class="fills"/><g class="errorbars"/><g class="lines"><path class="js-line" d="M0,304L224.44,303.25L224.47,303.24L240.72,302.49L240.75,302.48L261.47,300.36L261.5,300.35L273.43,298.01L273.46,298L286.49,293.78L286.52,293.76L295.22,289.48L295.25,289.46L304.59,283L304.62,282.98L312.87,275.14L312.9,275.11L319.99,266.33L320.02,266.29L328.39,252.92L328.42,252.87L337,235.12L337.03,235.05L344.64,215.4L344.67,215.31L352.64,190.49L352.67,190.39L363.96,148.27L363.99,148.14L379.05,84.82L379.08,84.69L388.82,47.3L388.85,47.2L394.18,31.27L394.21,31.19L398.99,21.21L399.02,21.16L402.21,17.3L402.24,17.27L405.16,16L405.19,16L407.66,16.75L407.69,16.77L410.21,19.35L410.24,19.39L412.8,23.92L412.83,23.99L416.12,32.67L416.15,32.76L420.47,48.91L420.5,49.04L425.7,74.89L425.73,75.06L433.74,124.67L433.77,124.87L449.89,227.9L449.93,228.07L456.37,258.49L456.74,259.96L461.91,277.3L462.27,278.32L467.07,289.14L467.44,289.8L471.49,295.66L471.86,296.08L476.29,299.92L476.65,300.15L481.82,302.42L482.19,302.53L489.93,303.7L490.3,303.73L509.1,304L509.47,304L640,304" style="vector-effect: non-scaling-stroke; fill: none; stroke: rgb(184, 129, 128); stroke-opacity: 1; stroke-width: 2px; opacity: 1;"/></g><g class="points"/><g class="text"/></g><g class="trace scatter tracefb8942" style="stroke-miterlimit: 2; opacity: 1;"><g class="fills"/><g class="errorbars"/><g class="lines"><path class="js-line" d="M0,304L245.47,303.25L245.51,303.24L266.54,302.49L266.58,302.48L278.86,301.73L278.9,301.72L298.66,299.66L298.7,299.65L313.98,296.86L314.02,296.85L324.5,293.99L324.54,293.98L337.54,288.87L337.57,288.85L347.19,283.54L347.23,283.51L354.97,278L355,277.97L362.1,271.71L362.14,271.67L371.61,261.16L371.64,261.11L377.58,253.03L377.62,252.97L385.47,240.23L385.5,240.17L393.02,225.53L393.05,225.45L399.33,211.24L399.36,211.15L407.48,189.94L407.52,189.84L426.37,129.32L426.41,129.18L443.5,68.57L443.54,68.45L449.06,50.8L449.1,50.69L454.92,34.86L454.96,34.77L459.39,25.42L459.43,25.35L463.67,19.18L463.71,19.14L467.16,16.48L467.2,16.46L470.17,16.07L470.21,16.08L472.95,17.39L472.99,17.42L475.95,20.74L475.99,20.79L479.79,27.99L479.82,28.08L483.47,38.13L483.5,38.25L487.45,52.47L487.49,52.62L492.37,74.6L492.41,74.78L496.99,99.01L497.03,99.22L501.53,125.44L501.57,125.67L508.9,170.17L508.93,170.39L521.13,236.9L521.37,238L527.62,263.09L527.86,263.91L533.38,279.9L533.62,280.47L538.66,290.35L538.9,290.73L543.94,296.94L544.18,297.16L548.99,300.57L549.23,300.69L554.03,302.5L554.27,302.56L561.71,303.66L561.95,303.68L587.65,304L587.89,304L640,304" style="vector-effect: non-scaling-stroke; fill: none; stroke: rgb(186, 157, 156); stroke-opacity: 1; stroke-width: 2px; opacity: 1;"/></g><g class="points"/><g class="text"/></g><g class="trace scatter trace8e5914" style="stroke-miterlimit: 2; opacity: 1;"><g class="fills"/><g class="errorbars"/><g class="lines"><path class="js-line" d="M0,304L266.85,303.25L266.9,303.24L292.77,302.49L292.81,302.48L307.96,301.73L308,301.72L332.49,299.62L332.53,299.61L351.3,296.78L351.34,296.77L364.12,293.88L364.16,293.87L379.67,288.8L379.71,288.78L391.24,283.5L391.29,283.47L402.28,276.81L402.32,276.78L412.46,268.86L412.51,268.82L424.04,257.21L424.08,257.16L433.64,245L433.69,244.93L444.59,227.73L444.63,227.65L451.56,214.66L451.6,214.57L461.21,193.69L461.25,193.58L471.04,168.87L471.08,168.75L486.23,124.58L486.27,124.44L510.98,49.76L511.03,49.64L519.16,30.86L519.2,30.78L524.12,22.6L524.16,22.54L528.67,17.76L528.72,17.72L532.38,16.08L532.43,16.07L535.33,16.34L535.38,16.36L538.37,18.2L538.41,18.24L541.5,21.87L541.54,21.94L545.12,28.42L545.16,28.52L549.18,38.74L549.23,38.87L554.72,57.69L554.77,57.86L563.75,98.9L563.79,99.13L568.53,124.45L568.57,124.69L574.83,159.8L574.87,160.05L583.81,208.55L583.85,208.78L595.84,260.13L595.95,260.51L601.54,276.78L601.65,277.06L606.68,287.51L606.8,287.7L611.49,294.35L611.6,294.48L615.96,298.51L616.08,298.59L621.22,301.41L621.33,301.46L628.26,303.2L628.37,303.22L639.55,303.93L639.66,303.93L640,303.93" style="vector-effect: non-scaling-stroke; fill: none; stroke: rgb(185, 185, 185); stroke-opacity: 1; stroke-width: 2px; opacity: 1;"/></g><g class="points"/><g class="text"/></g></g></g><g class="overplot"/><path class="xlines-above crisp" d="M75,422.5H725M75,97.5H725" style="fill: none; stroke-width: 5px; stroke: rgb(0, 0, 0); stroke-opacity: 1;"/><path class="ylines-above crisp" d="M77.5,100V420M722.5,100V420" style="fill: none; stroke-width: 5px; stroke: rgb(0, 0, 0); stroke-opacity: 1;"/><g class="overlines-above"/><g class="xaxislayer-above"><path class="xtick ticks crisp" d="M0,425v5" transform="translate(80,0)" style="stroke: rgb(68, 68, 68); stroke-opacity: 1; stroke-width: 4px;"/><path class="xtick ticks crisp" d="M0,425v5" transform="translate(112.11,0)" style="stroke: rgb(68, 68, 68); stroke-opacity: 1; stroke-width: 4px;"/><path class="xtick ticks crisp" d="M0,425v5" transform="translate(154.56,0)" style="stroke: rgb(68, 68, 68); stroke-opacity: 1; stroke-width: 4px;"/><path class="xtick ticks crisp" d="M0,425v5" transform="translate(186.67000000000002,0)" style="stroke: rgb(68, 68, 68); stroke-opacity: 1; stroke-width: 4px;"/><path class="xtick ticks crisp" d="M0,425v5" transform="translate(218.78,0)" style="stroke: rgb(68, 68, 68); stroke-opacity: 1; stroke-width: 4px;"/><path class="xtick ticks crisp" d="M0,425v5" transform="translate(261.22,0)" style="stroke: rgb(68, 68, 68); stroke-opacity: 1; stroke-width: 4px;"/><path class="xtick ticks crisp" d="M0,425v5" transform="translate(293.33000000000004,0)" style="stroke: rgb(68, 68, 68); stroke-opacity: 1; stroke-width: 4px;"/><path class="xtick ticks crisp" d="M0,425v5" transform="translate(325.44,0)" style="stroke: rgb(68, 68, 68); stroke-opacity: 1; stroke-width: 4px;"/><path class="xtick ticks crisp" d="M0,425v5" transform="translate(367.89,0)" style="stroke: rgb(68, 68, 68); stroke-opacity: 1; stroke-width: 4px;"/><path class="xtick ticks crisp" d="M0,425v5" transform="translate(400,0)" style="stroke: rgb(68, 68, 68); stroke-opacity: 1; stroke-width: 4px;"/><path class="xtick ticks crisp" d="M0,425v5" transform="translate(432.11,0)" style="stroke: rgb(68, 68, 68); stroke-opacity: 1; stroke-width: 4px;"/><path class="xtick ticks crisp" d="M0,425v5" transform="translate(474.56,0)" style="stroke: rgb(68, 68, 68); stroke-opacity: 1; stroke-width: 4px;"/><path class="xtick ticks crisp" d="M0,425v5" transform="translate(506.67,0)" style="stroke: rgb(68, 68, 68); stroke-opacity: 1; stroke-width: 4px;"/><path class="xtick ticks crisp" d="M0,425v5" transform="translate(538.78,0)" style="stroke: rgb(68, 68, 68); stroke-opacity: 1; stroke-width: 4px;"/><path class="xtick ticks crisp" d="M0,425v5" transform="translate(581.22,0)" style="stroke: rgb(68, 68, 68); stroke-opacity: 1; stroke-width: 4px;"/><path class="xtick ticks crisp" d="M0,425v5" transform="translate(613.33,0)" style="stroke: rgb(68, 68, 68); stroke-opacity: 1; stroke-width: 4px;"/><path class="xtick ticks crisp" d="M0,425v5" transform="translate(645.44,0)" style="stroke: rgb(68, 68, 68); stroke-opacity: 1; stroke-width: 4px;"/><path class="xtick ticks crisp" d="M0,425v5" transform="translate(687.89,0)" style="stroke: rgb(68, 68, 68); stroke-opacity: 1; stroke-width: 4px;"/><path class="xtick ticks crisp" d="M0,425v5" transform="translate(720,0)" style="stroke: rgb(68, 68, 68); stroke-opacity: 1; stroke-width: 4px;"/><g class="xtick"><text text-anchor="middle" x="0" y="451.6" transform="translate(80,0)" style="font-family: Arial; font-size: 18px; fill: rgb(0, 0, 0); fill-opacity: 1; white-space: pre; opacity: 1;"><tspan style="font-weight:bold">10</tspan></text></g><g class="xtick"><text text-anchor="middle" x="0" y="447.1" style="font-family: Arial; font-size: 13.5px; fill: rgb(0, 0, 0); fill-opacity: 1; white-space: pre; opacity: 1;" transform="translate(112.11,0)">2</text></g><g class="xtick"><text text-anchor="middle" x="0" y="447.1" style="font-family: Arial; font-size: 13.5px; fill: rgb(0, 0, 0); fill-opacity: 1; white-space: pre; opacity: 1;" transform="translate(154.56,0)">5</text></g><g class="xtick"><text text-anchor="middle" x="0" y="451.6" style="font-family: Arial; font-size: 18px; fill: rgb(0, 0, 0); fill-opacity: 1; white-space: pre; opacity: 1;" transform="translate(186.67000000000002,0)"><tspan style="font-weight:bold">100</tspan></text></g><g class="xtick"><text text-anchor="middle" x="0" y="447.1" style="font-family: Arial; font-size: 13.5px; fill: rgb(0, 0, 0); fill-opacity: 1; white-space: pre; opacity: 1;" transform="translate(218.78,0)">2</text></g><g class="xtick"><text text-anchor="middle" x="0" y="447.1" style="font-family: Arial; font-size: 13.5px; fill: rgb(0, 0, 0); fill-opacity: 1; white-space: pre; opacity: 1;" transform="translate(261.22,0)">5</text></g><g class="xtick"><text text-anchor="middle" x="0" y="451.6" style="font-family: Arial; font-size: 18px; fill: rgb(0, 0, 0); fill-opacity: 1; white-space: pre; opacity: 1;" transform="translate(293.33000000000004,0)"><tspan style="font-weight:bold">1000</tspan></text></g><g class="xtick"><text text-anchor="middle" x="0" y="447.1" style="font-family: Arial; font-size: 13.5px; fill: rgb(0, 0, 0); fill-opacity: 1; white-space: pre; opacity: 1;" transform="translate(325.44,0)">2</text></g><g class="xtick"><text text-anchor="middle" x="0" y="447.1" style="font-family: Arial; font-size: 13.5px; fill: rgb(0, 0, 0); fill-opacity: 1; white-space: pre; opacity: 1;" transform="translate(367.89,0)">5</text></g><g class="xtick"><text text-anchor="middle" x="0" y="451.6" style="font-family: Arial; font-size: 18px; fill: rgb(0, 0, 0); fill-opacity: 1; white-space: pre; opacity: 1;" transform="translate(400,0)"><tspan style="font-weight:bold">10k</tspan></text></g><g class="xtick"><text text-anchor="middle" x="0" y="447.1" style="font-family: Arial; font-size: 13.5px; fill: rgb(0, 0, 0); fill-opacity: 1; white-space: pre; opacity: 1;" transform="translate(432.11,0)">2</text></g><g class="xtick"><text text-anchor="middle" x="0" y="447.1" style="font-family: Arial; font-size: 13.5px; fill: rgb(0, 0, 0); fill-opacity: 1; white-space: pre; opacity: 1;" transform="translate(474.56,0)">5</text></g><g class="xtick"><text text-anchor="middle" x="0" y="451.6" style="font-family: Arial; font-size: 18px; fill: rgb(0, 0, 0); fill-opacity: 1; white-space: pre; opacity: 1;" transform="translate(506.67,0)"><tspan style="font-weight:bold">100k</tspan></text></g><g class="xtick"><text text-anchor="middle" x="0" y="447.1" style="font-family: Arial; font-size: 13.5px; fill: rgb(0, 0, 0); fill-opacity: 1; white-space: pre; opacity: 1;" transform="translate(538.78,0)">2</text></g><g class="xtick"><text text-anchor="middle" x="0" y="447.1" style="font-family: Arial; font-size: 13.5px; fill: rgb(0, 0, 0); fill-opacity: 1; white-space: pre; opacity: 1;" transform="translate(581.22,0)">5</text></g><g class="xtick"><text text-anchor="middle" x="0" y="451.6" style="font-family: Arial; font-size: 18px; fill: rgb(0, 0, 0); fill-opacity: 1; white-space: pre; opacity: 1;" transform="translate(613.33,0)"><tspan style="font-weight:bold">1M</tspan></text></g><g class="xtick"><text text-anchor="middle" x="0" y="447.1" style="font-family: Arial; font-size: 13.5px; fill: rgb(0, 0, 0); fill-opacity: 1; white-space: pre; opacity: 1;" transform="translate(645.44,0)">2</text></g><g class="xtick"><text text-anchor="middle" x="0" y="447.1" style="font-family: Arial; font-size: 13.5px; fill: rgb(0, 0, 0); fill-opacity: 1; white-space: pre; opacity: 1;" transform="translate(687.89,0)">5</text></g><g class="xtick"><text text-anchor="middle" x="0" y="451.6" style="font-family: Arial; font-size: 18px; fill: rgb(0, 0, 0); fill-opacity: 1; white-space: pre; opacity: 1;" transform="translate(720,0)"><tspan style="font-weight:bold">10M</tspan></text></g></g><g class="yaxislayer-above"><path class="ytick ticks crisp" d="M75,0h-5" transform="translate(0,404)" style="stroke: rgb(68, 68, 68); stroke-opacity: 1; stroke-width: 4px;"/><path class="ytick ticks crisp" d="M75,0h-5" transform="translate(0,346.4)" style="stroke: rgb(68, 68, 68); stroke-opacity: 1; stroke-width: 4px;"/><path class="ytick ticks crisp" d="M75,0h-5" transform="translate(0,288.8)" style="stroke: rgb(68, 68, 68); stroke-opacity: 1; stroke-width: 4px;"/><path class="ytick ticks crisp" d="M75,0h-5" transform="translate(0,231.2)" style="stroke: rgb(68, 68, 68); stroke-opacity: 1; stroke-width: 4px;"/><path class="ytick ticks crisp" d="M75,0h-5" transform="translate(0,173.6)" style="stroke: rgb(68, 68, 68); stroke-opacity: 1; stroke-width: 4px;"/><path class="ytick ticks crisp" d="M75,0h-5" transform="translate(0,116)" style="stroke: rgb(68, 68, 68); stroke-opacity: 1; stroke-width: 4px;"/><g class="ytick"><text text-anchor="end" x="66.4" y="6.3" transform="translate(0,404)" style="font-family: Arial; font-size: 18px; fill: rgb(0, 0, 0); fill-opacity: 1; white-space: pre; opacity: 1;"><tspan style="font-weight:bold">0</tspan></text></g><g class="ytick"><text text-anchor="end" x="66.4" y="6.3" style="font-family: Arial; font-size: 18px; fill: rgb(0, 0, 0); fill-opacity: 1; white-space: pre; opacity: 1;" transform="translate(0,346.4)"><tspan style="font-weight:bold">0.2</tspan></text></g><g class="ytick"><text text-anchor="end" x="66.4" y="6.3" style="font-family: Arial; font-size: 18px; fill: rgb(0, 0, 0); fill-opacity: 1; white-space: pre; opacity: 1;" transform="translate(0,288.8)"><tspan style="font-weight:bold">0.4</tspan></text></g><g class="ytick"><text text-anchor="end" x="66.4" y="6.3" style="font-family: Arial; font-size: 18px; fill: rgb(0, 0, 0); fill-opacity: 1; white-space: pre; opacity: 1;" transform="translate(0,231.2)"><tspan style="font-weight:bold">0.6</tspan></text></g><g class="ytick"><text text-anchor="end" x="66.4" y="6.3" style="font-family: Arial; font-size: 18px; fill: rgb(0, 0, 0); fill-opacity: 1; white-space: pre; opacity: 1;" transform="translate(0,173.6)"><tspan style="font-weight:bold">0.8</tspan></text></g><g class="ytick"><text text-anchor="end" x="66.4" y="6.3" style="font-family: Arial; font-size: 18px; fill: rgb(0, 0, 0); fill-opacity: 1; white-space: pre; opacity: 1;" transform="translate(0,116)"><tspan style="font-weight:bold">1</tspan></text></g></g><g class="overaxes-above"/></g></g><g class="polarlayer"/><g class="smithlayer"/><g class="ternarylayer"/><g class="geolayer"/><g class="funnelarealayer"/><g class="pielayer"/><g class="iciclelayer"/><g class="treemaplayer"/><g class="sunburstlayer"/><g class="glimages"/><defs id="topdefs-f14626"><g class="clips"/><clipPath id="legendf14626"><rect width="172" height="124" x="0" y="0"/></clipPath></defs><g class="layer-above"><g class="imagelayer"/><g class="shapelayer"/></g><g class="infolayer"><g class="legend" pointer-events="all" transform="translate(92.8,116.00000000000001)"><rect class="bg" shape-rendering="crispEdges" style="stroke: rgb(68, 68, 68); stroke-opacity: 1; fill: rgb(255, 255, 255); fill-opacity: 1; stroke-width: 0px;" width="172" height="124" x="0" y="0"/><g class="scrollbox" transform="" clip-path="url(#legendf14626)"><g class="groups"><g class="traces" transform="translate(0,14.5)" style="opacity: 1;"><text class="legendtext" text-anchor="start" x="40" y="3.9" style="font-family: Arial; font-size: 10px; fill: rgb(0, 0, 0); fill-opacity: 1; white-space: pre;">schulz_zimm(1000,1.03)</text><g class="layers" style="opacity: 1;"><g class="legendfill"/><g class="legendlines"><path class="js-line" d="M5,0h30" style="fill: none; stroke: rgb(163, 31, 52); stroke-opacity: 1; stroke-width: 2px;"/></g><g class="legendsymbols"><g class="legendpoints"/></g></g><rect class="legendtoggle" x="0" y="-9.5" width="166.296875" height="19" style="fill: rgb(0, 0, 0); fill-opacity: 0;"/></g><g class="traces" transform="translate(0,33.5)" style="opacity: 1;"><text class="legendtext" text-anchor="start" x="40" y="3.9" style="font-family: Arial; font-size: 10px; fill: rgb(0, 0, 0); fill-opacity: 1; white-space: pre;">schulz_zimm(3981,1.18)</text><g class="layers" style="opacity: 1;"><g class="legendfill"/><g class="legendlines"><path class="js-line" d="M5,0h30" style="fill: none; stroke: rgb(172, 70, 76); stroke-opacity: 1; stroke-width: 2px;"/></g><g class="legendsymbols"><g class="legendpoints"/></g></g><rect class="legendtoggle" x="0" y="-9.5" width="166.296875" height="19" style="fill: rgb(0, 0, 0); fill-opacity: 0;"/></g><g class="traces" transform="translate(0,52.5)" style="opacity: 1;"><text class="legendtext" text-anchor="start" x="40" y="3.9" style="font-family: Arial; font-size: 10px; fill: rgb(0, 0, 0); fill-opacity: 1; white-space: pre;">schulz_zimm(15849,1.34)</text><g class="layers" style="opacity: 1;"><g class="legendfill"/><g class="legendlines"><path class="js-line" d="M5,0h30" style="fill: none; stroke: rgb(180, 101, 102); stroke-opacity: 1; stroke-width: 2px;"/></g><g class="legendsymbols"><g class="legendpoints"/></g></g><rect class="legendtoggle" x="0" y="-9.5" width="166.296875" height="19" style="fill: rgb(0, 0, 0); fill-opacity: 0;"/></g><g class="traces" transform="translate(0,71.5)" style="opacity: 1;"><text class="legendtext" text-anchor="start" x="40" y="3.9" style="font-family: Arial; font-size: 10px; fill: rgb(0, 0, 0); fill-opacity: 1; white-space: pre;">schulz_zimm(63096,1.49)</text><g class="layers" style="opacity: 1;"><g class="legendfill"/><g class="legendlines"><path class="js-line" d="M5,0h30" style="fill: none; stroke: rgb(184, 129, 128); stroke-opacity: 1; stroke-width: 2px;"/></g><g class="legendsymbols"><g class="legendpoints"/></g></g><rect class="legendtoggle" x="0" y="-9.5" width="166.296875" height="19" style="fill: rgb(0, 0, 0); fill-opacity: 0;"/></g><g class="traces" transform="translate(0,90.5)" style="opacity: 1;"><text class="legendtext" text-anchor="start" x="40" y="3.9" style="font-family: Arial; font-size: 10px; fill: rgb(0, 0, 0); fill-opacity: 1; white-space: pre;">schulz_zimm(251189,1.65)</text><g class="layers" style="opacity: 1;"><g class="legendfill"/><g class="legendlines"><path class="js-line" d="M5,0h30" style="fill: none; stroke: rgb(186, 157, 156); stroke-opacity: 1; stroke-width: 2px;"/></g><g class="legendsymbols"><g class="legendpoints"/></g></g><rect class="legendtoggle" x="0" y="-9.5" width="166.296875" height="19" style="fill: rgb(0, 0, 0); fill-opacity: 0;"/></g><g class="traces" transform="translate(0,109.5)" style="opacity: 1;"><text class="legendtext" text-anchor="start" x="40" y="3.9" style="font-family: Arial; font-size: 10px; fill: rgb(0, 0, 0); fill-opacity: 1; white-space: pre;">schulz_zimm(1000000,1.80)</text><g class="layers" style="opacity: 1;"><g class="legendfill"/><g class="legendlines"><path class="js-line" d="M5,0h30" style="fill: none; stroke: rgb(185, 185, 185); stroke-opacity: 1; stroke-width: 2px;"/></g><g class="legendsymbols"><g class="legendpoints"/></g></g><rect class="legendtoggle" x="0" y="-9.5" width="166.296875" height="19" style="fill: rgb(0, 0, 0); fill-opacity: 0;"/></g></g></g><rect class="scrollbar" rx="20" ry="3" width="0" height="0" style="fill: rgb(128, 139, 164); fill-opacity: 1;" x="0" y="0"/></g><g class="g-gtitle"/><g class="g-xtitle"><text class="xtitle" x="400" y="483.509375" text-anchor="middle" style="font-family: Arial; font-size: 22px; fill: rgb(0, 0, 0); opacity: 1; font-weight: normal; white-space: pre;"><tspan style="font-weight:bold">molecular weight, <tspan style="font-style:italic">mw​<tspan style="font-size:70%" dy="0.3em">i</tspan><tspan dy="-0.21em">​</tspan></tspan> (g/mol)</tspan></text></g><g class="g-ytitle" transform="translate(6.525390625,0)"><text class="ytitle" transform="rotate(-90,13.474999999999994,260)" x="13.474999999999994" y="260" text-anchor="middle" style="font-family: Arial; font-size: 22px; fill: rgb(0, 0, 0); opacity: 1; font-weight: normal; white-space: pre;"><tspan style="font-weight:bold">normalized weight fraction, <tspan style="font-style:italic">w​<tspan style="font-size:70%" dy="0.3em">i</tspan><tspan dy="-0.21em">​</tspan></tspan></tspan></text></g></g></svg>